ISO-10303-21;
HEADER;
/* Generated by software containing ST-Developer
 * from STEP Tools, Inc. (www.steptools.com) 
 */
/* OPTION: using custom renumber hook */

FILE_DESCRIPTION(
/* description */ ('STEP AP242',
'CAx-IF Rec.Pracs.---Representation and Presentation of Product Manufa
cturing Information (PMI)---4.0---2014-10-13',
'CAx-IF Rec.Pracs.---3D Tessellated Geometry---0.4---2014-09-14','2;1'),

/* implementation_level */ '2;1');

FILE_NAME(
/* name */ '6891c0ebd5b2bf278227f5e8',
/* time_stamp */ '2025-08-05T08:29:32Z',
/* author */ (''),
/* organization */ (''),
/* preprocessor_version */ 'ST-DEVELOPER v20',
/* originating_system */ 'ONSHAPE BY PTC INC, 1.201',
/* authorisation */ '  ');

FILE_SCHEMA (('AP242_MANAGED_MODEL_BASED_3D_ENGINEERING_MIM_LF { 1 0 10303 442 1 1 4 }'));
ENDSEC;

DATA;
#10=SHAPE_REPRESENTATION_RELATIONSHIP('','',#927,#11);
#11=ADVANCED_BREP_SHAPE_REPRESENTATION('',(#925),#1503);
#12=CYLINDRICAL_SURFACE('',#968,0.02);
#13=CYLINDRICAL_SURFACE('',#969,0.000999999999999979);
#14=CYLINDRICAL_SURFACE('',#971,0.001);
#15=CYLINDRICAL_SURFACE('',#973,0.001);
#16=CYLINDRICAL_SURFACE('',#975,0.0045);
#17=CYLINDRICAL_SURFACE('',#977,0.0045);
#18=CYLINDRICAL_SURFACE('',#979,0.001);
#19=CYLINDRICAL_SURFACE('',#988,0.002);
#20=CYLINDRICAL_SURFACE('',#991,0.002);
#21=CYLINDRICAL_SURFACE('',#994,0.002);
#22=CYLINDRICAL_SURFACE('',#997,0.002);
#23=CYLINDRICAL_SURFACE('',#1001,0.0015);
#24=CYLINDRICAL_SURFACE('',#1004,0.0015);
#25=CYLINDRICAL_SURFACE('',#1005,0.0015);
#26=CIRCLE('',#933,0.000999999999999979);
#27=CIRCLE('',#934,0.001);
#28=CIRCLE('',#935,0.001);
#29=CIRCLE('',#936,0.0045);
#30=CIRCLE('',#937,0.0045);
#31=CIRCLE('',#938,0.001);
#32=CIRCLE('',#944,0.0015);
#33=CIRCLE('',#951,0.02);
#34=CIRCLE('',#958,0.0015);
#35=CIRCLE('',#962,0.0015);
#36=CIRCLE('',#965,0.0015);
#37=CIRCLE('',#966,0.0015);
#38=CIRCLE('',#967,0.02);
#39=CIRCLE('',#970,0.000999999999999979);
#40=CIRCLE('',#972,0.001);
#41=CIRCLE('',#974,0.001);
#42=CIRCLE('',#976,0.0045);
#43=CIRCLE('',#978,0.0045);
#44=CIRCLE('',#980,0.001);
#45=CIRCLE('',#982,0.002);
#46=CIRCLE('',#983,0.002);
#47=CIRCLE('',#984,0.002);
#48=CIRCLE('',#985,0.002);
#49=CIRCLE('',#987,0.002);
#50=CIRCLE('',#990,0.002);
#51=CIRCLE('',#993,0.002);
#52=CIRCLE('',#996,0.002);
#53=CIRCLE('',#1002,0.0015);
#54=ORIENTED_EDGE('',*,*,#286,.T.);
#55=ORIENTED_EDGE('',*,*,#287,.F.);
#56=ORIENTED_EDGE('',*,*,#288,.T.);
#57=ORIENTED_EDGE('',*,*,#289,.F.);
#58=ORIENTED_EDGE('',*,*,#290,.F.);
#59=ORIENTED_EDGE('',*,*,#291,.F.);
#60=ORIENTED_EDGE('',*,*,#292,.T.);
#61=ORIENTED_EDGE('',*,*,#293,.F.);
#62=ORIENTED_EDGE('',*,*,#294,.T.);
#63=ORIENTED_EDGE('',*,*,#295,.F.);
#64=ORIENTED_EDGE('',*,*,#296,.T.);
#65=ORIENTED_EDGE('',*,*,#297,.F.);
#66=ORIENTED_EDGE('',*,*,#298,.T.);
#67=ORIENTED_EDGE('',*,*,#299,.F.);
#68=ORIENTED_EDGE('',*,*,#300,.T.);
#69=ORIENTED_EDGE('',*,*,#301,.F.);
#70=ORIENTED_EDGE('',*,*,#302,.T.);
#71=ORIENTED_EDGE('',*,*,#303,.T.);
#72=ORIENTED_EDGE('',*,*,#304,.T.);
#73=ORIENTED_EDGE('',*,*,#305,.T.);
#74=ORIENTED_EDGE('',*,*,#306,.T.);
#75=ORIENTED_EDGE('',*,*,#307,.T.);
#76=ORIENTED_EDGE('',*,*,#308,.T.);
#77=ORIENTED_EDGE('',*,*,#309,.T.);
#78=ORIENTED_EDGE('',*,*,#310,.T.);
#79=ORIENTED_EDGE('',*,*,#311,.T.);
#80=ORIENTED_EDGE('',*,*,#312,.T.);
#81=ORIENTED_EDGE('',*,*,#313,.T.);
#82=ORIENTED_EDGE('',*,*,#314,.T.);
#83=ORIENTED_EDGE('',*,*,#315,.T.);
#84=ORIENTED_EDGE('',*,*,#300,.F.);
#85=ORIENTED_EDGE('',*,*,#316,.F.);
#86=ORIENTED_EDGE('',*,*,#317,.F.);
#87=ORIENTED_EDGE('',*,*,#318,.F.);
#88=ORIENTED_EDGE('',*,*,#319,.F.);
#89=ORIENTED_EDGE('',*,*,#320,.F.);
#90=ORIENTED_EDGE('',*,*,#288,.F.);
#91=ORIENTED_EDGE('',*,*,#321,.F.);
#92=ORIENTED_EDGE('',*,*,#296,.F.);
#93=ORIENTED_EDGE('',*,*,#322,.F.);
#94=ORIENTED_EDGE('',*,*,#298,.F.);
#95=ORIENTED_EDGE('',*,*,#323,.F.);
#96=ORIENTED_EDGE('',*,*,#286,.F.);
#97=ORIENTED_EDGE('',*,*,#324,.F.);
#98=ORIENTED_EDGE('',*,*,#294,.F.);
#99=ORIENTED_EDGE('',*,*,#325,.F.);
#100=ORIENTED_EDGE('',*,*,#326,.T.);
#101=ORIENTED_EDGE('',*,*,#327,.T.);
#102=ORIENTED_EDGE('',*,*,#328,.T.);
#103=ORIENTED_EDGE('',*,*,#329,.T.);
#104=ORIENTED_EDGE('',*,*,#330,.T.);
#105=ORIENTED_EDGE('',*,*,#331,.T.);
#106=ORIENTED_EDGE('',*,*,#321,.T.);
#107=ORIENTED_EDGE('',*,*,#287,.T.);
#108=ORIENTED_EDGE('',*,*,#325,.T.);
#109=ORIENTED_EDGE('',*,*,#293,.T.);
#110=ORIENTED_EDGE('',*,*,#332,.T.);
#111=ORIENTED_EDGE('',*,*,#333,.F.);
#112=ORIENTED_EDGE('',*,*,#334,.F.);
#113=ORIENTED_EDGE('',*,*,#297,.T.);
#114=ORIENTED_EDGE('',*,*,#323,.T.);
#115=ORIENTED_EDGE('',*,*,#301,.T.);
#116=ORIENTED_EDGE('',*,*,#318,.T.);
#117=ORIENTED_EDGE('',*,*,#335,.T.);
#118=ORIENTED_EDGE('',*,*,#336,.T.);
#119=ORIENTED_EDGE('',*,*,#337,.T.);
#120=ORIENTED_EDGE('',*,*,#338,.T.);
#121=ORIENTED_EDGE('',*,*,#339,.T.);
#122=ORIENTED_EDGE('',*,*,#340,.T.);
#123=ORIENTED_EDGE('',*,*,#341,.T.);
#124=ORIENTED_EDGE('',*,*,#342,.T.);
#125=ORIENTED_EDGE('',*,*,#343,.T.);
#126=ORIENTED_EDGE('',*,*,#344,.T.);
#127=ORIENTED_EDGE('',*,*,#345,.T.);
#128=ORIENTED_EDGE('',*,*,#346,.T.);
#129=ORIENTED_EDGE('',*,*,#347,.T.);
#130=ORIENTED_EDGE('',*,*,#348,.T.);
#131=ORIENTED_EDGE('',*,*,#349,.T.);
#132=ORIENTED_EDGE('',*,*,#350,.F.);
#133=ORIENTED_EDGE('',*,*,#315,.F.);
#134=ORIENTED_EDGE('',*,*,#351,.T.);
#135=ORIENTED_EDGE('',*,*,#344,.F.);
#136=ORIENTED_EDGE('',*,*,#352,.F.);
#137=ORIENTED_EDGE('',*,*,#314,.F.);
#138=ORIENTED_EDGE('',*,*,#353,.T.);
#139=ORIENTED_EDGE('',*,*,#345,.F.);
#140=ORIENTED_EDGE('',*,*,#351,.F.);
#141=ORIENTED_EDGE('',*,*,#313,.F.);
#142=ORIENTED_EDGE('',*,*,#354,.T.);
#143=ORIENTED_EDGE('',*,*,#346,.F.);
#144=ORIENTED_EDGE('',*,*,#353,.F.);
#145=ORIENTED_EDGE('',*,*,#312,.F.);
#146=ORIENTED_EDGE('',*,*,#355,.T.);
#147=ORIENTED_EDGE('',*,*,#347,.F.);
#148=ORIENTED_EDGE('',*,*,#354,.F.);
#149=ORIENTED_EDGE('',*,*,#311,.F.);
#150=ORIENTED_EDGE('',*,*,#356,.T.);
#151=ORIENTED_EDGE('',*,*,#348,.F.);
#152=ORIENTED_EDGE('',*,*,#355,.F.);
#153=ORIENTED_EDGE('',*,*,#357,.T.);
#154=ORIENTED_EDGE('',*,*,#349,.F.);
#155=ORIENTED_EDGE('',*,*,#356,.F.);
#156=ORIENTED_EDGE('',*,*,#310,.F.);
#157=ORIENTED_EDGE('',*,*,#358,.T.);
#158=ORIENTED_EDGE('',*,*,#341,.F.);
#159=ORIENTED_EDGE('',*,*,#309,.F.);
#160=ORIENTED_EDGE('',*,*,#359,.T.);
#161=ORIENTED_EDGE('',*,*,#342,.F.);
#162=ORIENTED_EDGE('',*,*,#358,.F.);
#163=ORIENTED_EDGE('',*,*,#308,.F.);
#164=ORIENTED_EDGE('',*,*,#352,.T.);
#165=ORIENTED_EDGE('',*,*,#343,.F.);
#166=ORIENTED_EDGE('',*,*,#359,.F.);
#167=ORIENTED_EDGE('',*,*,#360,.T.);
#168=ORIENTED_EDGE('',*,*,#335,.F.);
#169=ORIENTED_EDGE('',*,*,#317,.T.);
#170=ORIENTED_EDGE('',*,*,#361,.F.);
#171=ORIENTED_EDGE('',*,*,#362,.T.);
#172=ORIENTED_EDGE('',*,*,#363,.F.);
#173=ORIENTED_EDGE('',*,*,#319,.T.);
#174=ORIENTED_EDGE('',*,*,#331,.F.);
#175=ORIENTED_EDGE('',*,*,#364,.T.);
#176=ORIENTED_EDGE('',*,*,#336,.F.);
#177=ORIENTED_EDGE('',*,*,#360,.F.);
#178=ORIENTED_EDGE('',*,*,#365,.F.);
#179=ORIENTED_EDGE('',*,*,#366,.T.);
#180=ORIENTED_EDGE('',*,*,#367,.F.);
#181=ORIENTED_EDGE('',*,*,#337,.F.);
#182=ORIENTED_EDGE('',*,*,#364,.F.);
#183=ORIENTED_EDGE('',*,*,#368,.F.);
#184=ORIENTED_EDGE('',*,*,#369,.F.);
#185=ORIENTED_EDGE('',*,*,#338,.F.);
#186=ORIENTED_EDGE('',*,*,#367,.T.);
#187=ORIENTED_EDGE('',*,*,#370,.F.);
#188=ORIENTED_EDGE('',*,*,#371,.F.);
#189=ORIENTED_EDGE('',*,*,#328,.F.);
#190=ORIENTED_EDGE('',*,*,#372,.T.);
#191=ORIENTED_EDGE('',*,*,#373,.F.);
#192=ORIENTED_EDGE('',*,*,#374,.T.);
#193=ORIENTED_EDGE('',*,*,#375,.F.);
#194=ORIENTED_EDGE('',*,*,#329,.F.);
#195=ORIENTED_EDGE('',*,*,#371,.T.);
#196=ORIENTED_EDGE('',*,*,#376,.F.);
#197=ORIENTED_EDGE('',*,*,#362,.F.);
#198=ORIENTED_EDGE('',*,*,#330,.F.);
#199=ORIENTED_EDGE('',*,*,#375,.T.);
#200=ORIENTED_EDGE('',*,*,#377,.F.);
#201=ORIENTED_EDGE('',*,*,#378,.F.);
#202=ORIENTED_EDGE('',*,*,#379,.F.);
#203=ORIENTED_EDGE('',*,*,#380,.T.);
#204=ORIENTED_EDGE('',*,*,#339,.F.);
#205=ORIENTED_EDGE('',*,*,#369,.T.);
#206=ORIENTED_EDGE('',*,*,#381,.F.);
#207=ORIENTED_EDGE('',*,*,#372,.F.);
#208=ORIENTED_EDGE('',*,*,#327,.F.);
#209=ORIENTED_EDGE('',*,*,#357,.F.);
#210=ORIENTED_EDGE('',*,*,#340,.F.);
#211=ORIENTED_EDGE('',*,*,#380,.F.);
#212=ORIENTED_EDGE('',*,*,#326,.F.);
#213=ORIENTED_EDGE('',*,*,#302,.F.);
#214=ORIENTED_EDGE('',*,*,#382,.T.);
#215=ORIENTED_EDGE('',*,*,#303,.F.);
#216=ORIENTED_EDGE('',*,*,#383,.T.);
#217=ORIENTED_EDGE('',*,*,#304,.F.);
#218=ORIENTED_EDGE('',*,*,#384,.T.);
#219=ORIENTED_EDGE('',*,*,#305,.F.);
#220=ORIENTED_EDGE('',*,*,#385,.F.);
#221=ORIENTED_EDGE('',*,*,#306,.F.);
#222=ORIENTED_EDGE('',*,*,#386,.F.);
#223=ORIENTED_EDGE('',*,*,#307,.F.);
#224=ORIENTED_EDGE('',*,*,#387,.T.);
#225=ORIENTED_EDGE('',*,*,#385,.T.);
#226=ORIENTED_EDGE('',*,*,#386,.T.);
#227=ORIENTED_EDGE('',*,*,#388,.T.);
#228=ORIENTED_EDGE('',*,*,#389,.T.);
#229=ORIENTED_EDGE('',*,*,#390,.T.);
#230=ORIENTED_EDGE('',*,*,#391,.T.);
#231=ORIENTED_EDGE('',*,*,#324,.T.);
#232=ORIENTED_EDGE('',*,*,#289,.T.);
#233=ORIENTED_EDGE('',*,*,#320,.T.);
#234=ORIENTED_EDGE('',*,*,#363,.T.);
#235=ORIENTED_EDGE('',*,*,#377,.T.);
#236=ORIENTED_EDGE('',*,*,#376,.T.);
#237=ORIENTED_EDGE('',*,*,#373,.T.);
#238=ORIENTED_EDGE('',*,*,#381,.T.);
#239=ORIENTED_EDGE('',*,*,#370,.T.);
#240=ORIENTED_EDGE('',*,*,#368,.T.);
#241=ORIENTED_EDGE('',*,*,#365,.T.);
#242=ORIENTED_EDGE('',*,*,#361,.T.);
#243=ORIENTED_EDGE('',*,*,#316,.T.);
#244=ORIENTED_EDGE('',*,*,#299,.T.);
#245=ORIENTED_EDGE('',*,*,#322,.T.);
#246=ORIENTED_EDGE('',*,*,#295,.T.);
#247=ORIENTED_EDGE('',*,*,#382,.F.);
#248=ORIENTED_EDGE('',*,*,#392,.F.);
#249=ORIENTED_EDGE('',*,*,#392,.T.);
#250=ORIENTED_EDGE('',*,*,#388,.F.);
#251=ORIENTED_EDGE('',*,*,#383,.F.);
#252=ORIENTED_EDGE('',*,*,#393,.F.);
#253=ORIENTED_EDGE('',*,*,#393,.T.);
#254=ORIENTED_EDGE('',*,*,#389,.F.);
#255=ORIENTED_EDGE('',*,*,#387,.F.);
#256=ORIENTED_EDGE('',*,*,#394,.F.);
#257=ORIENTED_EDGE('',*,*,#394,.T.);
#258=ORIENTED_EDGE('',*,*,#390,.F.);
#259=ORIENTED_EDGE('',*,*,#384,.F.);
#260=ORIENTED_EDGE('',*,*,#395,.F.);
#261=ORIENTED_EDGE('',*,*,#395,.T.);
#262=ORIENTED_EDGE('',*,*,#391,.F.);
#263=ORIENTED_EDGE('',*,*,#334,.T.);
#264=ORIENTED_EDGE('',*,*,#396,.F.);
#265=ORIENTED_EDGE('',*,*,#397,.F.);
#266=ORIENTED_EDGE('',*,*,#290,.T.);
#267=ORIENTED_EDGE('',*,*,#332,.F.);
#268=ORIENTED_EDGE('',*,*,#292,.F.);
#269=ORIENTED_EDGE('',*,*,#398,.T.);
#270=ORIENTED_EDGE('',*,*,#399,.T.);
#271=ORIENTED_EDGE('',*,*,#333,.T.);
#272=ORIENTED_EDGE('',*,*,#399,.F.);
#273=ORIENTED_EDGE('',*,*,#400,.F.);
#274=ORIENTED_EDGE('',*,*,#396,.T.);
#275=ORIENTED_EDGE('',*,*,#401,.F.);
#276=ORIENTED_EDGE('',*,*,#350,.T.);
#277=ORIENTED_EDGE('',*,*,#397,.T.);
#278=ORIENTED_EDGE('',*,*,#400,.T.);
#279=ORIENTED_EDGE('',*,*,#398,.F.);
#280=ORIENTED_EDGE('',*,*,#291,.T.);
#281=ORIENTED_EDGE('',*,*,#401,.T.);
#282=ORIENTED_EDGE('',*,*,#374,.F.);
#283=ORIENTED_EDGE('',*,*,#379,.T.);
#284=ORIENTED_EDGE('',*,*,#366,.F.);
#285=ORIENTED_EDGE('',*,*,#378,.T.);
#286=EDGE_CURVE('',#402,#403,#488,.T.);
#287=EDGE_CURVE('',#404,#403,#489,.T.);
#288=EDGE_CURVE('',#404,#405,#490,.T.);
#289=EDGE_CURVE('',#402,#405,#491,.T.);
#290=EDGE_CURVE('',#406,#407,#492,.T.);
#291=EDGE_CURVE('',#408,#406,#493,.T.);
#292=EDGE_CURVE('',#408,#409,#494,.T.);
#293=EDGE_CURVE('',#410,#409,#495,.T.);
#294=EDGE_CURVE('',#410,#411,#496,.T.);
#295=EDGE_CURVE('',#412,#411,#497,.T.);
#296=EDGE_CURVE('',#412,#413,#498,.T.);
#297=EDGE_CURVE('',#407,#413,#499,.T.);
#298=EDGE_CURVE('',#414,#415,#500,.T.);
#299=EDGE_CURVE('',#416,#415,#501,.T.);
#300=EDGE_CURVE('',#416,#417,#502,.T.);
#301=EDGE_CURVE('',#414,#417,#503,.T.);
#302=EDGE_CURVE('',#418,#418,#26,.T.);
#303=EDGE_CURVE('',#419,#419,#27,.T.);
#304=EDGE_CURVE('',#420,#420,#28,.T.);
#305=EDGE_CURVE('',#421,#421,#29,.T.);
#306=EDGE_CURVE('',#422,#422,#30,.T.);
#307=EDGE_CURVE('',#423,#423,#31,.T.);
#308=EDGE_CURVE('',#424,#425,#504,.T.);
#309=EDGE_CURVE('',#425,#426,#505,.T.);
#310=EDGE_CURVE('',#426,#427,#506,.T.);
#311=EDGE_CURVE('',#427,#428,#507,.T.);
#312=EDGE_CURVE('',#428,#429,#508,.T.);
#313=EDGE_CURVE('',#429,#430,#509,.T.);
#314=EDGE_CURVE('',#430,#431,#510,.T.);
#315=EDGE_CURVE('',#431,#424,#511,.T.);
#316=EDGE_CURVE('',#432,#416,#512,.T.);
#317=EDGE_CURVE('',#433,#432,#513,.T.);
#318=EDGE_CURVE('',#417,#433,#514,.T.);
#319=EDGE_CURVE('',#434,#435,#515,.T.);
#320=EDGE_CURVE('',#405,#434,#516,.T.);
#321=EDGE_CURVE('',#435,#404,#517,.T.);
#322=EDGE_CURVE('',#415,#412,#518,.T.);
#323=EDGE_CURVE('',#413,#414,#519,.T.);
#324=EDGE_CURVE('',#411,#402,#520,.T.);
#325=EDGE_CURVE('',#403,#410,#521,.T.);
#326=EDGE_CURVE('',#436,#437,#522,.T.);
#327=EDGE_CURVE('',#437,#438,#523,.T.);
#328=EDGE_CURVE('',#438,#439,#524,.T.);
#329=EDGE_CURVE('',#439,#440,#525,.T.);
#330=EDGE_CURVE('',#440,#441,#526,.T.);
#331=EDGE_CURVE('',#441,#435,#527,.T.);
#332=EDGE_CURVE('',#409,#442,#528,.T.);
#333=EDGE_CURVE('',#443,#442,#529,.T.);
#334=EDGE_CURVE('',#407,#443,#530,.T.);
#335=EDGE_CURVE('',#433,#444,#531,.T.);
#336=EDGE_CURVE('',#444,#445,#532,.T.);
#337=EDGE_CURVE('',#445,#446,#533,.T.);
#338=EDGE_CURVE('',#446,#447,#534,.T.);
#339=EDGE_CURVE('',#447,#448,#535,.T.);
#340=EDGE_CURVE('',#448,#449,#536,.T.);
#341=EDGE_CURVE('',#449,#450,#537,.T.);
#342=EDGE_CURVE('',#450,#451,#538,.T.);
#343=EDGE_CURVE('',#451,#452,#539,.T.);
#344=EDGE_CURVE('',#452,#453,#540,.T.);
#345=EDGE_CURVE('',#453,#454,#541,.T.);
#346=EDGE_CURVE('',#454,#455,#542,.T.);
#347=EDGE_CURVE('',#455,#456,#543,.T.);
#348=EDGE_CURVE('',#456,#457,#544,.T.);
#349=EDGE_CURVE('',#457,#436,#545,.T.);
#350=EDGE_CURVE('',#458,#458,#32,.T.);
#351=EDGE_CURVE('',#431,#453,#546,.T.);
#352=EDGE_CURVE('',#424,#452,#547,.T.);
#353=EDGE_CURVE('',#430,#454,#548,.T.);
#354=EDGE_CURVE('',#429,#455,#549,.T.);
#355=EDGE_CURVE('',#428,#456,#550,.T.);
#356=EDGE_CURVE('',#427,#457,#551,.T.);
#357=EDGE_CURVE('',#449,#436,#33,.T.);
#358=EDGE_CURVE('',#426,#450,#552,.T.);
#359=EDGE_CURVE('',#425,#451,#553,.T.);
#360=EDGE_CURVE('',#459,#444,#554,.T.);
#361=EDGE_CURVE('',#459,#432,#555,.T.);
#362=EDGE_CURVE('',#441,#460,#556,.T.);
#363=EDGE_CURVE('',#434,#460,#557,.T.);
#364=EDGE_CURVE('',#461,#445,#558,.T.);
#365=EDGE_CURVE('',#461,#459,#559,.T.);
#366=EDGE_CURVE('',#462,#462,#34,.T.);
#367=EDGE_CURVE('',#446,#463,#560,.T.);
#368=EDGE_CURVE('',#463,#461,#561,.T.);
#369=EDGE_CURVE('',#447,#464,#562,.T.);
#370=EDGE_CURVE('',#464,#463,#563,.T.);
#371=EDGE_CURVE('',#439,#465,#564,.T.);
#372=EDGE_CURVE('',#438,#466,#565,.T.);
#373=EDGE_CURVE('',#465,#466,#566,.T.);
#374=EDGE_CURVE('',#467,#467,#35,.T.);
#375=EDGE_CURVE('',#440,#468,#567,.T.);
#376=EDGE_CURVE('',#468,#465,#568,.T.);
#377=EDGE_CURVE('',#460,#468,#569,.T.);
#378=EDGE_CURVE('',#469,#469,#36,.T.);
#379=EDGE_CURVE('',#470,#470,#37,.T.);
#380=EDGE_CURVE('',#437,#448,#38,.T.);
#381=EDGE_CURVE('',#466,#464,#570,.T.);
#382=EDGE_CURVE('',#471,#471,#39,.T.);
#383=EDGE_CURVE('',#472,#472,#40,.T.);
#384=EDGE_CURVE('',#473,#473,#41,.T.);
#385=EDGE_CURVE('',#474,#474,#42,.T.);
#386=EDGE_CURVE('',#475,#475,#43,.T.);
#387=EDGE_CURVE('',#476,#476,#44,.T.);
#388=EDGE_CURVE('',#477,#477,#45,.T.);
#389=EDGE_CURVE('',#478,#478,#46,.T.);
#390=EDGE_CURVE('',#479,#479,#47,.T.);
#391=EDGE_CURVE('',#480,#480,#48,.T.);
#392=EDGE_CURVE('',#481,#481,#49,.T.);
#393=EDGE_CURVE('',#482,#482,#50,.T.);
#394=EDGE_CURVE('',#483,#483,#51,.T.);
#395=EDGE_CURVE('',#484,#484,#52,.T.);
#396=EDGE_CURVE('',#485,#443,#571,.T.);
#397=EDGE_CURVE('',#406,#485,#572,.T.);
#398=EDGE_CURVE('',#408,#486,#573,.T.);
#399=EDGE_CURVE('',#486,#442,#574,.T.);
#400=EDGE_CURVE('',#485,#486,#575,.T.);
#401=EDGE_CURVE('',#487,#487,#53,.T.);
#402=VERTEX_POINT('',#1253);
#403=VERTEX_POINT('',#1254);
#404=VERTEX_POINT('',#1256);
#405=VERTEX_POINT('',#1258);
#406=VERTEX_POINT('',#1262);
#407=VERTEX_POINT('',#1263);
#408=VERTEX_POINT('',#1265);
#409=VERTEX_POINT('',#1267);
#410=VERTEX_POINT('',#1269);
#411=VERTEX_POINT('',#1271);
#412=VERTEX_POINT('',#1273);
#413=VERTEX_POINT('',#1275);
#414=VERTEX_POINT('',#1279);
#415=VERTEX_POINT('',#1280);
#416=VERTEX_POINT('',#1282);
#417=VERTEX_POINT('',#1284);
#418=VERTEX_POINT('',#1288);
#419=VERTEX_POINT('',#1290);
#420=VERTEX_POINT('',#1292);
#421=VERTEX_POINT('',#1294);
#422=VERTEX_POINT('',#1296);
#423=VERTEX_POINT('',#1298);
#424=VERTEX_POINT('',#1300);
#425=VERTEX_POINT('',#1301);
#426=VERTEX_POINT('',#1303);
#427=VERTEX_POINT('',#1305);
#428=VERTEX_POINT('',#1307);
#429=VERTEX_POINT('',#1309);
#430=VERTEX_POINT('',#1311);
#431=VERTEX_POINT('',#1313);
#432=VERTEX_POINT('',#1317);
#433=VERTEX_POINT('',#1319);
#434=VERTEX_POINT('',#1323);
#435=VERTEX_POINT('',#1324);
#436=VERTEX_POINT('',#1335);
#437=VERTEX_POINT('',#1336);
#438=VERTEX_POINT('',#1338);
#439=VERTEX_POINT('',#1340);
#440=VERTEX_POINT('',#1342);
#441=VERTEX_POINT('',#1344);
#442=VERTEX_POINT('',#1347);
#443=VERTEX_POINT('',#1349);
#444=VERTEX_POINT('',#1352);
#445=VERTEX_POINT('',#1354);
#446=VERTEX_POINT('',#1356);
#447=VERTEX_POINT('',#1358);
#448=VERTEX_POINT('',#1360);
#449=VERTEX_POINT('',#1362);
#450=VERTEX_POINT('',#1364);
#451=VERTEX_POINT('',#1366);
#452=VERTEX_POINT('',#1368);
#453=VERTEX_POINT('',#1370);
#454=VERTEX_POINT('',#1372);
#455=VERTEX_POINT('',#1374);
#456=VERTEX_POINT('',#1376);
#457=VERTEX_POINT('',#1378);
#458=VERTEX_POINT('',#1381);
#459=VERTEX_POINT('',#1401);
#460=VERTEX_POINT('',#1405);
#461=VERTEX_POINT('',#1409);
#462=VERTEX_POINT('',#1413);
#463=VERTEX_POINT('',#1415);
#464=VERTEX_POINT('',#1419);
#465=VERTEX_POINT('',#1423);
#466=VERTEX_POINT('',#1425);
#467=VERTEX_POINT('',#1429);
#468=VERTEX_POINT('',#1431);
#469=VERTEX_POINT('',#1437);
#470=VERTEX_POINT('',#1439);
#471=VERTEX_POINT('',#1445);
#472=VERTEX_POINT('',#1448);
#473=VERTEX_POINT('',#1451);
#474=VERTEX_POINT('',#1454);
#475=VERTEX_POINT('',#1457);
#476=VERTEX_POINT('',#1460);
#477=VERTEX_POINT('',#1463);
#478=VERTEX_POINT('',#1465);
#479=VERTEX_POINT('',#1467);
#480=VERTEX_POINT('',#1469);
#481=VERTEX_POINT('',#1472);
#482=VERTEX_POINT('',#1476);
#483=VERTEX_POINT('',#1480);
#484=VERTEX_POINT('',#1484);
#485=VERTEX_POINT('',#1488);
#486=VERTEX_POINT('',#1492);
#487=VERTEX_POINT('',#1498);
#488=LINE('',#1252,#576);
#489=LINE('',#1255,#577);
#490=LINE('',#1257,#578);
#491=LINE('',#1259,#579);
#492=LINE('',#1261,#580);
#493=LINE('',#1264,#581);
#494=LINE('',#1266,#582);
#495=LINE('',#1268,#583);
#496=LINE('',#1270,#584);
#497=LINE('',#1272,#585);
#498=LINE('',#1274,#586);
#499=LINE('',#1276,#587);
#500=LINE('',#1278,#588);
#501=LINE('',#1281,#589);
#502=LINE('',#1283,#590);
#503=LINE('',#1285,#591);
#504=LINE('',#1299,#592);
#505=LINE('',#1302,#593);
#506=LINE('',#1304,#594);
#507=LINE('',#1306,#595);
#508=LINE('',#1308,#596);
#509=LINE('',#1310,#597);
#510=LINE('',#1312,#598);
#511=LINE('',#1314,#599);
#512=LINE('',#1316,#600);
#513=LINE('',#1318,#601);
#514=LINE('',#1320,#602);
#515=LINE('',#1322,#603);
#516=LINE('',#1325,#604);
#517=LINE('',#1326,#605);
#518=LINE('',#1328,#606);
#519=LINE('',#1329,#607);
#520=LINE('',#1331,#608);
#521=LINE('',#1332,#609);
#522=LINE('',#1334,#610);
#523=LINE('',#1337,#611);
#524=LINE('',#1339,#612);
#525=LINE('',#1341,#613);
#526=LINE('',#1343,#614);
#527=LINE('',#1345,#615);
#528=LINE('',#1346,#616);
#529=LINE('',#1348,#617);
#530=LINE('',#1350,#618);
#531=LINE('',#1351,#619);
#532=LINE('',#1353,#620);
#533=LINE('',#1355,#621);
#534=LINE('',#1357,#622);
#535=LINE('',#1359,#623);
#536=LINE('',#1361,#624);
#537=LINE('',#1363,#625);
#538=LINE('',#1365,#626);
#539=LINE('',#1367,#627);
#540=LINE('',#1369,#628);
#541=LINE('',#1371,#629);
#542=LINE('',#1373,#630);
#543=LINE('',#1375,#631);
#544=LINE('',#1377,#632);
#545=LINE('',#1379,#633);
#546=LINE('',#1383,#634);
#547=LINE('',#1384,#635);
#548=LINE('',#1386,#636);
#549=LINE('',#1388,#637);
#550=LINE('',#1390,#638);
#551=LINE('',#1392,#639);
#552=LINE('',#1395,#640);
#553=LINE('',#1397,#641);
#554=LINE('',#1400,#642);
#555=LINE('',#1402,#643);
#556=LINE('',#1404,#644);
#557=LINE('',#1406,#645);
#558=LINE('',#1408,#646);
#559=LINE('',#1410,#647);
#560=LINE('',#1414,#648);
#561=LINE('',#1416,#649);
#562=LINE('',#1418,#650);
#563=LINE('',#1420,#651);
#564=LINE('',#1422,#652);
#565=LINE('',#1424,#653);
#566=LINE('',#1426,#654);
#567=LINE('',#1430,#655);
#568=LINE('',#1432,#656);
#569=LINE('',#1434,#657);
#570=LINE('',#1441,#658);
#571=LINE('',#1487,#659);
#572=LINE('',#1489,#660);
#573=LINE('',#1491,#661);
#574=LINE('',#1493,#662);
#575=LINE('',#1495,#663);
#576=VECTOR('',#1010,1.);
#577=VECTOR('',#1011,1.);
#578=VECTOR('',#1012,1.);
#579=VECTOR('',#1013,1.);
#580=VECTOR('',#1016,1.);
#581=VECTOR('',#1017,1.);
#582=VECTOR('',#1018,1.);
#583=VECTOR('',#1019,1.);
#584=VECTOR('',#1020,1.);
#585=VECTOR('',#1021,1.);
#586=VECTOR('',#1022,1.);
#587=VECTOR('',#1023,1.);
#588=VECTOR('',#1026,1.);
#589=VECTOR('',#1027,1.);
#590=VECTOR('',#1028,1.);
#591=VECTOR('',#1029,1.);
#592=VECTOR('',#1044,1.);
#593=VECTOR('',#1045,1.);
#594=VECTOR('',#1046,1.);
#595=VECTOR('',#1047,1.);
#596=VECTOR('',#1048,1.);
#597=VECTOR('',#1049,1.);
#598=VECTOR('',#1050,1.);
#599=VECTOR('',#1051,1.);
#600=VECTOR('',#1054,1.);
#601=VECTOR('',#1055,1.);
#602=VECTOR('',#1056,1.);
#603=VECTOR('',#1059,1.);
#604=VECTOR('',#1060,1.);
#605=VECTOR('',#1061,1.);
#606=VECTOR('',#1064,1.);
#607=VECTOR('',#1065,1.);
#608=VECTOR('',#1068,1.);
#609=VECTOR('',#1069,1.);
#610=VECTOR('',#1072,1.);
#611=VECTOR('',#1073,1.);
#612=VECTOR('',#1074,1.);
#613=VECTOR('',#1075,1.);
#614=VECTOR('',#1076,1.);
#615=VECTOR('',#1077,1.);
#616=VECTOR('',#1078,1.);
#617=VECTOR('',#1079,1.);
#618=VECTOR('',#1080,1.);
#619=VECTOR('',#1081,1.);
#620=VECTOR('',#1082,1.);
#621=VECTOR('',#1083,1.);
#622=VECTOR('',#1084,1.);
#623=VECTOR('',#1085,1.);
#624=VECTOR('',#1086,1.);
#625=VECTOR('',#1087,1.);
#626=VECTOR('',#1088,1.);
#627=VECTOR('',#1089,1.);
#628=VECTOR('',#1090,1.);
#629=VECTOR('',#1091,1.);
#630=VECTOR('',#1092,1.);
#631=VECTOR('',#1093,1.);
#632=VECTOR('',#1094,1.);
#633=VECTOR('',#1095,1.);
#634=VECTOR('',#1100,1.);
#635=VECTOR('',#1101,1.);
#636=VECTOR('',#1104,1.);
#637=VECTOR('',#1107,1.);
#638=VECTOR('',#1110,1.);
#639=VECTOR('',#1113,1.);
#640=VECTOR('',#1118,1.);
#641=VECTOR('',#1121,1.);
#642=VECTOR('',#1126,1.);
#643=VECTOR('',#1127,1.);
#644=VECTOR('',#1130,1.);
#645=VECTOR('',#1131,1.);
#646=VECTOR('',#1134,1.);
#647=VECTOR('',#1135,1.);
#648=VECTOR('',#1140,1.);
#649=VECTOR('',#1141,1.);
#650=VECTOR('',#1144,1.);
#651=VECTOR('',#1145,1.);
#652=VECTOR('',#1148,1.);
#653=VECTOR('',#1149,1.);
#654=VECTOR('',#1150,1.);
#655=VECTOR('',#1155,1.);
#656=VECTOR('',#1156,1.);
#657=VECTOR('',#1159,1.);
#658=VECTOR('',#1168,1.);
#659=VECTOR('',#1231,1.);
#660=VECTOR('',#1232,1.);
#661=VECTOR('',#1235,1.);
#662=VECTOR('',#1236,1.);
#663=VECTOR('',#1239,1.);
#664=EDGE_LOOP('',(#54,#55,#56,#57));
#665=EDGE_LOOP('',(#58,#59,#60,#61,#62,#63,#64,#65));
#666=EDGE_LOOP('',(#66,#67,#68,#69));
#667=EDGE_LOOP('',(#70));
#668=EDGE_LOOP('',(#71));
#669=EDGE_LOOP('',(#72));
#670=EDGE_LOOP('',(#73));
#671=EDGE_LOOP('',(#74));
#672=EDGE_LOOP('',(#75));
#673=EDGE_LOOP('',(#76,#77,#78,#79,#80,#81,#82,#83));
#674=EDGE_LOOP('',(#84,#85,#86,#87));
#675=EDGE_LOOP('',(#88,#89,#90,#91));
#676=EDGE_LOOP('',(#92,#93,#94,#95));
#677=EDGE_LOOP('',(#96,#97,#98,#99));
#678=EDGE_LOOP('',(#100,#101,#102,#103,#104,#105,#106,#107,#108,#109,#110,
#111,#112,#113,#114,#115,#116,#117,#118,#119,#120,#121,#122,#123,#124,#125,
#126,#127,#128,#129,#130,#131));
#679=EDGE_LOOP('',(#132));
#680=EDGE_LOOP('',(#133,#134,#135,#136));
#681=EDGE_LOOP('',(#137,#138,#139,#140));
#682=EDGE_LOOP('',(#141,#142,#143,#144));
#683=EDGE_LOOP('',(#145,#146,#147,#148));
#684=EDGE_LOOP('',(#149,#150,#151,#152));
#685=EDGE_LOOP('',(#153,#154,#155,#156,#157,#158));
#686=EDGE_LOOP('',(#159,#160,#161,#162));
#687=EDGE_LOOP('',(#163,#164,#165,#166));
#688=EDGE_LOOP('',(#167,#168,#169,#170));
#689=EDGE_LOOP('',(#171,#172,#173,#174));
#690=EDGE_LOOP('',(#175,#176,#177,#178));
#691=EDGE_LOOP('',(#179));
#692=EDGE_LOOP('',(#180,#181,#182,#183));
#693=EDGE_LOOP('',(#184,#185,#186,#187));
#694=EDGE_LOOP('',(#188,#189,#190,#191));
#695=EDGE_LOOP('',(#192));
#696=EDGE_LOOP('',(#193,#194,#195,#196));
#697=EDGE_LOOP('',(#197,#198,#199,#200));
#698=EDGE_LOOP('',(#201));
#699=EDGE_LOOP('',(#202));
#700=EDGE_LOOP('',(#203,#204,#205,#206,#207,#208));
#701=EDGE_LOOP('',(#209,#210,#211,#212));
#702=EDGE_LOOP('',(#213));
#703=EDGE_LOOP('',(#214));
#704=EDGE_LOOP('',(#215));
#705=EDGE_LOOP('',(#216));
#706=EDGE_LOOP('',(#217));
#707=EDGE_LOOP('',(#218));
#708=EDGE_LOOP('',(#219));
#709=EDGE_LOOP('',(#220));
#710=EDGE_LOOP('',(#221));
#711=EDGE_LOOP('',(#222));
#712=EDGE_LOOP('',(#223));
#713=EDGE_LOOP('',(#224));
#714=EDGE_LOOP('',(#225));
#715=EDGE_LOOP('',(#226));
#716=EDGE_LOOP('',(#227));
#717=EDGE_LOOP('',(#228));
#718=EDGE_LOOP('',(#229));
#719=EDGE_LOOP('',(#230));
#720=EDGE_LOOP('',(#231,#232,#233,#234,#235,#236,#237,#238,#239,#240,#241,
#242,#243,#244,#245,#246));
#721=EDGE_LOOP('',(#247));
#722=EDGE_LOOP('',(#248));
#723=EDGE_LOOP('',(#249));
#724=EDGE_LOOP('',(#250));
#725=EDGE_LOOP('',(#251));
#726=EDGE_LOOP('',(#252));
#727=EDGE_LOOP('',(#253));
#728=EDGE_LOOP('',(#254));
#729=EDGE_LOOP('',(#255));
#730=EDGE_LOOP('',(#256));
#731=EDGE_LOOP('',(#257));
#732=EDGE_LOOP('',(#258));
#733=EDGE_LOOP('',(#259));
#734=EDGE_LOOP('',(#260));
#735=EDGE_LOOP('',(#261));
#736=EDGE_LOOP('',(#262));
#737=EDGE_LOOP('',(#263,#264,#265,#266));
#738=EDGE_LOOP('',(#267,#268,#269,#270));
#739=EDGE_LOOP('',(#271,#272,#273,#274));
#740=EDGE_LOOP('',(#275));
#741=EDGE_LOOP('',(#276));
#742=EDGE_LOOP('',(#277,#278,#279,#280));
#743=EDGE_LOOP('',(#281));
#744=EDGE_LOOP('',(#282));
#745=EDGE_LOOP('',(#283));
#746=EDGE_LOOP('',(#284));
#747=EDGE_LOOP('',(#285));
#748=FACE_BOUND('',#664,.T.);
#749=FACE_BOUND('',#665,.T.);
#750=FACE_BOUND('',#666,.T.);
#751=FACE_BOUND('',#667,.T.);
#752=FACE_BOUND('',#668,.T.);
#753=FACE_BOUND('',#669,.T.);
#754=FACE_BOUND('',#670,.T.);
#755=FACE_BOUND('',#671,.T.);
#756=FACE_BOUND('',#672,.T.);
#757=FACE_BOUND('',#673,.T.);
#758=FACE_BOUND('',#674,.T.);
#759=FACE_BOUND('',#675,.T.);
#760=FACE_BOUND('',#676,.T.);
#761=FACE_BOUND('',#677,.T.);
#762=FACE_BOUND('',#678,.T.);
#763=FACE_BOUND('',#679,.T.);
#764=FACE_BOUND('',#680,.T.);
#765=FACE_BOUND('',#681,.T.);
#766=FACE_BOUND('',#682,.T.);
#767=FACE_BOUND('',#683,.T.);
#768=FACE_BOUND('',#684,.T.);
#769=FACE_BOUND('',#685,.T.);
#770=FACE_BOUND('',#686,.T.);
#771=FACE_BOUND('',#687,.T.);
#772=FACE_BOUND('',#688,.T.);
#773=FACE_BOUND('',#689,.T.);
#774=FACE_BOUND('',#690,.T.);
#775=FACE_BOUND('',#691,.T.);
#776=FACE_BOUND('',#692,.T.);
#777=FACE_BOUND('',#693,.T.);
#778=FACE_BOUND('',#694,.T.);
#779=FACE_BOUND('',#695,.T.);
#780=FACE_BOUND('',#696,.T.);
#781=FACE_BOUND('',#697,.T.);
#782=FACE_BOUND('',#698,.T.);
#783=FACE_BOUND('',#699,.T.);
#784=FACE_BOUND('',#700,.T.);
#785=FACE_BOUND('',#701,.T.);
#786=FACE_BOUND('',#702,.T.);
#787=FACE_BOUND('',#703,.T.);
#788=FACE_BOUND('',#704,.T.);
#789=FACE_BOUND('',#705,.T.);
#790=FACE_BOUND('',#706,.T.);
#791=FACE_BOUND('',#707,.T.);
#792=FACE_BOUND('',#708,.T.);
#793=FACE_BOUND('',#709,.T.);
#794=FACE_BOUND('',#710,.T.);
#795=FACE_BOUND('',#711,.T.);
#796=FACE_BOUND('',#712,.T.);
#797=FACE_BOUND('',#713,.T.);
#798=FACE_BOUND('',#714,.T.);
#799=FACE_BOUND('',#715,.T.);
#800=FACE_BOUND('',#716,.T.);
#801=FACE_BOUND('',#717,.T.);
#802=FACE_BOUND('',#718,.T.);
#803=FACE_BOUND('',#719,.T.);
#804=FACE_BOUND('',#720,.T.);
#805=FACE_BOUND('',#721,.T.);
#806=FACE_BOUND('',#722,.T.);
#807=FACE_BOUND('',#723,.T.);
#808=FACE_BOUND('',#724,.T.);
#809=FACE_BOUND('',#725,.T.);
#810=FACE_BOUND('',#726,.T.);
#811=FACE_BOUND('',#727,.T.);
#812=FACE_BOUND('',#728,.T.);
#813=FACE_BOUND('',#729,.T.);
#814=FACE_BOUND('',#730,.T.);
#815=FACE_BOUND('',#731,.T.);
#816=FACE_BOUND('',#732,.T.);
#817=FACE_BOUND('',#733,.T.);
#818=FACE_BOUND('',#734,.T.);
#819=FACE_BOUND('',#735,.T.);
#820=FACE_BOUND('',#736,.T.);
#821=FACE_BOUND('',#737,.T.);
#822=FACE_BOUND('',#738,.T.);
#823=FACE_BOUND('',#739,.T.);
#824=FACE_BOUND('',#740,.T.);
#825=FACE_BOUND('',#741,.T.);
#826=FACE_BOUND('',#742,.T.);
#827=FACE_BOUND('',#743,.T.);
#828=FACE_BOUND('',#744,.T.);
#829=FACE_BOUND('',#745,.T.);
#830=FACE_BOUND('',#746,.T.);
#831=FACE_BOUND('',#747,.T.);
#832=PLANE('',#929);
#833=PLANE('',#930);
#834=PLANE('',#931);
#835=PLANE('',#932);
#836=PLANE('',#939);
#837=PLANE('',#940);
#838=PLANE('',#941);
#839=PLANE('',#942);
#840=PLANE('',#943);
#841=PLANE('',#945);
#842=PLANE('',#946);
#843=PLANE('',#947);
#844=PLANE('',#948);
#845=PLANE('',#949);
#846=PLANE('',#950);
#847=PLANE('',#952);
#848=PLANE('',#953);
#849=PLANE('',#954);
#850=PLANE('',#955);
#851=PLANE('',#956);
#852=PLANE('',#957);
#853=PLANE('',#959);
#854=PLANE('',#960);
#855=PLANE('',#961);
#856=PLANE('',#963);
#857=PLANE('',#964);
#858=PLANE('',#981);
#859=PLANE('',#986);
#860=PLANE('',#989);
#861=PLANE('',#992);
#862=PLANE('',#995);
#863=PLANE('',#998);
#864=PLANE('',#999);
#865=PLANE('',#1000);
#866=PLANE('',#1003);
#867=ADVANCED_FACE('',(#748),#832,.T.);
#868=ADVANCED_FACE('',(#749),#833,.T.);
#869=ADVANCED_FACE('',(#750),#834,.T.);
#870=ADVANCED_FACE('',(#751,#752,#753,#754,#755,#756,#757),#835,.T.);
#871=ADVANCED_FACE('',(#758),#836,.F.);
#872=ADVANCED_FACE('',(#759),#837,.F.);
#873=ADVANCED_FACE('',(#760),#838,.F.);
#874=ADVANCED_FACE('',(#761),#839,.F.);
#875=ADVANCED_FACE('',(#762,#763),#840,.T.);
#876=ADVANCED_FACE('',(#764),#841,.T.);
#877=ADVANCED_FACE('',(#765),#842,.T.);
#878=ADVANCED_FACE('',(#766),#843,.T.);
#879=ADVANCED_FACE('',(#767),#844,.T.);
#880=ADVANCED_FACE('',(#768),#845,.T.);
#881=ADVANCED_FACE('',(#769),#846,.T.);
#882=ADVANCED_FACE('',(#770),#847,.T.);
#883=ADVANCED_FACE('',(#771),#848,.T.);
#884=ADVANCED_FACE('',(#772),#849,.T.);
#885=ADVANCED_FACE('',(#773),#850,.T.);
#886=ADVANCED_FACE('',(#774),#851,.T.);
#887=ADVANCED_FACE('',(#775,#776),#852,.T.);
#888=ADVANCED_FACE('',(#777),#853,.T.);
#889=ADVANCED_FACE('',(#778),#854,.T.);
#890=ADVANCED_FACE('',(#779,#780),#855,.T.);
#891=ADVANCED_FACE('',(#781),#856,.T.);
#892=ADVANCED_FACE('',(#782,#783,#784),#857,.T.);
#893=ADVANCED_FACE('',(#785),#12,.F.);
#894=ADVANCED_FACE('',(#786,#787),#13,.F.);
#895=ADVANCED_FACE('',(#788,#789),#14,.F.);
#896=ADVANCED_FACE('',(#790,#791),#15,.F.);
#897=ADVANCED_FACE('',(#792,#793),#16,.F.);
#898=ADVANCED_FACE('',(#794,#795),#17,.F.);
#899=ADVANCED_FACE('',(#796,#797),#18,.F.);
#900=ADVANCED_FACE('',(#798,#799,#800,#801,#802,#803,#804),#858,.T.);
#901=ADVANCED_FACE('',(#805,#806),#859,.T.);
#902=ADVANCED_FACE('',(#807,#808),#19,.F.);
#903=ADVANCED_FACE('',(#809,#810),#860,.T.);
#904=ADVANCED_FACE('',(#811,#812),#20,.F.);
#905=ADVANCED_FACE('',(#813,#814),#861,.T.);
#906=ADVANCED_FACE('',(#815,#816),#21,.F.);
#907=ADVANCED_FACE('',(#817,#818),#862,.T.);
#908=ADVANCED_FACE('',(#819,#820),#22,.F.);
#909=ADVANCED_FACE('',(#821),#863,.F.);
#910=ADVANCED_FACE('',(#822),#864,.T.);
#911=ADVANCED_FACE('',(#823),#865,.F.);
#912=ADVANCED_FACE('',(#824,#825),#23,.F.);
#913=ADVANCED_FACE('',(#826,#827),#866,.F.);
#914=ADVANCED_FACE('',(#828,#829),#24,.F.);
#915=ADVANCED_FACE('',(#830,#831),#25,.F.);
#916=CLOSED_SHELL('',(#867,#868,#869,#870,#871,#872,#873,#874,#875,#876,
#877,#878,#879,#880,#881,#882,#883,#884,#885,#886,#887,#888,#889,#890,#891,
#892,#893,#894,#895,#896,#897,#898,#899,#900,#901,#902,#903,#904,#905,#906,
#907,#908,#909,#910,#911,#912,#913,#914,#915));
#917=STYLED_ITEM('',(#918),#925);
#918=PRESENTATION_STYLE_ASSIGNMENT((#919));
#919=SURFACE_STYLE_USAGE(.BOTH.,#920);
#920=SURFACE_SIDE_STYLE('',(#921));
#921=SURFACE_STYLE_FILL_AREA(#922);
#922=FILL_AREA_STYLE('',(#923));
#923=FILL_AREA_STYLE_COLOUR('',#924);
#924=DRAUGHTING_PRE_DEFINED_COLOUR('white');
#925=MANIFOLD_SOLID_BREP('back_head_pixelbot v4',#916);
#926=SHAPE_DEFINITION_REPRESENTATION(#1508,#927);
#927=SHAPE_REPRESENTATION('back_head_pixelbot v4',(#928),#1503);
#928=AXIS2_PLACEMENT_3D('',#1250,#1006,#1007);
#929=AXIS2_PLACEMENT_3D('',#1251,#1008,#1009);
#930=AXIS2_PLACEMENT_3D('',#1260,#1014,#1015);
#931=AXIS2_PLACEMENT_3D('',#1277,#1024,#1025);
#932=AXIS2_PLACEMENT_3D('',#1286,#1030,#1031);
#933=AXIS2_PLACEMENT_3D('',#1287,#1032,#1033);
#934=AXIS2_PLACEMENT_3D('',#1289,#1034,#1035);
#935=AXIS2_PLACEMENT_3D('',#1291,#1036,#1037);
#936=AXIS2_PLACEMENT_3D('',#1293,#1038,#1039);
#937=AXIS2_PLACEMENT_3D('',#1295,#1040,#1041);
#938=AXIS2_PLACEMENT_3D('',#1297,#1042,#1043);
#939=AXIS2_PLACEMENT_3D('',#1315,#1052,#1053);
#940=AXIS2_PLACEMENT_3D('',#1321,#1057,#1058);
#941=AXIS2_PLACEMENT_3D('',#1327,#1062,#1063);
#942=AXIS2_PLACEMENT_3D('',#1330,#1066,#1067);
#943=AXIS2_PLACEMENT_3D('',#1333,#1070,#1071);
#944=AXIS2_PLACEMENT_3D('',#1380,#1096,#1097);
#945=AXIS2_PLACEMENT_3D('',#1382,#1098,#1099);
#946=AXIS2_PLACEMENT_3D('',#1385,#1102,#1103);
#947=AXIS2_PLACEMENT_3D('',#1387,#1105,#1106);
#948=AXIS2_PLACEMENT_3D('',#1389,#1108,#1109);
#949=AXIS2_PLACEMENT_3D('',#1391,#1111,#1112);
#950=AXIS2_PLACEMENT_3D('',#1393,#1114,#1115);
#951=AXIS2_PLACEMENT_3D('',#1394,#1116,#1117);
#952=AXIS2_PLACEMENT_3D('',#1396,#1119,#1120);
#953=AXIS2_PLACEMENT_3D('',#1398,#1122,#1123);
#954=AXIS2_PLACEMENT_3D('',#1399,#1124,#1125);
#955=AXIS2_PLACEMENT_3D('',#1403,#1128,#1129);
#956=AXIS2_PLACEMENT_3D('',#1407,#1132,#1133);
#957=AXIS2_PLACEMENT_3D('',#1411,#1136,#1137);
#958=AXIS2_PLACEMENT_3D('',#1412,#1138,#1139);
#959=AXIS2_PLACEMENT_3D('',#1417,#1142,#1143);
#960=AXIS2_PLACEMENT_3D('',#1421,#1146,#1147);
#961=AXIS2_PLACEMENT_3D('',#1427,#1151,#1152);
#962=AXIS2_PLACEMENT_3D('',#1428,#1153,#1154);
#963=AXIS2_PLACEMENT_3D('',#1433,#1157,#1158);
#964=AXIS2_PLACEMENT_3D('',#1435,#1160,#1161);
#965=AXIS2_PLACEMENT_3D('',#1436,#1162,#1163);
#966=AXIS2_PLACEMENT_3D('',#1438,#1164,#1165);
#967=AXIS2_PLACEMENT_3D('',#1440,#1166,#1167);
#968=AXIS2_PLACEMENT_3D('',#1442,#1169,#1170);
#969=AXIS2_PLACEMENT_3D('',#1443,#1171,#1172);
#970=AXIS2_PLACEMENT_3D('',#1444,#1173,#1174);
#971=AXIS2_PLACEMENT_3D('',#1446,#1175,#1176);
#972=AXIS2_PLACEMENT_3D('',#1447,#1177,#1178);
#973=AXIS2_PLACEMENT_3D('',#1449,#1179,#1180);
#974=AXIS2_PLACEMENT_3D('',#1450,#1181,#1182);
#975=AXIS2_PLACEMENT_3D('',#1452,#1183,#1184);
#976=AXIS2_PLACEMENT_3D('',#1453,#1185,#1186);
#977=AXIS2_PLACEMENT_3D('',#1455,#1187,#1188);
#978=AXIS2_PLACEMENT_3D('',#1456,#1189,#1190);
#979=AXIS2_PLACEMENT_3D('',#1458,#1191,#1192);
#980=AXIS2_PLACEMENT_3D('',#1459,#1193,#1194);
#981=AXIS2_PLACEMENT_3D('',#1461,#1195,#1196);
#982=AXIS2_PLACEMENT_3D('',#1462,#1197,#1198);
#983=AXIS2_PLACEMENT_3D('',#1464,#1199,#1200);
#984=AXIS2_PLACEMENT_3D('',#1466,#1201,#1202);
#985=AXIS2_PLACEMENT_3D('',#1468,#1203,#1204);
#986=AXIS2_PLACEMENT_3D('',#1470,#1205,#1206);
#987=AXIS2_PLACEMENT_3D('',#1471,#1207,#1208);
#988=AXIS2_PLACEMENT_3D('',#1473,#1209,#1210);
#989=AXIS2_PLACEMENT_3D('',#1474,#1211,#1212);
#990=AXIS2_PLACEMENT_3D('',#1475,#1213,#1214);
#991=AXIS2_PLACEMENT_3D('',#1477,#1215,#1216);
#992=AXIS2_PLACEMENT_3D('',#1478,#1217,#1218);
#993=AXIS2_PLACEMENT_3D('',#1479,#1219,#1220);
#994=AXIS2_PLACEMENT_3D('',#1481,#1221,#1222);
#995=AXIS2_PLACEMENT_3D('',#1482,#1223,#1224);
#996=AXIS2_PLACEMENT_3D('',#1483,#1225,#1226);
#997=AXIS2_PLACEMENT_3D('',#1485,#1227,#1228);
#998=AXIS2_PLACEMENT_3D('',#1486,#1229,#1230);
#999=AXIS2_PLACEMENT_3D('',#1490,#1233,#1234);
#1000=AXIS2_PLACEMENT_3D('',#1494,#1237,#1238);
#1001=AXIS2_PLACEMENT_3D('',#1496,#1240,#1241);
#1002=AXIS2_PLACEMENT_3D('',#1497,#1242,#1243);
#1003=AXIS2_PLACEMENT_3D('',#1499,#1244,#1245);
#1004=AXIS2_PLACEMENT_3D('',#1500,#1246,#1247);
#1005=AXIS2_PLACEMENT_3D('',#1501,#1248,#1249);
#1006=DIRECTION('',(0.,0.,1.));
#1007=DIRECTION('',(1.,0.,0.));
#1008=DIRECTION('',(1.,0.,0.));
#1009=DIRECTION('',(0.,1.,0.));
#1010=DIRECTION('',(0.,0.,1.));
#1011=DIRECTION('',(0.,1.,0.));
#1012=DIRECTION('',(0.,0.,-1.));
#1013=DIRECTION('',(0.,-1.,0.));
#1014=DIRECTION('',(0.,1.,0.));
#1015=DIRECTION('',(-1.,0.,0.));
#1016=DIRECTION('',(0.,0.,1.));
#1017=DIRECTION('',(-1.,0.,0.));
#1018=DIRECTION('',(0.,0.,1.));
#1019=DIRECTION('',(-1.,0.,0.));
#1020=DIRECTION('',(0.,0.,-1.));
#1021=DIRECTION('',(1.,0.,0.));
#1022=DIRECTION('',(0.,0.,1.));
#1023=DIRECTION('',(-1.,0.,0.));
#1024=DIRECTION('',(-1.,0.,0.));
#1025=DIRECTION('',(0.,-1.,0.));
#1026=DIRECTION('',(0.,0.,-1.));
#1027=DIRECTION('',(0.,1.,0.));
#1028=DIRECTION('',(0.,0.,1.));
#1029=DIRECTION('',(0.,-1.,0.));
#1030=DIRECTION('',(0.,0.,1.));
#1031=DIRECTION('',(1.,0.,0.));
#1032=DIRECTION('',(0.,0.,-1.));
#1033=DIRECTION('',(1.,0.,0.));
#1034=DIRECTION('',(0.,0.,-1.));
#1035=DIRECTION('',(1.,0.,0.));
#1036=DIRECTION('',(0.,0.,-1.));
#1037=DIRECTION('',(1.,0.,0.));
#1038=DIRECTION('',(0.,0.,-1.));
#1039=DIRECTION('',(1.,0.,0.));
#1040=DIRECTION('',(0.,0.,-1.));
#1041=DIRECTION('',(1.,0.,0.));
#1042=DIRECTION('',(0.,0.,-1.));
#1043=DIRECTION('',(1.,0.,0.));
#1044=DIRECTION('',(0.,-1.,0.));
#1045=DIRECTION('',(0.707106781186548,-0.707106781186547,0.));
#1046=DIRECTION('',(1.,0.,0.));
#1047=DIRECTION('',(0.707106781186548,0.707106781186548,0.));
#1048=DIRECTION('',(0.,1.,0.));
#1049=DIRECTION('',(-0.707106781186547,0.707106781186548,0.));
#1050=DIRECTION('',(-1.,0.,0.));
#1051=DIRECTION('',(-0.707106781186547,-0.707106781186548,0.));
#1052=DIRECTION('',(0.707106781186548,0.707106781186548,0.));
#1053=DIRECTION('',(0.707106781186548,-0.707106781186548,0.));
#1054=DIRECTION('',(-0.707106781186548,0.707106781186548,0.));
#1055=DIRECTION('',(0.,0.,-1.));
#1056=DIRECTION('',(0.707106781186548,-0.707106781186548,0.));
#1057=DIRECTION('',(-0.707106781186548,0.707106781186548,0.));
#1058=DIRECTION('',(0.707106781186548,0.707106781186548,0.));
#1059=DIRECTION('',(0.,0.,1.));
#1060=DIRECTION('',(-0.707106781186548,-0.707106781186548,0.));
#1061=DIRECTION('',(0.707106781186548,0.707106781186548,0.));
#1062=DIRECTION('',(0.707106781186548,-0.707106781186548,0.));
#1063=DIRECTION('',(-0.707106781186548,-0.707106781186548,0.));
#1064=DIRECTION('',(0.707106781186548,0.707106781186548,0.));
#1065=DIRECTION('',(-0.707106781186548,-0.707106781186548,0.));
#1066=DIRECTION('',(-0.707106781186548,-0.707106781186548,0.));
#1067=DIRECTION('',(-0.707106781186548,0.707106781186548,0.));
#1068=DIRECTION('',(0.707106781186548,-0.707106781186548,0.));
#1069=DIRECTION('',(-0.707106781186548,0.707106781186548,0.));
#1070=DIRECTION('',(0.,0.,1.));
#1071=DIRECTION('',(1.,0.,0.));
#1072=DIRECTION('',(0.,-1.,0.));
#1073=DIRECTION('',(1.,-2.84672570416707E-17,0.));
#1074=DIRECTION('',(0.,1.,0.));
#1075=DIRECTION('',(-1.,0.,0.));
#1076=DIRECTION('',(0.,1.,0.));
#1077=DIRECTION('',(1.,0.,0.));
#1078=DIRECTION('',(0.,1.,0.));
#1079=DIRECTION('',(1.,0.,0.));
#1080=DIRECTION('',(0.,1.,0.));
#1081=DIRECTION('',(1.,0.,0.));
#1082=DIRECTION('',(0.,-1.,0.));
#1083=DIRECTION('',(-1.,0.,0.));
#1084=DIRECTION('',(0.,-1.,0.));
#1085=DIRECTION('',(1.,-2.84672570416707E-17,0.));
#1086=DIRECTION('',(0.,1.,0.));
#1087=DIRECTION('',(-1.,0.,0.));
#1088=DIRECTION('',(-0.707106781186548,0.707106781186547,0.));
#1089=DIRECTION('',(0.,1.,0.));
#1090=DIRECTION('',(0.707106781186547,0.707106781186548,0.));
#1091=DIRECTION('',(1.,0.,0.));
#1092=DIRECTION('',(0.707106781186547,-0.707106781186548,0.));
#1093=DIRECTION('',(0.,-1.,0.));
#1094=DIRECTION('',(-0.707106781186548,-0.707106781186548,0.));
#1095=DIRECTION('',(-1.,0.,0.));
#1096=DIRECTION('',(0.,0.,1.));
#1097=DIRECTION('',(1.,0.,0.));
#1098=DIRECTION('',(0.707106781186548,-0.707106781186547,0.));
#1099=DIRECTION('',(0.707106781186547,0.707106781186548,0.));
#1100=DIRECTION('',(0.,0.,1.));
#1101=DIRECTION('',(0.,0.,1.));
#1102=DIRECTION('',(0.,-1.,0.));
#1103=DIRECTION('',(1.,0.,0.));
#1104=DIRECTION('',(0.,0.,1.));
#1105=DIRECTION('',(-0.707106781186548,-0.707106781186547,0.));
#1106=DIRECTION('',(0.707106781186547,-0.707106781186548,0.));
#1107=DIRECTION('',(0.,0.,1.));
#1108=DIRECTION('',(-1.,0.,0.));
#1109=DIRECTION('',(0.,-1.,0.));
#1110=DIRECTION('',(0.,0.,1.));
#1111=DIRECTION('',(-0.707106781186548,0.707106781186548,0.));
#1112=DIRECTION('',(-0.707106781186548,-0.707106781186548,0.));
#1113=DIRECTION('',(0.,0.,1.));
#1114=DIRECTION('',(0.,1.,0.));
#1115=DIRECTION('',(-1.,0.,0.));
#1116=DIRECTION('',(0.,-1.,0.));
#1117=DIRECTION('',(1.,0.,2.22044604925031E-16));
#1118=DIRECTION('',(0.,0.,1.));
#1119=DIRECTION('',(0.707106781186547,0.707106781186548,0.));
#1120=DIRECTION('',(-0.707106781186548,0.707106781186547,0.));
#1121=DIRECTION('',(0.,0.,1.));
#1122=DIRECTION('',(1.,0.,0.));
#1123=DIRECTION('',(0.,1.,0.));
#1124=DIRECTION('',(0.,-1.,0.));
#1125=DIRECTION('',(1.,0.,0.));
#1126=DIRECTION('',(0.,0.,1.));
#1127=DIRECTION('',(-1.,0.,0.));
#1128=DIRECTION('',(0.,-1.,0.));
#1129=DIRECTION('',(1.,0.,0.));
#1130=DIRECTION('',(0.,0.,-1.));
#1131=DIRECTION('',(-1.,0.,0.));
#1132=DIRECTION('',(-1.,0.,0.));
#1133=DIRECTION('',(0.,-1.,0.));
#1134=DIRECTION('',(0.,0.,1.));
#1135=DIRECTION('',(0.,1.,0.));
#1136=DIRECTION('',(0.,1.,0.));
#1137=DIRECTION('',(-1.,0.,0.));
#1138=DIRECTION('',(-2.84672570416707E-17,-1.,0.));
#1139=DIRECTION('',(1.,-2.84672570416707E-17,0.));
#1140=DIRECTION('',(0.,0.,-1.));
#1141=DIRECTION('',(1.,0.,0.));
#1142=DIRECTION('',(-1.,0.,0.));
#1143=DIRECTION('',(0.,-1.,0.));
#1144=DIRECTION('',(0.,0.,-1.));
#1145=DIRECTION('',(0.,1.,0.));
#1146=DIRECTION('',(1.,0.,0.));
#1147=DIRECTION('',(0.,1.,0.));
#1148=DIRECTION('',(0.,0.,-1.));
#1149=DIRECTION('',(0.,0.,-1.));
#1150=DIRECTION('',(0.,-1.,0.));
#1151=DIRECTION('',(0.,1.,0.));
#1152=DIRECTION('',(-1.,0.,0.));
#1153=DIRECTION('',(-2.84672570416707E-17,-1.,0.));
#1154=DIRECTION('',(1.,-2.84672570416707E-17,0.));
#1155=DIRECTION('',(0.,0.,-1.));
#1156=DIRECTION('',(1.,0.,0.));
#1157=DIRECTION('',(1.,0.,0.));
#1158=DIRECTION('',(0.,1.,0.));
#1159=DIRECTION('',(0.,-1.,0.));
#1160=DIRECTION('',(-2.84672570416707E-17,-1.,0.));
#1161=DIRECTION('',(1.,-2.84672570416707E-17,0.));
#1162=DIRECTION('',(-2.84672570416707E-17,-1.,0.));
#1163=DIRECTION('',(1.,-2.84672570416707E-17,0.));
#1164=DIRECTION('',(-2.84672570416707E-17,-1.,0.));
#1165=DIRECTION('',(1.,-2.84672570416707E-17,0.));
#1166=DIRECTION('',(2.84672570416707E-17,1.,0.));
#1167=DIRECTION('',(1.,0.,2.22044604925031E-16));
#1168=DIRECTION('',(-1.,2.84672570416707E-17,0.));
#1169=DIRECTION('',(0.,-1.,0.));
#1170=DIRECTION('',(1.,0.,2.22044604925031E-16));
#1171=DIRECTION('',(0.,0.,1.));
#1172=DIRECTION('',(1.,0.,0.));
#1173=DIRECTION('',(0.,0.,-1.));
#1174=DIRECTION('',(-1.,0.,0.));
#1175=DIRECTION('',(0.,0.,1.));
#1176=DIRECTION('',(1.,0.,0.));
#1177=DIRECTION('',(0.,0.,-1.));
#1178=DIRECTION('',(1.,0.,0.));
#1179=DIRECTION('',(0.,0.,1.));
#1180=DIRECTION('',(1.,0.,0.));
#1181=DIRECTION('',(0.,0.,-1.));
#1182=DIRECTION('',(-1.,0.,0.));
#1183=DIRECTION('',(0.,0.,1.));
#1184=DIRECTION('',(1.,0.,0.));
#1185=DIRECTION('',(0.,0.,1.));
#1186=DIRECTION('',(1.,0.,0.));
#1187=DIRECTION('',(0.,0.,1.));
#1188=DIRECTION('',(1.,0.,0.));
#1189=DIRECTION('',(0.,0.,1.));
#1190=DIRECTION('',(1.,0.,0.));
#1191=DIRECTION('',(0.,0.,1.));
#1192=DIRECTION('',(1.,0.,0.));
#1193=DIRECTION('',(0.,0.,-1.));
#1194=DIRECTION('',(-1.,0.,0.));
#1195=DIRECTION('',(0.,0.,-1.));
#1196=DIRECTION('',(-1.,0.,0.));
#1197=DIRECTION('',(0.,0.,1.));
#1198=DIRECTION('',(1.,0.,0.));
#1199=DIRECTION('',(0.,0.,1.));
#1200=DIRECTION('',(1.,0.,0.));
#1201=DIRECTION('',(0.,0.,1.));
#1202=DIRECTION('',(1.,0.,0.));
#1203=DIRECTION('',(0.,0.,1.));
#1204=DIRECTION('',(1.,0.,0.));
#1205=DIRECTION('',(0.,0.,-1.));
#1206=DIRECTION('',(1.,0.,0.));
#1207=DIRECTION('',(0.,0.,1.));
#1208=DIRECTION('',(-1.,0.,0.));
#1209=DIRECTION('',(0.,0.,1.));
#1210=DIRECTION('',(1.,0.,0.));
#1211=DIRECTION('',(0.,0.,-1.));
#1212=DIRECTION('',(1.,0.,0.));
#1213=DIRECTION('',(0.,0.,1.));
#1214=DIRECTION('',(1.,0.,0.));
#1215=DIRECTION('',(0.,0.,1.));
#1216=DIRECTION('',(1.,0.,0.));
#1217=DIRECTION('',(0.,0.,-1.));
#1218=DIRECTION('',(1.,0.,0.));
#1219=DIRECTION('',(0.,0.,1.));
#1220=DIRECTION('',(-1.,0.,0.));
#1221=DIRECTION('',(0.,0.,1.));
#1222=DIRECTION('',(1.,0.,0.));
#1223=DIRECTION('',(0.,0.,-1.));
#1224=DIRECTION('',(1.,0.,0.));
#1225=DIRECTION('',(0.,0.,1.));
#1226=DIRECTION('',(-1.,0.,0.));
#1227=DIRECTION('',(0.,0.,1.));
#1228=DIRECTION('',(1.,0.,0.));
#1229=DIRECTION('',(1.,0.,0.));
#1230=DIRECTION('',(0.,0.,-1.));
#1231=DIRECTION('',(0.,0.,1.));
#1232=DIRECTION('',(0.,1.,0.));
#1233=DIRECTION('',(1.,0.,0.));
#1234=DIRECTION('',(0.,0.,-1.));
#1235=DIRECTION('',(0.,1.,0.));
#1236=DIRECTION('',(0.,0.,1.));
#1237=DIRECTION('',(0.,-1.,0.));
#1238=DIRECTION('',(0.,0.,-1.));
#1239=DIRECTION('',(1.,0.,0.));
#1240=DIRECTION('',(0.,0.,1.));
#1241=DIRECTION('',(1.,0.,0.));
#1242=DIRECTION('',(0.,0.,1.));
#1243=DIRECTION('',(1.,0.,0.));
#1244=DIRECTION('',(0.,0.,1.));
#1245=DIRECTION('',(1.,0.,0.));
#1246=DIRECTION('',(-2.84672570416707E-17,-1.,0.));
#1247=DIRECTION('',(1.,-2.84672570416707E-17,0.));
#1248=DIRECTION('',(-2.84672570416707E-17,-1.,0.));
#1249=DIRECTION('',(1.,-2.84672570416707E-17,0.));
#1250=CARTESIAN_POINT('',(0.,0.,0.));
#1251=CARTESIAN_POINT('',(0.2,0.,0.));
#1252=CARTESIAN_POINT('',(0.2,0.096,0.0005));
#1253=CARTESIAN_POINT('',(0.2,0.096,-0.002));
#1254=CARTESIAN_POINT('',(0.2,0.096,0.036));
#1255=CARTESIAN_POINT('',(0.2,0.044,0.036));
#1256=CARTESIAN_POINT('',(0.2,0.044,0.036));
#1257=CARTESIAN_POINT('',(0.2,0.044,0.));
#1258=CARTESIAN_POINT('',(0.2,0.044,-0.002));
#1259=CARTESIAN_POINT('',(0.2,0.,-0.002));
#1260=CARTESIAN_POINT('',(0.2,0.14,0.));
#1261=CARTESIAN_POINT('',(0.097,0.14,0.033));
#1262=CARTESIAN_POINT('',(0.097,0.14,0.033));
#1263=CARTESIAN_POINT('',(0.097,0.14,0.036));
#1264=CARTESIAN_POINT('',(0.156,0.14,0.033));
#1265=CARTESIAN_POINT('',(0.103,0.14,0.033));
#1266=CARTESIAN_POINT('',(0.103,0.14,0.033));
#1267=CARTESIAN_POINT('',(0.103,0.14,0.036));
#1268=CARTESIAN_POINT('',(0.156,0.14,0.036));
#1269=CARTESIAN_POINT('',(0.156,0.14,0.036));
#1270=CARTESIAN_POINT('',(0.156,0.14,0.));
#1271=CARTESIAN_POINT('',(0.156,0.14,-0.002));
#1272=CARTESIAN_POINT('',(0.2,0.14,-0.002));
#1273=CARTESIAN_POINT('',(0.044,0.14,-0.002));
#1274=CARTESIAN_POINT('',(0.044,0.14,0.0005));
#1275=CARTESIAN_POINT('',(0.044,0.14,0.036));
#1276=CARTESIAN_POINT('',(0.156,0.14,0.036));
#1277=CARTESIAN_POINT('',(0.,0.14,0.));
#1278=CARTESIAN_POINT('',(0.,0.096,0.));
#1279=CARTESIAN_POINT('',(0.,0.096,0.036));
#1280=CARTESIAN_POINT('',(0.,0.096,-0.002));
#1281=CARTESIAN_POINT('',(0.,0.14,-0.002));
#1282=CARTESIAN_POINT('',(0.,0.044,-0.002));
#1283=CARTESIAN_POINT('',(0.,0.044,0.0005));
#1284=CARTESIAN_POINT('',(0.,0.044,0.036));
#1285=CARTESIAN_POINT('',(0.,0.096,0.036));
#1286=CARTESIAN_POINT('',(0.1,0.07,0.001));
#1287=CARTESIAN_POINT('',(0.16,0.0705,0.001));
#1288=CARTESIAN_POINT('',(0.161,0.0705,0.001));
#1289=CARTESIAN_POINT('',(0.04,0.0705,0.001));
#1290=CARTESIAN_POINT('',(0.041,0.0705,0.001));
#1291=CARTESIAN_POINT('',(0.04,0.0985,0.001));
#1292=CARTESIAN_POINT('',(0.041,0.0985,0.001));
#1293=CARTESIAN_POINT('',(0.16,0.09,0.001));
#1294=CARTESIAN_POINT('',(0.1645,0.09,0.001));
#1295=CARTESIAN_POINT('',(0.04,0.09,0.001));
#1296=CARTESIAN_POINT('',(0.0445,0.09,0.001));
#1297=CARTESIAN_POINT('',(0.16,0.0985,0.001));
#1298=CARTESIAN_POINT('',(0.161,0.0985,0.001));
#1299=CARTESIAN_POINT('',(0.002,0.057,0.001));
#1300=CARTESIAN_POINT('',(0.002,0.096,0.001));
#1301=CARTESIAN_POINT('',(0.002,0.044,0.001));
#1302=CARTESIAN_POINT('',(0.041,0.005,0.001));
#1303=CARTESIAN_POINT('',(0.044,0.002,0.001));
#1304=CARTESIAN_POINT('',(0.128,0.002,0.001));
#1305=CARTESIAN_POINT('',(0.156,0.002,0.001));
#1306=CARTESIAN_POINT('',(0.18,0.026,0.001));
#1307=CARTESIAN_POINT('',(0.198,0.044,0.001));
#1308=CARTESIAN_POINT('',(0.198,0.083,0.001));
#1309=CARTESIAN_POINT('',(0.198,0.096,0.001));
#1310=CARTESIAN_POINT('',(0.159,0.135,0.001));
#1311=CARTESIAN_POINT('',(0.156,0.138,0.001));
#1312=CARTESIAN_POINT('',(0.072,0.138,0.001));
#1313=CARTESIAN_POINT('',(0.044,0.138,0.001));
#1314=CARTESIAN_POINT('',(0.02,0.114,0.001));
#1315=CARTESIAN_POINT('',(0.,0.044,0.001));
#1316=CARTESIAN_POINT('',(0.0185,0.0255,-0.002));
#1317=CARTESIAN_POINT('',(0.044,0.,-0.002));
#1318=CARTESIAN_POINT('',(0.044,0.,0.));
#1319=CARTESIAN_POINT('',(0.044,0.,0.036));
#1320=CARTESIAN_POINT('',(0.,0.044,0.036));
#1321=CARTESIAN_POINT('',(0.156,0.,0.001));
#1322=CARTESIAN_POINT('',(0.156,-4.44089209850063E-18,0.0005));
#1323=CARTESIAN_POINT('',(0.156,0.,-0.002));
#1324=CARTESIAN_POINT('',(0.156,0.,0.036));
#1325=CARTESIAN_POINT('',(0.1595,0.0035,-0.002));
#1326=CARTESIAN_POINT('',(0.156,0.,0.036));
#1327=CARTESIAN_POINT('',(0.044,0.14,0.001));
#1328=CARTESIAN_POINT('',(0.0405,0.1365,-0.002));
#1329=CARTESIAN_POINT('',(0.044,0.14,0.036));
#1330=CARTESIAN_POINT('',(0.2,0.096,0.001));
#1331=CARTESIAN_POINT('',(0.1815,0.1145,-0.002));
#1332=CARTESIAN_POINT('',(0.2,0.096,0.036));
#1333=CARTESIAN_POINT('',(0.1,0.07,0.036));
#1334=CARTESIAN_POINT('',(0.12,0.002,0.036));
#1335=CARTESIAN_POINT('',(0.12,0.002,0.036));
#1336=CARTESIAN_POINT('',(0.12,-0.018,0.036));
#1337=CARTESIAN_POINT('',(0.139,-0.018,0.036));
#1338=CARTESIAN_POINT('',(0.139,-0.018,0.036));
#1339=CARTESIAN_POINT('',(0.139,-0.015,0.036));
#1340=CARTESIAN_POINT('',(0.139,-0.015,0.036));
#1341=CARTESIAN_POINT('',(0.1,-0.015,0.036));
#1342=CARTESIAN_POINT('',(0.125,-0.015,0.036));
#1343=CARTESIAN_POINT('',(0.125,0.,0.036));
#1344=CARTESIAN_POINT('',(0.125,0.,0.036));
#1345=CARTESIAN_POINT('',(0.044,0.,0.036));
#1346=CARTESIAN_POINT('',(0.103,0.143,0.036));
#1347=CARTESIAN_POINT('',(0.103,0.146,0.036));
#1348=CARTESIAN_POINT('',(0.1,0.146,0.036));
#1349=CARTESIAN_POINT('',(0.097,0.146,0.036));
#1350=CARTESIAN_POINT('',(0.097,0.143,0.036));
#1351=CARTESIAN_POINT('',(0.044,0.,0.036));
#1352=CARTESIAN_POINT('',(0.075,0.,0.036));
#1353=CARTESIAN_POINT('',(0.075,-0.015,0.036));
#1354=CARTESIAN_POINT('',(0.075,-0.015,0.036));
#1355=CARTESIAN_POINT('',(0.075,-0.015,0.036));
#1356=CARTESIAN_POINT('',(0.061,-0.015,0.036));
#1357=CARTESIAN_POINT('',(0.061,-0.018,0.036));
#1358=CARTESIAN_POINT('',(0.061,-0.018,0.036));
#1359=CARTESIAN_POINT('',(0.139,-0.018,0.036));
#1360=CARTESIAN_POINT('',(0.08,-0.018,0.036));
#1361=CARTESIAN_POINT('',(0.08,0.002,0.036));
#1362=CARTESIAN_POINT('',(0.08,0.002,0.036));
#1363=CARTESIAN_POINT('',(0.044,0.002,0.036));
#1364=CARTESIAN_POINT('',(0.044,0.002,0.036));
#1365=CARTESIAN_POINT('',(0.002,0.044,0.036));
#1366=CARTESIAN_POINT('',(0.002,0.044,0.036));
#1367=CARTESIAN_POINT('',(0.002,0.096,0.036));
#1368=CARTESIAN_POINT('',(0.002,0.096,0.036));
#1369=CARTESIAN_POINT('',(0.044,0.138,0.036));
#1370=CARTESIAN_POINT('',(0.044,0.138,0.036));
#1371=CARTESIAN_POINT('',(0.044,0.138,0.036));
#1372=CARTESIAN_POINT('',(0.156,0.138,0.036));
#1373=CARTESIAN_POINT('',(0.198,0.096,0.036));
#1374=CARTESIAN_POINT('',(0.198,0.096,0.036));
#1375=CARTESIAN_POINT('',(0.198,0.096,0.036));
#1376=CARTESIAN_POINT('',(0.198,0.044,0.036));
#1377=CARTESIAN_POINT('',(0.156,0.002,0.036));
#1378=CARTESIAN_POINT('',(0.156,0.002,0.036));
#1379=CARTESIAN_POINT('',(0.044,0.002,0.036));
#1380=CARTESIAN_POINT('',(0.1,0.143,0.036));
#1381=CARTESIAN_POINT('',(0.1015,0.143,0.036));
#1382=CARTESIAN_POINT('',(0.002,0.096,0.001));
#1383=CARTESIAN_POINT('',(0.044,0.138,0.001));
#1384=CARTESIAN_POINT('',(0.002,0.096,0.001));
#1385=CARTESIAN_POINT('',(0.044,0.138,0.001));
#1386=CARTESIAN_POINT('',(0.156,0.138,0.001));
#1387=CARTESIAN_POINT('',(0.156,0.138,0.001));
#1388=CARTESIAN_POINT('',(0.198,0.096,0.001));
#1389=CARTESIAN_POINT('',(0.198,0.096,0.001));
#1390=CARTESIAN_POINT('',(0.198,0.044,0.001));
#1391=CARTESIAN_POINT('',(0.198,0.044,0.001));
#1392=CARTESIAN_POINT('',(0.156,0.002,0.001));
#1393=CARTESIAN_POINT('',(0.156,0.002,0.001));
#1394=CARTESIAN_POINT('',(0.1,0.002,0.036));
#1395=CARTESIAN_POINT('',(0.044,0.002,0.001));
#1396=CARTESIAN_POINT('',(0.044,0.002,0.001));
#1397=CARTESIAN_POINT('',(0.002,0.044,0.001));
#1398=CARTESIAN_POINT('',(0.002,0.044,0.001));
#1399=CARTESIAN_POINT('',(0.,0.,0.));
#1400=CARTESIAN_POINT('',(0.075,0.,-0.0005));
#1401=CARTESIAN_POINT('',(0.075,0.,-0.002));
#1402=CARTESIAN_POINT('',(0.,0.,-0.002));
#1403=CARTESIAN_POINT('',(0.,0.,0.));
#1404=CARTESIAN_POINT('',(0.125,0.,-0.0005));
#1405=CARTESIAN_POINT('',(0.125,0.,-0.002));
#1406=CARTESIAN_POINT('',(0.,0.,-0.002));
#1407=CARTESIAN_POINT('',(0.075,0.,-0.001));
#1408=CARTESIAN_POINT('',(0.075,-0.015,-0.001));
#1409=CARTESIAN_POINT('',(0.075,-0.015,-0.002));
#1410=CARTESIAN_POINT('',(0.075,-0.015,-0.002));
#1411=CARTESIAN_POINT('',(0.075,-0.015,-0.001));
#1412=CARTESIAN_POINT('',(0.068,-0.015,0.017));
#1413=CARTESIAN_POINT('',(0.0695,-0.015,0.017));
#1414=CARTESIAN_POINT('',(0.061,-0.015,-0.001));
#1415=CARTESIAN_POINT('',(0.061,-0.015,-0.002));
#1416=CARTESIAN_POINT('',(0.075,-0.015,-0.002));
#1417=CARTESIAN_POINT('',(0.061,-0.015,-0.001));
#1418=CARTESIAN_POINT('',(0.061,-0.018,-0.001));
#1419=CARTESIAN_POINT('',(0.061,-0.018,-0.002));
#1420=CARTESIAN_POINT('',(0.061,-0.018,-0.002));
#1421=CARTESIAN_POINT('',(0.139,-0.018,-0.001));
#1422=CARTESIAN_POINT('',(0.139,-0.015,-0.001));
#1423=CARTESIAN_POINT('',(0.139,-0.015,-0.002));
#1424=CARTESIAN_POINT('',(0.139,-0.018,-0.001));
#1425=CARTESIAN_POINT('',(0.139,-0.018,-0.002));
#1426=CARTESIAN_POINT('',(0.139,-0.015,-0.002));
#1427=CARTESIAN_POINT('',(0.075,-0.015,-0.001));
#1428=CARTESIAN_POINT('',(0.132,-0.015,0.017));
#1429=CARTESIAN_POINT('',(0.1335,-0.015,0.017));
#1430=CARTESIAN_POINT('',(0.125,-0.015,-0.001));
#1431=CARTESIAN_POINT('',(0.125,-0.015,-0.002));
#1432=CARTESIAN_POINT('',(0.1,-0.015,-0.002));
#1433=CARTESIAN_POINT('',(0.125,-0.015,-0.001));
#1434=CARTESIAN_POINT('',(0.125,0.,-0.002));
#1435=CARTESIAN_POINT('',(0.061,-0.018,-0.001));
#1436=CARTESIAN_POINT('',(0.068,-0.018,0.017));
#1437=CARTESIAN_POINT('',(0.0695,-0.018,0.017));
#1438=CARTESIAN_POINT('',(0.132,-0.018,0.017));
#1439=CARTESIAN_POINT('',(0.1335,-0.018,0.017));
#1440=CARTESIAN_POINT('',(0.1,-0.018,0.036));
#1441=CARTESIAN_POINT('',(0.139,-0.018,-0.002));
#1442=CARTESIAN_POINT('',(0.1,0.002,0.036));
#1443=CARTESIAN_POINT('',(0.16,0.0705,-0.001));
#1444=CARTESIAN_POINT('',(0.16,0.0705,0.));
#1445=CARTESIAN_POINT('',(0.159,0.0705,0.));
#1446=CARTESIAN_POINT('',(0.04,0.0705,-0.001));
#1447=CARTESIAN_POINT('',(0.04,0.0705,0.));
#1448=CARTESIAN_POINT('',(0.041,0.0705,0.));
#1449=CARTESIAN_POINT('',(0.04,0.0985,-0.001));
#1450=CARTESIAN_POINT('',(0.04,0.0985,0.));
#1451=CARTESIAN_POINT('',(0.039,0.0985,0.));
#1452=CARTESIAN_POINT('',(0.16,0.09,-0.001));
#1453=CARTESIAN_POINT('',(0.16,0.09,-0.002));
#1454=CARTESIAN_POINT('',(0.1645,0.09,-0.002));
#1455=CARTESIAN_POINT('',(0.04,0.09,-0.001));
#1456=CARTESIAN_POINT('',(0.04,0.09,-0.002));
#1457=CARTESIAN_POINT('',(0.0445,0.09,-0.002));
#1458=CARTESIAN_POINT('',(0.16,0.0985,-0.001));
#1459=CARTESIAN_POINT('',(0.16,0.0985,0.));
#1460=CARTESIAN_POINT('',(0.159,0.0985,0.));
#1461=CARTESIAN_POINT('',(0.1,0.07,-0.002));
#1462=CARTESIAN_POINT('',(0.16,0.0705,-0.002));
#1463=CARTESIAN_POINT('',(0.162,0.0705,-0.002));
#1464=CARTESIAN_POINT('',(0.04,0.0705,-0.002));
#1465=CARTESIAN_POINT('',(0.042,0.0705,-0.002));
#1466=CARTESIAN_POINT('',(0.16,0.0985,-0.002));
#1467=CARTESIAN_POINT('',(0.162,0.0985,-0.002));
#1468=CARTESIAN_POINT('',(0.04,0.0985,-0.002));
#1469=CARTESIAN_POINT('',(0.042,0.0985,-0.002));
#1470=CARTESIAN_POINT('',(0.04,0.0705,0.));
#1471=CARTESIAN_POINT('',(0.16,0.0705,0.));
#1472=CARTESIAN_POINT('',(0.158,0.0705,0.));
#1473=CARTESIAN_POINT('',(0.16,0.0705,-0.002));
#1474=CARTESIAN_POINT('',(0.04,0.0705,0.));
#1475=CARTESIAN_POINT('',(0.04,0.0705,0.));
#1476=CARTESIAN_POINT('',(0.042,0.0705,0.));
#1477=CARTESIAN_POINT('',(0.04,0.0705,-0.002));
#1478=CARTESIAN_POINT('',(0.04,0.0705,0.));
#1479=CARTESIAN_POINT('',(0.16,0.0985,0.));
#1480=CARTESIAN_POINT('',(0.158,0.0985,0.));
#1481=CARTESIAN_POINT('',(0.16,0.0985,-0.002));
#1482=CARTESIAN_POINT('',(0.04,0.0705,0.));
#1483=CARTESIAN_POINT('',(0.04,0.0985,0.));
#1484=CARTESIAN_POINT('',(0.038,0.0985,0.));
#1485=CARTESIAN_POINT('',(0.04,0.0985,-0.002));
#1486=CARTESIAN_POINT('',(0.097,0.143,0.033));
#1487=CARTESIAN_POINT('',(0.097,0.146,0.033));
#1488=CARTESIAN_POINT('',(0.097,0.146,0.033));
#1489=CARTESIAN_POINT('',(0.097,0.143,0.033));
#1490=CARTESIAN_POINT('',(0.103,0.143,0.033));
#1491=CARTESIAN_POINT('',(0.103,0.143,0.033));
#1492=CARTESIAN_POINT('',(0.103,0.146,0.033));
#1493=CARTESIAN_POINT('',(0.103,0.146,0.033));
#1494=CARTESIAN_POINT('',(0.1,0.146,0.033));
#1495=CARTESIAN_POINT('',(0.1,0.146,0.033));
#1496=CARTESIAN_POINT('',(0.1,0.143,0.033));
#1497=CARTESIAN_POINT('',(0.1,0.143,0.033));
#1498=CARTESIAN_POINT('',(0.1015,0.143,0.033));
#1499=CARTESIAN_POINT('',(0.1,0.06399875,0.033));
#1500=CARTESIAN_POINT('',(0.132,-0.015,0.017));
#1501=CARTESIAN_POINT('',(0.068,-0.015,0.017));
#1502=MECHANICAL_DESIGN_GEOMETRIC_PRESENTATION_REPRESENTATION('',(#917),
#1503);
#1503=(
GEOMETRIC_REPRESENTATION_CONTEXT(3)
GLOBAL_UNCERTAINTY_ASSIGNED_CONTEXT((#1504))
GLOBAL_UNIT_ASSIGNED_CONTEXT((#1507,#1506,#1505))
REPRESENTATION_CONTEXT('back_head_pixelbot v4',
'TOP_LEVEL_ASSEMBLY_PART')
);
#1504=UNCERTAINTY_MEASURE_WITH_UNIT(LENGTH_MEASURE(1.E-6),#1507,
'DISTANCE_ACCURACY_VALUE','Maximum Tolerance applied to model');
#1505=(
NAMED_UNIT(*)
SI_UNIT($,.STERADIAN.)
SOLID_ANGLE_UNIT()
);
#1506=(
NAMED_UNIT(*)
PLANE_ANGLE_UNIT()
SI_UNIT($,.RADIAN.)
);
#1507=(
LENGTH_UNIT()
NAMED_UNIT(*)
SI_UNIT($,.METRE.)
);
#1508=PRODUCT_DEFINITION_SHAPE('','',#1509);
#1509=PRODUCT_DEFINITION('','',#1511,#1510);
#1510=PRODUCT_DEFINITION_CONTEXT('',#1517,'design');
#1511=PRODUCT_DEFINITION_FORMATION_WITH_SPECIFIED_SOURCE('','',#1513,
 .NOT_KNOWN.);
#1512=PRODUCT_RELATED_PRODUCT_CATEGORY('','',(#1513));
#1513=PRODUCT('back_head_pixelbot v4','back_head_pixelbot v4',
'back_head_pixelbot v4',(#1515));
#1514=PRODUCT_CATEGORY('','');
#1515=PRODUCT_CONTEXT('',#1517,'mechanical');
#1516=APPLICATION_PROTOCOL_DEFINITION('international standard',
'ap242_managed_model_based_3d_engineering',2011,#1517);
#1517=APPLICATION_CONTEXT('managed model based 3d engineering');
ENDSEC;
END-ISO-10303-21;
