ISO-10303-21;
HEADER;
/* Generated by software containing ST-Developer
 * from STEP Tools, Inc. (www.steptools.com) 
 */
/* OPTION: using custom renumber hook */

FILE_DESCRIPTION(
/* description */ ('STEP AP242',
'CAx-IF Rec.Pracs.---Representation and Presentation of Product Manufa
cturing Information (PMI)---4.0---2014-10-13',
'CAx-IF Rec.Pracs.---3D Tessellated Geometry---0.4---2014-09-14','2;1'),

/* implementation_level */ '2;1');

FILE_NAME(
/* name */ '6891c14d792d2d6a8b5567e5',
/* time_stamp */ '2025-08-05T08:31:10Z',
/* author */ (''),
/* organization */ (''),
/* preprocessor_version */ 'ST-DEVELOPER v20',
/* originating_system */ 'ONSHAPE BY PTC INC, 1.201',
/* authorisation */ '  ');

FILE_SCHEMA (('AP242_MANAGED_MODEL_BASED_3D_ENGINEERING_MIM_LF { 1 0 10303 442 1 1 4 }'));
ENDSEC;

DATA;
#10=SHAPE_REPRESENTATION_RELATIONSHIP('','',#295,#11);
#11=ADVANCED_BREP_SHAPE_REPRESENTATION('',(#293),#483);
#12=CYLINDRICAL_SURFACE('',#321,0.0015);
#13=CYLINDRICAL_SURFACE('',#322,0.0015);
#14=CYLINDRICAL_SURFACE('',#323,0.0015);
#15=CYLINDRICAL_SURFACE('',#324,0.02);
#16=CYLINDRICAL_SURFACE('',#325,0.0015);
#17=CYLINDRICAL_SURFACE('',#326,0.0015);
#18=CYLINDRICAL_SURFACE('',#327,0.0015);
#19=CYLINDRICAL_SURFACE('',#328,0.0015);
#20=CYLINDRICAL_SURFACE('',#329,0.0015);
#21=LINE('',#430,#33);
#22=LINE('',#433,#34);
#23=LINE('',#435,#35);
#24=LINE('',#437,#36);
#25=LINE('',#457,#37);
#26=LINE('',#460,#38);
#27=LINE('',#462,#39);
#28=LINE('',#464,#40);
#29=LINE('',#466,#41);
#30=LINE('',#467,#42);
#31=LINE('',#469,#43);
#32=LINE('',#471,#44);
#33=VECTOR('',#352,1.);
#34=VECTOR('',#353,1.);
#35=VECTOR('',#354,1.);
#36=VECTOR('',#355,1.);
#37=VECTOR('',#376,1.);
#38=VECTOR('',#377,1.);
#39=VECTOR('',#378,1.);
#40=VECTOR('',#379,1.);
#41=VECTOR('',#382,1.);
#42=VECTOR('',#383,1.);
#43=VECTOR('',#386,1.);
#44=VECTOR('',#389,1.);
#45=ORIENTED_EDGE('',*,*,#105,.T.);
#46=ORIENTED_EDGE('',*,*,#106,.T.);
#47=ORIENTED_EDGE('',*,*,#107,.T.);
#48=ORIENTED_EDGE('',*,*,#108,.T.);
#49=ORIENTED_EDGE('',*,*,#109,.T.);
#50=ORIENTED_EDGE('',*,*,#110,.T.);
#51=ORIENTED_EDGE('',*,*,#111,.T.);
#52=ORIENTED_EDGE('',*,*,#112,.T.);
#53=ORIENTED_EDGE('',*,*,#113,.T.);
#54=ORIENTED_EDGE('',*,*,#114,.F.);
#55=ORIENTED_EDGE('',*,*,#115,.F.);
#56=ORIENTED_EDGE('',*,*,#116,.F.);
#57=ORIENTED_EDGE('',*,*,#117,.F.);
#58=ORIENTED_EDGE('',*,*,#118,.F.);
#59=ORIENTED_EDGE('',*,*,#119,.F.);
#60=ORIENTED_EDGE('',*,*,#120,.F.);
#61=ORIENTED_EDGE('',*,*,#121,.F.);
#62=ORIENTED_EDGE('',*,*,#122,.F.);
#63=ORIENTED_EDGE('',*,*,#123,.T.);
#64=ORIENTED_EDGE('',*,*,#124,.T.);
#65=ORIENTED_EDGE('',*,*,#125,.T.);
#66=ORIENTED_EDGE('',*,*,#126,.T.);
#67=ORIENTED_EDGE('',*,*,#127,.T.);
#68=ORIENTED_EDGE('',*,*,#128,.T.);
#69=ORIENTED_EDGE('',*,*,#129,.T.);
#70=ORIENTED_EDGE('',*,*,#130,.T.);
#71=ORIENTED_EDGE('',*,*,#114,.T.);
#72=ORIENTED_EDGE('',*,*,#131,.T.);
#73=ORIENTED_EDGE('',*,*,#127,.F.);
#74=ORIENTED_EDGE('',*,*,#132,.F.);
#75=ORIENTED_EDGE('',*,*,#117,.T.);
#76=ORIENTED_EDGE('',*,*,#133,.T.);
#77=ORIENTED_EDGE('',*,*,#128,.F.);
#78=ORIENTED_EDGE('',*,*,#131,.F.);
#79=ORIENTED_EDGE('',*,*,#116,.T.);
#80=ORIENTED_EDGE('',*,*,#134,.T.);
#81=ORIENTED_EDGE('',*,*,#129,.F.);
#82=ORIENTED_EDGE('',*,*,#133,.F.);
#83=ORIENTED_EDGE('',*,*,#115,.T.);
#84=ORIENTED_EDGE('',*,*,#132,.T.);
#85=ORIENTED_EDGE('',*,*,#130,.F.);
#86=ORIENTED_EDGE('',*,*,#134,.F.);
#87=ORIENTED_EDGE('',*,*,#110,.F.);
#88=ORIENTED_EDGE('',*,*,#123,.F.);
#89=ORIENTED_EDGE('',*,*,#111,.F.);
#90=ORIENTED_EDGE('',*,*,#124,.F.);
#91=ORIENTED_EDGE('',*,*,#112,.F.);
#92=ORIENTED_EDGE('',*,*,#125,.F.);
#93=ORIENTED_EDGE('',*,*,#113,.F.);
#94=ORIENTED_EDGE('',*,*,#126,.F.);
#95=ORIENTED_EDGE('',*,*,#109,.F.);
#96=ORIENTED_EDGE('',*,*,#122,.T.);
#97=ORIENTED_EDGE('',*,*,#108,.F.);
#98=ORIENTED_EDGE('',*,*,#121,.T.);
#99=ORIENTED_EDGE('',*,*,#107,.F.);
#100=ORIENTED_EDGE('',*,*,#120,.T.);
#101=ORIENTED_EDGE('',*,*,#106,.F.);
#102=ORIENTED_EDGE('',*,*,#119,.T.);
#103=ORIENTED_EDGE('',*,*,#105,.F.);
#104=ORIENTED_EDGE('',*,*,#118,.T.);
#105=EDGE_CURVE('',#135,#135,#161,.T.);
#106=EDGE_CURVE('',#136,#136,#162,.T.);
#107=EDGE_CURVE('',#137,#137,#163,.T.);
#108=EDGE_CURVE('',#138,#138,#164,.T.);
#109=EDGE_CURVE('',#139,#139,#165,.T.);
#110=EDGE_CURVE('',#140,#140,#166,.T.);
#111=EDGE_CURVE('',#141,#141,#167,.T.);
#112=EDGE_CURVE('',#142,#142,#168,.T.);
#113=EDGE_CURVE('',#143,#143,#169,.T.);
#114=EDGE_CURVE('',#144,#145,#21,.T.);
#115=EDGE_CURVE('',#146,#144,#22,.T.);
#116=EDGE_CURVE('',#147,#146,#23,.T.);
#117=EDGE_CURVE('',#145,#147,#24,.T.);
#118=EDGE_CURVE('',#148,#148,#170,.T.);
#119=EDGE_CURVE('',#149,#149,#171,.T.);
#120=EDGE_CURVE('',#150,#150,#172,.T.);
#121=EDGE_CURVE('',#151,#151,#173,.T.);
#122=EDGE_CURVE('',#152,#152,#174,.T.);
#123=EDGE_CURVE('',#153,#153,#175,.T.);
#124=EDGE_CURVE('',#154,#154,#176,.T.);
#125=EDGE_CURVE('',#155,#155,#177,.T.);
#126=EDGE_CURVE('',#156,#156,#178,.T.);
#127=EDGE_CURVE('',#157,#158,#25,.T.);
#128=EDGE_CURVE('',#158,#159,#26,.T.);
#129=EDGE_CURVE('',#159,#160,#27,.T.);
#130=EDGE_CURVE('',#160,#157,#28,.T.);
#131=EDGE_CURVE('',#145,#158,#29,.T.);
#132=EDGE_CURVE('',#144,#157,#30,.T.);
#133=EDGE_CURVE('',#147,#159,#31,.T.);
#134=EDGE_CURVE('',#146,#160,#32,.T.);
#135=VERTEX_POINT('',#413);
#136=VERTEX_POINT('',#415);
#137=VERTEX_POINT('',#417);
#138=VERTEX_POINT('',#419);
#139=VERTEX_POINT('',#421);
#140=VERTEX_POINT('',#423);
#141=VERTEX_POINT('',#425);
#142=VERTEX_POINT('',#427);
#143=VERTEX_POINT('',#429);
#144=VERTEX_POINT('',#431);
#145=VERTEX_POINT('',#432);
#146=VERTEX_POINT('',#434);
#147=VERTEX_POINT('',#436);
#148=VERTEX_POINT('',#440);
#149=VERTEX_POINT('',#442);
#150=VERTEX_POINT('',#444);
#151=VERTEX_POINT('',#446);
#152=VERTEX_POINT('',#448);
#153=VERTEX_POINT('',#450);
#154=VERTEX_POINT('',#452);
#155=VERTEX_POINT('',#454);
#156=VERTEX_POINT('',#456);
#157=VERTEX_POINT('',#458);
#158=VERTEX_POINT('',#459);
#159=VERTEX_POINT('',#461);
#160=VERTEX_POINT('',#463);
#161=CIRCLE('',#298,0.0015);
#162=CIRCLE('',#299,0.0015);
#163=CIRCLE('',#300,0.0015);
#164=CIRCLE('',#301,0.0015);
#165=CIRCLE('',#302,0.0015);
#166=CIRCLE('',#303,0.0015);
#167=CIRCLE('',#304,0.0015);
#168=CIRCLE('',#305,0.0015);
#169=CIRCLE('',#306,0.02);
#170=CIRCLE('',#308,0.0015);
#171=CIRCLE('',#309,0.0015);
#172=CIRCLE('',#310,0.0015);
#173=CIRCLE('',#311,0.0015);
#174=CIRCLE('',#312,0.0015);
#175=CIRCLE('',#313,0.0015);
#176=CIRCLE('',#314,0.0015);
#177=CIRCLE('',#315,0.0015);
#178=CIRCLE('',#316,0.02);
#179=EDGE_LOOP('',(#45));
#180=EDGE_LOOP('',(#46));
#181=EDGE_LOOP('',(#47));
#182=EDGE_LOOP('',(#48));
#183=EDGE_LOOP('',(#49));
#184=EDGE_LOOP('',(#50));
#185=EDGE_LOOP('',(#51));
#186=EDGE_LOOP('',(#52));
#187=EDGE_LOOP('',(#53));
#188=EDGE_LOOP('',(#54,#55,#56,#57));
#189=EDGE_LOOP('',(#58));
#190=EDGE_LOOP('',(#59));
#191=EDGE_LOOP('',(#60));
#192=EDGE_LOOP('',(#61));
#193=EDGE_LOOP('',(#62));
#194=EDGE_LOOP('',(#63));
#195=EDGE_LOOP('',(#64));
#196=EDGE_LOOP('',(#65));
#197=EDGE_LOOP('',(#66));
#198=EDGE_LOOP('',(#67,#68,#69,#70));
#199=EDGE_LOOP('',(#71,#72,#73,#74));
#200=EDGE_LOOP('',(#75,#76,#77,#78));
#201=EDGE_LOOP('',(#79,#80,#81,#82));
#202=EDGE_LOOP('',(#83,#84,#85,#86));
#203=EDGE_LOOP('',(#87));
#204=EDGE_LOOP('',(#88));
#205=EDGE_LOOP('',(#89));
#206=EDGE_LOOP('',(#90));
#207=EDGE_LOOP('',(#91));
#208=EDGE_LOOP('',(#92));
#209=EDGE_LOOP('',(#93));
#210=EDGE_LOOP('',(#94));
#211=EDGE_LOOP('',(#95));
#212=EDGE_LOOP('',(#96));
#213=EDGE_LOOP('',(#97));
#214=EDGE_LOOP('',(#98));
#215=EDGE_LOOP('',(#99));
#216=EDGE_LOOP('',(#100));
#217=EDGE_LOOP('',(#101));
#218=EDGE_LOOP('',(#102));
#219=EDGE_LOOP('',(#103));
#220=EDGE_LOOP('',(#104));
#221=FACE_BOUND('',#179,.T.);
#222=FACE_BOUND('',#180,.T.);
#223=FACE_BOUND('',#181,.T.);
#224=FACE_BOUND('',#182,.T.);
#225=FACE_BOUND('',#183,.T.);
#226=FACE_BOUND('',#184,.T.);
#227=FACE_BOUND('',#185,.T.);
#228=FACE_BOUND('',#186,.T.);
#229=FACE_BOUND('',#187,.T.);
#230=FACE_BOUND('',#188,.T.);
#231=FACE_BOUND('',#189,.T.);
#232=FACE_BOUND('',#190,.T.);
#233=FACE_BOUND('',#191,.T.);
#234=FACE_BOUND('',#192,.T.);
#235=FACE_BOUND('',#193,.T.);
#236=FACE_BOUND('',#194,.T.);
#237=FACE_BOUND('',#195,.T.);
#238=FACE_BOUND('',#196,.T.);
#239=FACE_BOUND('',#197,.T.);
#240=FACE_BOUND('',#198,.T.);
#241=FACE_BOUND('',#199,.T.);
#242=FACE_BOUND('',#200,.T.);
#243=FACE_BOUND('',#201,.T.);
#244=FACE_BOUND('',#202,.T.);
#245=FACE_BOUND('',#203,.T.);
#246=FACE_BOUND('',#204,.T.);
#247=FACE_BOUND('',#205,.T.);
#248=FACE_BOUND('',#206,.T.);
#249=FACE_BOUND('',#207,.T.);
#250=FACE_BOUND('',#208,.T.);
#251=FACE_BOUND('',#209,.T.);
#252=FACE_BOUND('',#210,.T.);
#253=FACE_BOUND('',#211,.T.);
#254=FACE_BOUND('',#212,.T.);
#255=FACE_BOUND('',#213,.T.);
#256=FACE_BOUND('',#214,.T.);
#257=FACE_BOUND('',#215,.T.);
#258=FACE_BOUND('',#216,.T.);
#259=FACE_BOUND('',#217,.T.);
#260=FACE_BOUND('',#218,.T.);
#261=FACE_BOUND('',#219,.T.);
#262=FACE_BOUND('',#220,.T.);
#263=PLANE('',#297);
#264=PLANE('',#307);
#265=PLANE('',#317);
#266=PLANE('',#318);
#267=PLANE('',#319);
#268=PLANE('',#320);
#269=ADVANCED_FACE('',(#221,#222,#223,#224,#225,#226,#227,#228,#229,#230),
#263,.F.);
#270=ADVANCED_FACE('',(#231,#232,#233,#234,#235,#236,#237,#238,#239,#240),
#264,.T.);
#271=ADVANCED_FACE('',(#241),#265,.T.);
#272=ADVANCED_FACE('',(#242),#266,.T.);
#273=ADVANCED_FACE('',(#243),#267,.T.);
#274=ADVANCED_FACE('',(#244),#268,.T.);
#275=ADVANCED_FACE('',(#245,#246),#12,.F.);
#276=ADVANCED_FACE('',(#247,#248),#13,.F.);
#277=ADVANCED_FACE('',(#249,#250),#14,.F.);
#278=ADVANCED_FACE('',(#251,#252),#15,.F.);
#279=ADVANCED_FACE('',(#253,#254),#16,.F.);
#280=ADVANCED_FACE('',(#255,#256),#17,.F.);
#281=ADVANCED_FACE('',(#257,#258),#18,.F.);
#282=ADVANCED_FACE('',(#259,#260),#19,.F.);
#283=ADVANCED_FACE('',(#261,#262),#20,.F.);
#284=CLOSED_SHELL('',(#269,#270,#271,#272,#273,#274,#275,#276,#277,#278,
#279,#280,#281,#282,#283));
#285=STYLED_ITEM('',(#286),#293);
#286=PRESENTATION_STYLE_ASSIGNMENT((#287));
#287=SURFACE_STYLE_USAGE(.BOTH.,#288);
#288=SURFACE_SIDE_STYLE('',(#289));
#289=SURFACE_STYLE_FILL_AREA(#290);
#290=FILL_AREA_STYLE('',(#291));
#291=FILL_AREA_STYLE_COLOUR('',#292);
#292=DRAUGHTING_PRE_DEFINED_COLOUR('white');
#293=MANIFOLD_SOLID_BREP('enclosure_top_pixelbot v9',#284);
#294=SHAPE_DEFINITION_REPRESENTATION(#488,#295);
#295=SHAPE_REPRESENTATION('enclosure_top_pixelbot v9',(#296),#483);
#296=AXIS2_PLACEMENT_3D('',#410,#330,#331);
#297=AXIS2_PLACEMENT_3D('',#411,#332,#333);
#298=AXIS2_PLACEMENT_3D('',#412,#334,#335);
#299=AXIS2_PLACEMENT_3D('',#414,#336,#337);
#300=AXIS2_PLACEMENT_3D('',#416,#338,#339);
#301=AXIS2_PLACEMENT_3D('',#418,#340,#341);
#302=AXIS2_PLACEMENT_3D('',#420,#342,#343);
#303=AXIS2_PLACEMENT_3D('',#422,#344,#345);
#304=AXIS2_PLACEMENT_3D('',#424,#346,#347);
#305=AXIS2_PLACEMENT_3D('',#426,#348,#349);
#306=AXIS2_PLACEMENT_3D('',#428,#350,#351);
#307=AXIS2_PLACEMENT_3D('',#438,#356,#357);
#308=AXIS2_PLACEMENT_3D('',#439,#358,#359);
#309=AXIS2_PLACEMENT_3D('',#441,#360,#361);
#310=AXIS2_PLACEMENT_3D('',#443,#362,#363);
#311=AXIS2_PLACEMENT_3D('',#445,#364,#365);
#312=AXIS2_PLACEMENT_3D('',#447,#366,#367);
#313=AXIS2_PLACEMENT_3D('',#449,#368,#369);
#314=AXIS2_PLACEMENT_3D('',#451,#370,#371);
#315=AXIS2_PLACEMENT_3D('',#453,#372,#373);
#316=AXIS2_PLACEMENT_3D('',#455,#374,#375);
#317=AXIS2_PLACEMENT_3D('',#465,#380,#381);
#318=AXIS2_PLACEMENT_3D('',#468,#384,#385);
#319=AXIS2_PLACEMENT_3D('',#470,#387,#388);
#320=AXIS2_PLACEMENT_3D('',#472,#390,#391);
#321=AXIS2_PLACEMENT_3D('',#473,#392,#393);
#322=AXIS2_PLACEMENT_3D('',#474,#394,#395);
#323=AXIS2_PLACEMENT_3D('',#475,#396,#397);
#324=AXIS2_PLACEMENT_3D('',#476,#398,#399);
#325=AXIS2_PLACEMENT_3D('',#477,#400,#401);
#326=AXIS2_PLACEMENT_3D('',#478,#402,#403);
#327=AXIS2_PLACEMENT_3D('',#479,#404,#405);
#328=AXIS2_PLACEMENT_3D('',#480,#406,#407);
#329=AXIS2_PLACEMENT_3D('',#481,#408,#409);
#330=DIRECTION('',(0.,0.,1.));
#331=DIRECTION('',(1.,0.,0.));
#332=DIRECTION('',(0.,0.,1.));
#333=DIRECTION('',(1.,0.,0.));
#334=DIRECTION('',(0.,0.,1.));
#335=DIRECTION('',(1.,0.,0.));
#336=DIRECTION('',(0.,0.,1.));
#337=DIRECTION('',(1.,0.,0.));
#338=DIRECTION('',(0.,0.,1.));
#339=DIRECTION('',(1.,0.,0.));
#340=DIRECTION('',(0.,0.,1.));
#341=DIRECTION('',(1.,0.,0.));
#342=DIRECTION('',(0.,0.,1.));
#343=DIRECTION('',(1.,0.,0.));
#344=DIRECTION('',(0.,0.,1.));
#345=DIRECTION('',(-1.,0.,0.));
#346=DIRECTION('',(0.,0.,1.));
#347=DIRECTION('',(-1.,0.,0.));
#348=DIRECTION('',(0.,0.,1.));
#349=DIRECTION('',(-1.,0.,0.));
#350=DIRECTION('',(0.,0.,1.));
#351=DIRECTION('',(-1.,0.,0.));
#352=DIRECTION('',(0.,-1.,0.));
#353=DIRECTION('',(-1.,0.,0.));
#354=DIRECTION('',(0.,1.,0.));
#355=DIRECTION('',(1.,2.90022391625372E-33,0.));
#356=DIRECTION('',(0.,0.,1.));
#357=DIRECTION('',(1.,0.,0.));
#358=DIRECTION('',(0.,0.,1.));
#359=DIRECTION('',(1.,0.,0.));
#360=DIRECTION('',(0.,0.,1.));
#361=DIRECTION('',(1.,0.,0.));
#362=DIRECTION('',(0.,0.,1.));
#363=DIRECTION('',(1.,0.,0.));
#364=DIRECTION('',(0.,0.,1.));
#365=DIRECTION('',(1.,0.,0.));
#366=DIRECTION('',(0.,0.,1.));
#367=DIRECTION('',(1.,0.,0.));
#368=DIRECTION('',(0.,0.,-1.));
#369=DIRECTION('',(-1.,0.,0.));
#370=DIRECTION('',(0.,0.,-1.));
#371=DIRECTION('',(-1.,0.,0.));
#372=DIRECTION('',(0.,0.,-1.));
#373=DIRECTION('',(-1.,0.,0.));
#374=DIRECTION('',(0.,0.,-1.));
#375=DIRECTION('',(-1.,0.,0.));
#376=DIRECTION('',(0.,-1.,0.));
#377=DIRECTION('',(1.,2.90022391625372E-33,0.));
#378=DIRECTION('',(0.,1.,0.));
#379=DIRECTION('',(-1.,0.,0.));
#380=DIRECTION('',(-1.,0.,0.));
#381=DIRECTION('',(0.,-1.,0.));
#382=DIRECTION('',(0.,0.,1.));
#383=DIRECTION('',(0.,0.,1.));
#384=DIRECTION('',(2.90022391625372E-33,-1.,0.));
#385=DIRECTION('',(1.,2.90022391625372E-33,0.));
#386=DIRECTION('',(0.,0.,1.));
#387=DIRECTION('',(1.,0.,0.));
#388=DIRECTION('',(0.,1.,0.));
#389=DIRECTION('',(0.,0.,1.));
#390=DIRECTION('',(0.,1.,0.));
#391=DIRECTION('',(-1.,0.,0.));
#392=DIRECTION('',(0.,0.,-1.));
#393=DIRECTION('',(-1.,0.,0.));
#394=DIRECTION('',(0.,0.,-1.));
#395=DIRECTION('',(-1.,0.,0.));
#396=DIRECTION('',(0.,0.,-1.));
#397=DIRECTION('',(-1.,0.,0.));
#398=DIRECTION('',(0.,0.,-1.));
#399=DIRECTION('',(-1.,0.,0.));
#400=DIRECTION('',(0.,0.,1.));
#401=DIRECTION('',(1.,0.,0.));
#402=DIRECTION('',(0.,0.,1.));
#403=DIRECTION('',(1.,0.,0.));
#404=DIRECTION('',(0.,0.,1.));
#405=DIRECTION('',(1.,0.,0.));
#406=DIRECTION('',(0.,0.,1.));
#407=DIRECTION('',(1.,0.,0.));
#408=DIRECTION('',(0.,0.,1.));
#409=DIRECTION('',(1.,0.,0.));
#410=CARTESIAN_POINT('',(0.,0.,0.));
#411=CARTESIAN_POINT('',(0.085,0.07,0.));
#412=CARTESIAN_POINT('',(0.117,0.089,0.));
#413=CARTESIAN_POINT('',(0.1185,0.089,0.));
#414=CARTESIAN_POINT('',(0.117,0.051,0.));
#415=CARTESIAN_POINT('',(0.1185,0.051,0.));
#416=CARTESIAN_POINT('',(0.053,0.051,0.));
#417=CARTESIAN_POINT('',(0.0545,0.051,0.));
#418=CARTESIAN_POINT('',(0.165,0.135,0.));
#419=CARTESIAN_POINT('',(0.1665,0.135,0.));
#420=CARTESIAN_POINT('',(0.053,0.089,0.));
#421=CARTESIAN_POINT('',(0.0545,0.089,0.));
#422=CARTESIAN_POINT('',(0.005,0.135,0.));
#423=CARTESIAN_POINT('',(0.0035,0.135,0.));
#424=CARTESIAN_POINT('',(0.005,0.005,0.));
#425=CARTESIAN_POINT('',(0.0035,0.005,0.));
#426=CARTESIAN_POINT('',(0.165,0.005,0.));
#427=CARTESIAN_POINT('',(0.1635,0.005,0.));
#428=CARTESIAN_POINT('',(0.085,0.07,0.));
#429=CARTESIAN_POINT('',(0.065,0.07,0.));
#430=CARTESIAN_POINT('',(0.,0.14,0.));
#431=CARTESIAN_POINT('',(0.,0.14,0.));
#432=CARTESIAN_POINT('',(0.,0.,0.));
#433=CARTESIAN_POINT('',(0.17,0.14,0.));
#434=CARTESIAN_POINT('',(0.17,0.14,0.));
#435=CARTESIAN_POINT('',(0.17,4.93038065763132E-34,0.));
#436=CARTESIAN_POINT('',(0.17,4.93038065763132E-34,0.));
#437=CARTESIAN_POINT('',(0.,0.,0.));
#438=CARTESIAN_POINT('',(0.085,0.07,0.003));
#439=CARTESIAN_POINT('',(0.117,0.089,0.003));
#440=CARTESIAN_POINT('',(0.1185,0.089,0.003));
#441=CARTESIAN_POINT('',(0.117,0.051,0.003));
#442=CARTESIAN_POINT('',(0.1185,0.051,0.003));
#443=CARTESIAN_POINT('',(0.053,0.051,0.003));
#444=CARTESIAN_POINT('',(0.0545,0.051,0.003));
#445=CARTESIAN_POINT('',(0.165,0.135,0.003));
#446=CARTESIAN_POINT('',(0.1665,0.135,0.003));
#447=CARTESIAN_POINT('',(0.053,0.089,0.003));
#448=CARTESIAN_POINT('',(0.0545,0.089,0.003));
#449=CARTESIAN_POINT('',(0.005,0.135,0.003));
#450=CARTESIAN_POINT('',(0.0035,0.135,0.003));
#451=CARTESIAN_POINT('',(0.005,0.005,0.003));
#452=CARTESIAN_POINT('',(0.0035,0.005,0.003));
#453=CARTESIAN_POINT('',(0.165,0.005,0.003));
#454=CARTESIAN_POINT('',(0.1635,0.005,0.003));
#455=CARTESIAN_POINT('',(0.085,0.07,0.003));
#456=CARTESIAN_POINT('',(0.065,0.07,0.003));
#457=CARTESIAN_POINT('',(0.,0.14,0.003));
#458=CARTESIAN_POINT('',(0.,0.14,0.003));
#459=CARTESIAN_POINT('',(0.,0.,0.003));
#460=CARTESIAN_POINT('',(0.,0.,0.003));
#461=CARTESIAN_POINT('',(0.17,0.,0.003));
#462=CARTESIAN_POINT('',(0.17,4.93038065763132E-34,0.003));
#463=CARTESIAN_POINT('',(0.17,0.14,0.003));
#464=CARTESIAN_POINT('',(0.17,0.14,0.003));
#465=CARTESIAN_POINT('',(0.,0.14,0.));
#466=CARTESIAN_POINT('',(0.,0.,0.));
#467=CARTESIAN_POINT('',(0.,0.14,0.));
#468=CARTESIAN_POINT('',(0.,0.,0.));
#469=CARTESIAN_POINT('',(0.17,4.93038065763132E-34,0.));
#470=CARTESIAN_POINT('',(0.17,4.93038065763132E-34,0.));
#471=CARTESIAN_POINT('',(0.17,0.14,0.));
#472=CARTESIAN_POINT('',(0.17,0.14,0.));
#473=CARTESIAN_POINT('',(0.005,0.135,0.003));
#474=CARTESIAN_POINT('',(0.005,0.005,0.003));
#475=CARTESIAN_POINT('',(0.165,0.005,0.003));
#476=CARTESIAN_POINT('',(0.085,0.07,0.003));
#477=CARTESIAN_POINT('',(0.053,0.089,0.));
#478=CARTESIAN_POINT('',(0.165,0.135,0.));
#479=CARTESIAN_POINT('',(0.053,0.051,0.));
#480=CARTESIAN_POINT('',(0.117,0.051,0.));
#481=CARTESIAN_POINT('',(0.117,0.089,0.));
#482=MECHANICAL_DESIGN_GEOMETRIC_PRESENTATION_REPRESENTATION('',(#285),
#483);
#483=(
GEOMETRIC_REPRESENTATION_CONTEXT(3)
GLOBAL_UNCERTAINTY_ASSIGNED_CONTEXT((#484))
GLOBAL_UNIT_ASSIGNED_CONTEXT((#487,#486,#485))
REPRESENTATION_CONTEXT('enclosure_top_pixelbot v9',
'TOP_LEVEL_ASSEMBLY_PART')
);
#484=UNCERTAINTY_MEASURE_WITH_UNIT(LENGTH_MEASURE(1.E-6),#487,
'DISTANCE_ACCURACY_VALUE','Maximum Tolerance applied to model');
#485=(
NAMED_UNIT(*)
SI_UNIT($,.STERADIAN.)
SOLID_ANGLE_UNIT()
);
#486=(
NAMED_UNIT(*)
PLANE_ANGLE_UNIT()
SI_UNIT($,.RADIAN.)
);
#487=(
LENGTH_UNIT()
NAMED_UNIT(*)
SI_UNIT($,.METRE.)
);
#488=PRODUCT_DEFINITION_SHAPE('','',#489);
#489=PRODUCT_DEFINITION('','',#491,#490);
#490=PRODUCT_DEFINITION_CONTEXT('',#497,'design');
#491=PRODUCT_DEFINITION_FORMATION_WITH_SPECIFIED_SOURCE('','',#493,
 .NOT_KNOWN.);
#492=PRODUCT_RELATED_PRODUCT_CATEGORY('','',(#493));
#493=PRODUCT('enclosure_top_pixelbot v9','enclosure_top_pixelbot v9',
'enclosure_top_pixelbot v9',(#495));
#494=PRODUCT_CATEGORY('','');
#495=PRODUCT_CONTEXT('',#497,'mechanical');
#496=APPLICATION_PROTOCOL_DEFINITION('international standard',
'ap242_managed_model_based_3d_engineering',2011,#497);
#497=APPLICATION_CONTEXT('managed model based 3d engineering');
ENDSEC;
END-ISO-10303-21;
