ISO-10303-21;
HEADER;
/* Generated by software containing ST-Developer
 * from STEP Tools, Inc. (www.steptools.com) 
 */
/* OPTION: using custom renumber hook */

FILE_DESCRIPTION(
/* description */ ('STEP AP242',
'CAx-IF Rec.Pracs.---Representation and Presentation of Product Manufa
cturing Information (PMI)---4.0---2014-10-13',
'CAx-IF Rec.Pracs.---3D Tessellated Geometry---0.4---2014-09-14','2;1'),

/* implementation_level */ '2;1');

FILE_NAME(
/* name */ '6891c1f42c87ce63323b2171',
/* time_stamp */ '2025-08-05T08:33:57Z',
/* author */ (''),
/* organization */ (''),
/* preprocessor_version */ 'ST-DEVELOPER v20',
/* originating_system */ 'ONSHAPE BY PTC INC, 1.201',
/* authorisation */ '  ');

FILE_SCHEMA (('AP242_MANAGED_MODEL_BASED_3D_ENGINEERING_MIM_LF { 1 0 10303 442 1 1 4 }'));
ENDSEC;

DATA;
#10=SHAPE_REPRESENTATION_RELATIONSHIP('','',#495,#11);
#11=ADVANCED_BREP_SHAPE_REPRESENTATION('',(#493),#809);
#12=CYLINDRICAL_SURFACE('',#514,0.025);
#13=CYLINDRICAL_SURFACE('',#520,0.022);
#14=CYLINDRICAL_SURFACE('',#521,0.025);
#15=CYLINDRICAL_SURFACE('',#529,0.041);
#16=CYLINDRICAL_SURFACE('',#530,0.0015);
#17=CYLINDRICAL_SURFACE('',#531,0.0015);
#18=CYLINDRICAL_SURFACE('',#532,0.0015);
#19=CYLINDRICAL_SURFACE('',#533,0.0015);
#20=CYLINDRICAL_SURFACE('',#534,0.0015);
#21=CYLINDRICAL_SURFACE('',#535,0.0015);
#22=CIRCLE('',#500,0.0015);
#23=CIRCLE('',#501,0.0015);
#24=CIRCLE('',#502,0.0015);
#25=CIRCLE('',#503,0.041);
#26=CIRCLE('',#504,0.022);
#27=CIRCLE('',#507,0.0015);
#28=CIRCLE('',#508,0.0015);
#29=CIRCLE('',#509,0.0015);
#30=CIRCLE('',#510,0.025);
#31=CIRCLE('',#512,0.025);
#32=CIRCLE('',#513,0.025);
#33=CIRCLE('',#516,0.0015);
#34=CIRCLE('',#517,0.0015);
#35=CIRCLE('',#518,0.0015);
#36=CIRCLE('',#519,0.022);
#37=CIRCLE('',#522,0.025);
#38=CIRCLE('',#525,0.0015);
#39=CIRCLE('',#526,0.0015);
#40=CIRCLE('',#527,0.0015);
#41=CIRCLE('',#528,0.041);
#42=ORIENTED_EDGE('',*,*,#166,.F.);
#43=ORIENTED_EDGE('',*,*,#167,.T.);
#44=ORIENTED_EDGE('',*,*,#168,.F.);
#45=ORIENTED_EDGE('',*,*,#169,.F.);
#46=ORIENTED_EDGE('',*,*,#170,.F.);
#47=ORIENTED_EDGE('',*,*,#171,.T.);
#48=ORIENTED_EDGE('',*,*,#172,.T.);
#49=ORIENTED_EDGE('',*,*,#173,.F.);
#50=ORIENTED_EDGE('',*,*,#174,.T.);
#51=ORIENTED_EDGE('',*,*,#175,.T.);
#52=ORIENTED_EDGE('',*,*,#176,.T.);
#53=ORIENTED_EDGE('',*,*,#177,.T.);
#54=ORIENTED_EDGE('',*,*,#178,.T.);
#55=ORIENTED_EDGE('',*,*,#179,.T.);
#56=ORIENTED_EDGE('',*,*,#180,.T.);
#57=ORIENTED_EDGE('',*,*,#168,.T.);
#58=ORIENTED_EDGE('',*,*,#181,.F.);
#59=ORIENTED_EDGE('',*,*,#182,.T.);
#60=ORIENTED_EDGE('',*,*,#183,.T.);
#61=ORIENTED_EDGE('',*,*,#184,.T.);
#62=ORIENTED_EDGE('',*,*,#185,.T.);
#63=ORIENTED_EDGE('',*,*,#186,.F.);
#64=ORIENTED_EDGE('',*,*,#187,.F.);
#65=ORIENTED_EDGE('',*,*,#188,.T.);
#66=ORIENTED_EDGE('',*,*,#189,.T.);
#67=ORIENTED_EDGE('',*,*,#190,.T.);
#68=ORIENTED_EDGE('',*,*,#191,.T.);
#69=ORIENTED_EDGE('',*,*,#192,.T.);
#70=ORIENTED_EDGE('',*,*,#193,.T.);
#71=ORIENTED_EDGE('',*,*,#184,.F.);
#72=ORIENTED_EDGE('',*,*,#194,.T.);
#73=ORIENTED_EDGE('',*,*,#186,.T.);
#74=ORIENTED_EDGE('',*,*,#195,.T.);
#75=ORIENTED_EDGE('',*,*,#196,.T.);
#76=ORIENTED_EDGE('',*,*,#193,.F.);
#77=ORIENTED_EDGE('',*,*,#197,.T.);
#78=ORIENTED_EDGE('',*,*,#195,.F.);
#79=ORIENTED_EDGE('',*,*,#185,.F.);
#80=ORIENTED_EDGE('',*,*,#198,.T.);
#81=ORIENTED_EDGE('',*,*,#199,.T.);
#82=ORIENTED_EDGE('',*,*,#200,.T.);
#83=ORIENTED_EDGE('',*,*,#201,.T.);
#84=ORIENTED_EDGE('',*,*,#202,.F.);
#85=ORIENTED_EDGE('',*,*,#203,.F.);
#86=ORIENTED_EDGE('',*,*,#172,.F.);
#87=ORIENTED_EDGE('',*,*,#181,.T.);
#88=ORIENTED_EDGE('',*,*,#167,.F.);
#89=ORIENTED_EDGE('',*,*,#204,.F.);
#90=ORIENTED_EDGE('',*,*,#205,.F.);
#91=ORIENTED_EDGE('',*,*,#201,.F.);
#92=ORIENTED_EDGE('',*,*,#171,.F.);
#93=ORIENTED_EDGE('',*,*,#206,.F.);
#94=ORIENTED_EDGE('',*,*,#207,.F.);
#95=ORIENTED_EDGE('',*,*,#208,.T.);
#96=ORIENTED_EDGE('',*,*,#187,.T.);
#97=ORIENTED_EDGE('',*,*,#194,.F.);
#98=ORIENTED_EDGE('',*,*,#209,.T.);
#99=ORIENTED_EDGE('',*,*,#210,.T.);
#100=ORIENTED_EDGE('',*,*,#209,.F.);
#101=ORIENTED_EDGE('',*,*,#196,.F.);
#102=ORIENTED_EDGE('',*,*,#197,.F.);
#103=ORIENTED_EDGE('',*,*,#192,.F.);
#104=ORIENTED_EDGE('',*,*,#211,.T.);
#105=ORIENTED_EDGE('',*,*,#212,.T.);
#106=ORIENTED_EDGE('',*,*,#213,.T.);
#107=ORIENTED_EDGE('',*,*,#214,.T.);
#108=ORIENTED_EDGE('',*,*,#215,.T.);
#109=ORIENTED_EDGE('',*,*,#182,.F.);
#110=ORIENTED_EDGE('',*,*,#208,.F.);
#111=ORIENTED_EDGE('',*,*,#210,.F.);
#112=ORIENTED_EDGE('',*,*,#216,.T.);
#113=ORIENTED_EDGE('',*,*,#217,.T.);
#114=ORIENTED_EDGE('',*,*,#179,.F.);
#115=ORIENTED_EDGE('',*,*,#218,.T.);
#116=ORIENTED_EDGE('',*,*,#217,.F.);
#117=ORIENTED_EDGE('',*,*,#219,.F.);
#118=ORIENTED_EDGE('',*,*,#174,.F.);
#119=ORIENTED_EDGE('',*,*,#214,.F.);
#120=ORIENTED_EDGE('',*,*,#175,.F.);
#121=ORIENTED_EDGE('',*,*,#213,.F.);
#122=ORIENTED_EDGE('',*,*,#176,.F.);
#123=ORIENTED_EDGE('',*,*,#212,.F.);
#124=ORIENTED_EDGE('',*,*,#198,.F.);
#125=ORIENTED_EDGE('',*,*,#188,.F.);
#126=ORIENTED_EDGE('',*,*,#199,.F.);
#127=ORIENTED_EDGE('',*,*,#189,.F.);
#128=ORIENTED_EDGE('',*,*,#200,.F.);
#129=ORIENTED_EDGE('',*,*,#190,.F.);
#130=ORIENTED_EDGE('',*,*,#220,.T.);
#131=ORIENTED_EDGE('',*,*,#173,.T.);
#132=ORIENTED_EDGE('',*,*,#203,.T.);
#133=ORIENTED_EDGE('',*,*,#221,.T.);
#134=ORIENTED_EDGE('',*,*,#222,.T.);
#135=ORIENTED_EDGE('',*,*,#223,.F.);
#136=ORIENTED_EDGE('',*,*,#169,.T.);
#137=ORIENTED_EDGE('',*,*,#180,.F.);
#138=ORIENTED_EDGE('',*,*,#219,.T.);
#139=ORIENTED_EDGE('',*,*,#216,.F.);
#140=ORIENTED_EDGE('',*,*,#211,.F.);
#141=ORIENTED_EDGE('',*,*,#191,.F.);
#142=ORIENTED_EDGE('',*,*,#183,.F.);
#143=ORIENTED_EDGE('',*,*,#215,.F.);
#144=ORIENTED_EDGE('',*,*,#218,.F.);
#145=ORIENTED_EDGE('',*,*,#178,.F.);
#146=ORIENTED_EDGE('',*,*,#205,.T.);
#147=ORIENTED_EDGE('',*,*,#224,.T.);
#148=ORIENTED_EDGE('',*,*,#221,.F.);
#149=ORIENTED_EDGE('',*,*,#202,.T.);
#150=ORIENTED_EDGE('',*,*,#207,.T.);
#151=ORIENTED_EDGE('',*,*,#225,.T.);
#152=ORIENTED_EDGE('',*,*,#222,.F.);
#153=ORIENTED_EDGE('',*,*,#177,.F.);
#154=ORIENTED_EDGE('',*,*,#223,.T.);
#155=ORIENTED_EDGE('',*,*,#225,.F.);
#156=ORIENTED_EDGE('',*,*,#226,.F.);
#157=ORIENTED_EDGE('',*,*,#166,.T.);
#158=ORIENTED_EDGE('',*,*,#220,.F.);
#159=ORIENTED_EDGE('',*,*,#224,.F.);
#160=ORIENTED_EDGE('',*,*,#227,.T.);
#161=ORIENTED_EDGE('',*,*,#170,.T.);
#162=ORIENTED_EDGE('',*,*,#226,.T.);
#163=ORIENTED_EDGE('',*,*,#206,.T.);
#164=ORIENTED_EDGE('',*,*,#227,.F.);
#165=ORIENTED_EDGE('',*,*,#204,.T.);
#166=EDGE_CURVE('',#228,#229,#272,.T.);
#167=EDGE_CURVE('',#228,#230,#273,.T.);
#168=EDGE_CURVE('',#231,#230,#274,.T.);
#169=EDGE_CURVE('',#229,#231,#275,.T.);
#170=EDGE_CURVE('',#232,#233,#276,.T.);
#171=EDGE_CURVE('',#232,#234,#277,.T.);
#172=EDGE_CURVE('',#234,#235,#278,.T.);
#173=EDGE_CURVE('',#233,#235,#279,.T.);
#174=EDGE_CURVE('',#236,#236,#22,.T.);
#175=EDGE_CURVE('',#237,#237,#23,.T.);
#176=EDGE_CURVE('',#238,#238,#24,.T.);
#177=EDGE_CURVE('',#239,#240,#280,.T.);
#178=EDGE_CURVE('',#240,#241,#281,.T.);
#179=EDGE_CURVE('',#241,#242,#25,.T.);
#180=EDGE_CURVE('',#242,#231,#282,.T.);
#181=EDGE_CURVE('',#239,#230,#26,.T.);
#182=EDGE_CURVE('',#243,#244,#283,.T.);
#183=EDGE_CURVE('',#244,#245,#284,.T.);
#184=EDGE_CURVE('',#245,#246,#285,.T.);
#185=EDGE_CURVE('',#246,#247,#286,.T.);
#186=EDGE_CURVE('',#248,#247,#287,.T.);
#187=EDGE_CURVE('',#243,#248,#288,.T.);
#188=EDGE_CURVE('',#249,#249,#27,.T.);
#189=EDGE_CURVE('',#250,#250,#28,.T.);
#190=EDGE_CURVE('',#251,#251,#29,.T.);
#191=EDGE_CURVE('',#245,#252,#289,.T.);
#192=EDGE_CURVE('',#252,#253,#290,.T.);
#193=EDGE_CURVE('',#253,#246,#30,.T.);
#194=EDGE_CURVE('',#254,#248,#31,.T.);
#195=EDGE_CURVE('',#247,#255,#32,.T.);
#196=EDGE_CURVE('',#255,#254,#291,.T.);
#197=EDGE_CURVE('',#253,#255,#292,.T.);
#198=EDGE_CURVE('',#256,#256,#33,.T.);
#199=EDGE_CURVE('',#257,#257,#34,.T.);
#200=EDGE_CURVE('',#258,#258,#35,.T.);
#201=EDGE_CURVE('',#234,#259,#36,.T.);
#202=EDGE_CURVE('',#260,#259,#293,.T.);
#203=EDGE_CURVE('',#235,#260,#294,.T.);
#204=EDGE_CURVE('',#261,#228,#295,.T.);
#205=EDGE_CURVE('',#259,#261,#296,.T.);
#206=EDGE_CURVE('',#262,#232,#297,.T.);
#207=EDGE_CURVE('',#239,#262,#298,.T.);
#208=EDGE_CURVE('',#263,#243,#37,.T.);
#209=EDGE_CURVE('',#254,#263,#299,.T.);
#210=EDGE_CURVE('',#264,#263,#300,.T.);
#211=EDGE_CURVE('',#252,#264,#301,.T.);
#212=EDGE_CURVE('',#265,#265,#38,.T.);
#213=EDGE_CURVE('',#266,#266,#39,.T.);
#214=EDGE_CURVE('',#267,#267,#40,.T.);
#215=EDGE_CURVE('',#268,#244,#302,.T.);
#216=EDGE_CURVE('',#264,#269,#303,.T.);
#217=EDGE_CURVE('',#269,#268,#41,.T.);
#218=EDGE_CURVE('',#241,#268,#304,.T.);
#219=EDGE_CURVE('',#242,#269,#305,.T.);
#220=EDGE_CURVE('',#270,#233,#306,.T.);
#221=EDGE_CURVE('',#260,#270,#307,.T.);
#222=EDGE_CURVE('',#240,#271,#308,.T.);
#223=EDGE_CURVE('',#229,#271,#309,.T.);
#224=EDGE_CURVE('',#261,#270,#310,.T.);
#225=EDGE_CURVE('',#262,#271,#311,.T.);
#226=EDGE_CURVE('',#228,#262,#312,.T.);
#227=EDGE_CURVE('',#261,#232,#313,.T.);
#228=VERTEX_POINT('',#679);
#229=VERTEX_POINT('',#680);
#230=VERTEX_POINT('',#682);
#231=VERTEX_POINT('',#684);
#232=VERTEX_POINT('',#688);
#233=VERTEX_POINT('',#689);
#234=VERTEX_POINT('',#691);
#235=VERTEX_POINT('',#693);
#236=VERTEX_POINT('',#697);
#237=VERTEX_POINT('',#699);
#238=VERTEX_POINT('',#701);
#239=VERTEX_POINT('',#703);
#240=VERTEX_POINT('',#704);
#241=VERTEX_POINT('',#706);
#242=VERTEX_POINT('',#708);
#243=VERTEX_POINT('',#713);
#244=VERTEX_POINT('',#714);
#245=VERTEX_POINT('',#716);
#246=VERTEX_POINT('',#718);
#247=VERTEX_POINT('',#720);
#248=VERTEX_POINT('',#722);
#249=VERTEX_POINT('',#726);
#250=VERTEX_POINT('',#728);
#251=VERTEX_POINT('',#730);
#252=VERTEX_POINT('',#732);
#253=VERTEX_POINT('',#734);
#254=VERTEX_POINT('',#738);
#255=VERTEX_POINT('',#740);
#256=VERTEX_POINT('',#746);
#257=VERTEX_POINT('',#748);
#258=VERTEX_POINT('',#750);
#259=VERTEX_POINT('',#752);
#260=VERTEX_POINT('',#754);
#261=VERTEX_POINT('',#758);
#262=VERTEX_POINT('',#761);
#263=VERTEX_POINT('',#765);
#264=VERTEX_POINT('',#769);
#265=VERTEX_POINT('',#773);
#266=VERTEX_POINT('',#775);
#267=VERTEX_POINT('',#777);
#268=VERTEX_POINT('',#779);
#269=VERTEX_POINT('',#781);
#270=VERTEX_POINT('',#794);
#271=VERTEX_POINT('',#797);
#272=LINE('',#678,#314);
#273=LINE('',#681,#315);
#274=LINE('',#683,#316);
#275=LINE('',#685,#317);
#276=LINE('',#687,#318);
#277=LINE('',#690,#319);
#278=LINE('',#692,#320);
#279=LINE('',#694,#321);
#280=LINE('',#702,#322);
#281=LINE('',#705,#323);
#282=LINE('',#709,#324);
#283=LINE('',#712,#325);
#284=LINE('',#715,#326);
#285=LINE('',#717,#327);
#286=LINE('',#719,#328);
#287=LINE('',#721,#329);
#288=LINE('',#723,#330);
#289=LINE('',#731,#331);
#290=LINE('',#733,#332);
#291=LINE('',#741,#333);
#292=LINE('',#743,#334);
#293=LINE('',#753,#335);
#294=LINE('',#755,#336);
#295=LINE('',#757,#337);
#296=LINE('',#759,#338);
#297=LINE('',#760,#339);
#298=LINE('',#762,#340);
#299=LINE('',#766,#341);
#300=LINE('',#768,#342);
#301=LINE('',#770,#343);
#302=LINE('',#778,#344);
#303=LINE('',#780,#345);
#304=LINE('',#784,#346);
#305=LINE('',#785,#347);
#306=LINE('',#793,#348);
#307=LINE('',#795,#349);
#308=LINE('',#796,#350);
#309=LINE('',#798,#351);
#310=LINE('',#800,#352);
#311=LINE('',#802,#353);
#312=LINE('',#804,#354);
#313=LINE('',#806,#355);
#314=VECTOR('',#546,1.);
#315=VECTOR('',#547,1.);
#316=VECTOR('',#548,1.);
#317=VECTOR('',#549,1.);
#318=VECTOR('',#552,1.);
#319=VECTOR('',#553,1.);
#320=VECTOR('',#554,1.);
#321=VECTOR('',#555,1.);
#322=VECTOR('',#564,1.);
#323=VECTOR('',#565,1.);
#324=VECTOR('',#568,1.);
#325=VECTOR('',#573,1.);
#326=VECTOR('',#574,1.);
#327=VECTOR('',#575,1.);
#328=VECTOR('',#576,1.);
#329=VECTOR('',#577,1.);
#330=VECTOR('',#578,1.);
#331=VECTOR('',#587,1.);
#332=VECTOR('',#588,1.);
#333=VECTOR('',#597,1.);
#334=VECTOR('',#600,1.);
#335=VECTOR('',#611,1.);
#336=VECTOR('',#612,1.);
#337=VECTOR('',#615,1.);
#338=VECTOR('',#616,1.);
#339=VECTOR('',#617,1.);
#340=VECTOR('',#618,1.);
#341=VECTOR('',#623,1.);
#342=VECTOR('',#626,1.);
#343=VECTOR('',#627,1.);
#344=VECTOR('',#636,1.);
#345=VECTOR('',#637,1.);
#346=VECTOR('',#642,1.);
#347=VECTOR('',#643,1.);
#348=VECTOR('',#658,1.);
#349=VECTOR('',#659,1.);
#350=VECTOR('',#660,1.);
#351=VECTOR('',#661,1.);
#352=VECTOR('',#664,1.);
#353=VECTOR('',#667,1.);
#354=VECTOR('',#670,1.);
#355=VECTOR('',#673,1.);
#356=EDGE_LOOP('',(#42,#43,#44,#45));
#357=EDGE_LOOP('',(#46,#47,#48,#49));
#358=EDGE_LOOP('',(#50));
#359=EDGE_LOOP('',(#51));
#360=EDGE_LOOP('',(#52));
#361=EDGE_LOOP('',(#53,#54,#55,#56,#57,#58));
#362=EDGE_LOOP('',(#59,#60,#61,#62,#63,#64));
#363=EDGE_LOOP('',(#65));
#364=EDGE_LOOP('',(#66));
#365=EDGE_LOOP('',(#67));
#366=EDGE_LOOP('',(#68,#69,#70,#71));
#367=EDGE_LOOP('',(#72,#73,#74,#75));
#368=EDGE_LOOP('',(#76,#77,#78,#79));
#369=EDGE_LOOP('',(#80));
#370=EDGE_LOOP('',(#81));
#371=EDGE_LOOP('',(#82));
#372=EDGE_LOOP('',(#83,#84,#85,#86));
#373=EDGE_LOOP('',(#87,#88,#89,#90,#91,#92,#93,#94));
#374=EDGE_LOOP('',(#95,#96,#97,#98));
#375=EDGE_LOOP('',(#99,#100,#101,#102,#103,#104));
#376=EDGE_LOOP('',(#105));
#377=EDGE_LOOP('',(#106));
#378=EDGE_LOOP('',(#107));
#379=EDGE_LOOP('',(#108,#109,#110,#111,#112,#113));
#380=EDGE_LOOP('',(#114,#115,#116,#117));
#381=EDGE_LOOP('',(#118));
#382=EDGE_LOOP('',(#119));
#383=EDGE_LOOP('',(#120));
#384=EDGE_LOOP('',(#121));
#385=EDGE_LOOP('',(#122));
#386=EDGE_LOOP('',(#123));
#387=EDGE_LOOP('',(#124));
#388=EDGE_LOOP('',(#125));
#389=EDGE_LOOP('',(#126));
#390=EDGE_LOOP('',(#127));
#391=EDGE_LOOP('',(#128));
#392=EDGE_LOOP('',(#129));
#393=EDGE_LOOP('',(#130,#131,#132,#133));
#394=EDGE_LOOP('',(#134,#135,#136,#137,#138,#139,#140,#141,#142,#143,#144,
#145));
#395=EDGE_LOOP('',(#146,#147,#148,#149));
#396=EDGE_LOOP('',(#150,#151,#152,#153));
#397=EDGE_LOOP('',(#154,#155,#156,#157));
#398=EDGE_LOOP('',(#158,#159,#160,#161));
#399=EDGE_LOOP('',(#162,#163,#164,#165));
#400=FACE_BOUND('',#356,.T.);
#401=FACE_BOUND('',#357,.T.);
#402=FACE_BOUND('',#358,.T.);
#403=FACE_BOUND('',#359,.T.);
#404=FACE_BOUND('',#360,.T.);
#405=FACE_BOUND('',#361,.T.);
#406=FACE_BOUND('',#362,.T.);
#407=FACE_BOUND('',#363,.T.);
#408=FACE_BOUND('',#364,.T.);
#409=FACE_BOUND('',#365,.T.);
#410=FACE_BOUND('',#366,.T.);
#411=FACE_BOUND('',#367,.T.);
#412=FACE_BOUND('',#368,.T.);
#413=FACE_BOUND('',#369,.T.);
#414=FACE_BOUND('',#370,.T.);
#415=FACE_BOUND('',#371,.T.);
#416=FACE_BOUND('',#372,.T.);
#417=FACE_BOUND('',#373,.T.);
#418=FACE_BOUND('',#374,.T.);
#419=FACE_BOUND('',#375,.T.);
#420=FACE_BOUND('',#376,.T.);
#421=FACE_BOUND('',#377,.T.);
#422=FACE_BOUND('',#378,.T.);
#423=FACE_BOUND('',#379,.T.);
#424=FACE_BOUND('',#380,.T.);
#425=FACE_BOUND('',#381,.T.);
#426=FACE_BOUND('',#382,.T.);
#427=FACE_BOUND('',#383,.T.);
#428=FACE_BOUND('',#384,.T.);
#429=FACE_BOUND('',#385,.T.);
#430=FACE_BOUND('',#386,.T.);
#431=FACE_BOUND('',#387,.T.);
#432=FACE_BOUND('',#388,.T.);
#433=FACE_BOUND('',#389,.T.);
#434=FACE_BOUND('',#390,.T.);
#435=FACE_BOUND('',#391,.T.);
#436=FACE_BOUND('',#392,.T.);
#437=FACE_BOUND('',#393,.T.);
#438=FACE_BOUND('',#394,.T.);
#439=FACE_BOUND('',#395,.T.);
#440=FACE_BOUND('',#396,.T.);
#441=FACE_BOUND('',#397,.T.);
#442=FACE_BOUND('',#398,.T.);
#443=FACE_BOUND('',#399,.T.);
#444=PLANE('',#497);
#445=PLANE('',#498);
#446=PLANE('',#499);
#447=PLANE('',#505);
#448=PLANE('',#506);
#449=PLANE('',#511);
#450=PLANE('',#515);
#451=PLANE('',#523);
#452=PLANE('',#524);
#453=PLANE('',#536);
#454=PLANE('',#537);
#455=PLANE('',#538);
#456=PLANE('',#539);
#457=PLANE('',#540);
#458=PLANE('',#541);
#459=ADVANCED_FACE('',(#400),#444,.F.);
#460=ADVANCED_FACE('',(#401),#445,.F.);
#461=ADVANCED_FACE('',(#402,#403,#404,#405),#446,.T.);
#462=ADVANCED_FACE('',(#406),#447,.T.);
#463=ADVANCED_FACE('',(#407,#408,#409,#410),#448,.T.);
#464=ADVANCED_FACE('',(#411),#449,.F.);
#465=ADVANCED_FACE('',(#412),#12,.T.);
#466=ADVANCED_FACE('',(#413,#414,#415,#416),#450,.F.);
#467=ADVANCED_FACE('',(#417),#13,.F.);
#468=ADVANCED_FACE('',(#418),#14,.T.);
#469=ADVANCED_FACE('',(#419),#451,.T.);
#470=ADVANCED_FACE('',(#420,#421,#422,#423),#452,.F.);
#471=ADVANCED_FACE('',(#424),#15,.T.);
#472=ADVANCED_FACE('',(#425,#426),#16,.F.);
#473=ADVANCED_FACE('',(#427,#428),#17,.F.);
#474=ADVANCED_FACE('',(#429,#430),#18,.F.);
#475=ADVANCED_FACE('',(#431,#432),#19,.F.);
#476=ADVANCED_FACE('',(#433,#434),#20,.F.);
#477=ADVANCED_FACE('',(#435,#436),#21,.F.);
#478=ADVANCED_FACE('',(#437,#438),#453,.F.);
#479=ADVANCED_FACE('',(#439),#454,.F.);
#480=ADVANCED_FACE('',(#440),#455,.F.);
#481=ADVANCED_FACE('',(#441),#456,.F.);
#482=ADVANCED_FACE('',(#442),#457,.T.);
#483=ADVANCED_FACE('',(#443),#458,.F.);
#484=CLOSED_SHELL('',(#459,#460,#461,#462,#463,#464,#465,#466,#467,#468,
#469,#470,#471,#472,#473,#474,#475,#476,#477,#478,#479,#480,#481,#482,#483));
#485=STYLED_ITEM('',(#486),#493);
#486=PRESENTATION_STYLE_ASSIGNMENT((#487));
#487=SURFACE_STYLE_USAGE(.BOTH.,#488);
#488=SURFACE_SIDE_STYLE('',(#489));
#489=SURFACE_STYLE_FILL_AREA(#490);
#490=FILL_AREA_STYLE('',(#491));
#491=FILL_AREA_STYLE_COLOUR('',#492);
#492=DRAUGHTING_PRE_DEFINED_COLOUR('white');
#493=MANIFOLD_SOLID_BREP('leg_pixelbot v19',#484);
#494=SHAPE_DEFINITION_REPRESENTATION(#814,#495);
#495=SHAPE_REPRESENTATION('leg_pixelbot v19',(#496),#809);
#496=AXIS2_PLACEMENT_3D('',#676,#542,#543);
#497=AXIS2_PLACEMENT_3D('',#677,#544,#545);
#498=AXIS2_PLACEMENT_3D('',#686,#550,#551);
#499=AXIS2_PLACEMENT_3D('',#695,#556,#557);
#500=AXIS2_PLACEMENT_3D('',#696,#558,#559);
#501=AXIS2_PLACEMENT_3D('',#698,#560,#561);
#502=AXIS2_PLACEMENT_3D('',#700,#562,#563);
#503=AXIS2_PLACEMENT_3D('',#707,#566,#567);
#504=AXIS2_PLACEMENT_3D('',#710,#569,#570);
#505=AXIS2_PLACEMENT_3D('',#711,#571,#572);
#506=AXIS2_PLACEMENT_3D('',#724,#579,#580);
#507=AXIS2_PLACEMENT_3D('',#725,#581,#582);
#508=AXIS2_PLACEMENT_3D('',#727,#583,#584);
#509=AXIS2_PLACEMENT_3D('',#729,#585,#586);
#510=AXIS2_PLACEMENT_3D('',#735,#589,#590);
#511=AXIS2_PLACEMENT_3D('',#736,#591,#592);
#512=AXIS2_PLACEMENT_3D('',#737,#593,#594);
#513=AXIS2_PLACEMENT_3D('',#739,#595,#596);
#514=AXIS2_PLACEMENT_3D('',#742,#598,#599);
#515=AXIS2_PLACEMENT_3D('',#744,#601,#602);
#516=AXIS2_PLACEMENT_3D('',#745,#603,#604);
#517=AXIS2_PLACEMENT_3D('',#747,#605,#606);
#518=AXIS2_PLACEMENT_3D('',#749,#607,#608);
#519=AXIS2_PLACEMENT_3D('',#751,#609,#610);
#520=AXIS2_PLACEMENT_3D('',#756,#613,#614);
#521=AXIS2_PLACEMENT_3D('',#763,#619,#620);
#522=AXIS2_PLACEMENT_3D('',#764,#621,#622);
#523=AXIS2_PLACEMENT_3D('',#767,#624,#625);
#524=AXIS2_PLACEMENT_3D('',#771,#628,#629);
#525=AXIS2_PLACEMENT_3D('',#772,#630,#631);
#526=AXIS2_PLACEMENT_3D('',#774,#632,#633);
#527=AXIS2_PLACEMENT_3D('',#776,#634,#635);
#528=AXIS2_PLACEMENT_3D('',#782,#638,#639);
#529=AXIS2_PLACEMENT_3D('',#783,#640,#641);
#530=AXIS2_PLACEMENT_3D('',#786,#644,#645);
#531=AXIS2_PLACEMENT_3D('',#787,#646,#647);
#532=AXIS2_PLACEMENT_3D('',#788,#648,#649);
#533=AXIS2_PLACEMENT_3D('',#789,#650,#651);
#534=AXIS2_PLACEMENT_3D('',#790,#652,#653);
#535=AXIS2_PLACEMENT_3D('',#791,#654,#655);
#536=AXIS2_PLACEMENT_3D('',#792,#656,#657);
#537=AXIS2_PLACEMENT_3D('',#799,#662,#663);
#538=AXIS2_PLACEMENT_3D('',#801,#665,#666);
#539=AXIS2_PLACEMENT_3D('',#803,#668,#669);
#540=AXIS2_PLACEMENT_3D('',#805,#671,#672);
#541=AXIS2_PLACEMENT_3D('',#807,#674,#675);
#542=DIRECTION('',(0.,0.,1.));
#543=DIRECTION('',(1.,0.,0.));
#544=DIRECTION('',(0.,1.,0.));
#545=DIRECTION('',(0.,0.,1.));
#546=DIRECTION('',(0.,0.,-1.));
#547=DIRECTION('',(-1.,1.84889274661175E-33,0.));
#548=DIRECTION('',(0.,0.,1.));
#549=DIRECTION('',(-1.,0.,0.));
#550=DIRECTION('',(0.,-1.,0.));
#551=DIRECTION('',(0.,0.,-1.));
#552=DIRECTION('',(0.,0.,-1.));
#553=DIRECTION('',(1.,-1.84889274661175E-33,0.));
#554=DIRECTION('',(0.,0.,-1.));
#555=DIRECTION('',(1.,0.,0.));
#556=DIRECTION('',(-1.,1.84889274661175E-33,0.));
#557=DIRECTION('',(-1.84889274661175E-33,-1.,0.));
#558=DIRECTION('',(1.,-1.84889274661175E-33,0.));
#559=DIRECTION('',(-1.84889274661175E-33,-1.,0.));
#560=DIRECTION('',(1.,-1.84889274661175E-33,0.));
#561=DIRECTION('',(-1.84889274661175E-33,-1.,0.));
#562=DIRECTION('',(1.,-1.84889274661175E-33,0.));
#563=DIRECTION('',(-1.84889274661175E-33,-1.,0.));
#564=DIRECTION('',(0.,0.,-1.));
#565=DIRECTION('',(-1.84889274661175E-33,-1.,0.));
#566=DIRECTION('',(-1.,1.84889274661175E-33,0.));
#567=DIRECTION('',(-1.84889274661175E-33,-1.,2.38955473004362E-17));
#568=DIRECTION('',(-1.84889274661175E-33,-1.,0.));
#569=DIRECTION('',(-1.,1.84889274661175E-33,0.));
#570=DIRECTION('',(-1.84889274661175E-33,-1.,1.51394048812521E-16));
#571=DIRECTION('',(1.02716263700653E-33,-1.,0.));
#572=DIRECTION('',(1.,1.02716263700653E-33,0.));
#573=DIRECTION('',(2.27893625898235E-65,2.3408381773461E-98,-1.));
#574=DIRECTION('',(1.,1.02716263700653E-33,0.));
#575=DIRECTION('',(0.,0.,1.));
#576=DIRECTION('',(-1.,0.,0.));
#577=DIRECTION('',(0.,-6.12323399573677E-17,1.));
#578=DIRECTION('',(1.,1.02716263700653E-33,0.));
#579=DIRECTION('',(1.,0.,0.));
#580=DIRECTION('',(0.,1.,0.));
#581=DIRECTION('',(-1.,0.,0.));
#582=DIRECTION('',(0.,1.,0.));
#583=DIRECTION('',(-1.,0.,0.));
#584=DIRECTION('',(0.,1.,0.));
#585=DIRECTION('',(-1.,0.,0.));
#586=DIRECTION('',(0.,1.,0.));
#587=DIRECTION('',(0.,1.,0.));
#588=DIRECTION('',(0.,0.,1.));
#589=DIRECTION('',(1.,0.,0.));
#590=DIRECTION('',(0.,1.,1.77635683940025E-16));
#591=DIRECTION('',(1.,0.,0.));
#592=DIRECTION('',(0.,1.,0.));
#593=DIRECTION('',(1.,0.,0.));
#594=DIRECTION('',(-1.84889274661175E-33,-1.,1.33226762955019E-16));
#595=DIRECTION('',(-1.,0.,0.));
#596=DIRECTION('',(0.,1.,1.77635683940025E-16));
#597=DIRECTION('',(0.,0.,-1.));
#598=DIRECTION('',(-1.,0.,0.));
#599=DIRECTION('',(0.,1.,1.77635683940025E-16));
#600=DIRECTION('',(-1.,0.,0.));
#601=DIRECTION('',(1.,0.,0.));
#602=DIRECTION('',(0.,1.,0.));
#603=DIRECTION('',(1.,0.,0.));
#604=DIRECTION('',(0.,1.,0.));
#605=DIRECTION('',(1.,0.,0.));
#606=DIRECTION('',(0.,1.,0.));
#607=DIRECTION('',(1.,0.,0.));
#608=DIRECTION('',(0.,1.,0.));
#609=DIRECTION('',(-1.,0.,0.));
#610=DIRECTION('',(-1.84889274661175E-33,-1.,1.51394048812521E-16));
#611=DIRECTION('',(0.,0.,1.));
#612=DIRECTION('',(0.,1.,0.));
#613=DIRECTION('',(1.,-1.84889274661175E-33,0.));
#614=DIRECTION('',(-1.84889274661175E-33,-1.,1.51394048812521E-16));
#615=DIRECTION('',(-1.,0.,0.));
#616=DIRECTION('',(-1.,1.84889274661175E-33,0.));
#617=DIRECTION('',(1.,0.,0.));
#618=DIRECTION('',(1.,-1.84889274661175E-33,0.));
#619=DIRECTION('',(1.,-1.84889274661175E-33,0.));
#620=DIRECTION('',(-1.84889274661175E-33,-1.,1.33226762955019E-16));
#621=DIRECTION('',(1.,-1.84889274661175E-33,2.27893625898235E-65));
#622=DIRECTION('',(-1.84889274661175E-33,-1.,1.33226762955019E-16));
#623=DIRECTION('',(-1.,0.,0.));
#624=DIRECTION('',(0.,1.,0.));
#625=DIRECTION('',(-1.,0.,0.));
#626=DIRECTION('',(-2.27893625898235E-65,0.,1.));
#627=DIRECTION('',(-1.,0.,0.));
#628=DIRECTION('',(-1.,1.84889274661175E-33,-2.27893625898235E-65));
#629=DIRECTION('',(-1.84889274661175E-33,-1.,0.));
#630=DIRECTION('',(-1.,1.84889274661175E-33,0.));
#631=DIRECTION('',(-1.84889274661175E-33,-1.,0.));
#632=DIRECTION('',(-1.,1.84889274661175E-33,0.));
#633=DIRECTION('',(-1.84889274661175E-33,-1.,0.));
#634=DIRECTION('',(-1.,1.84889274661175E-33,0.));
#635=DIRECTION('',(-1.84889274661175E-33,-1.,0.));
#636=DIRECTION('',(1.84889274661175E-33,1.,-6.12323399573677E-17));
#637=DIRECTION('',(1.84889274661175E-33,1.,-1.83697019872103E-16));
#638=DIRECTION('',(1.,-1.84889274661175E-33,0.));
#639=DIRECTION('',(-1.84889274661175E-33,-1.,2.38955473004362E-17));
#640=DIRECTION('',(1.,0.,0.));
#641=DIRECTION('',(0.,-1.,2.38955473004362E-17));
#642=DIRECTION('',(1.,0.,0.));
#643=DIRECTION('',(1.,0.,0.));
#644=DIRECTION('',(1.,0.,0.));
#645=DIRECTION('',(0.,-1.,0.));
#646=DIRECTION('',(1.,0.,0.));
#647=DIRECTION('',(0.,-1.,0.));
#648=DIRECTION('',(1.,0.,0.));
#649=DIRECTION('',(0.,-1.,0.));
#650=DIRECTION('',(-1.,0.,0.));
#651=DIRECTION('',(0.,1.,0.));
#652=DIRECTION('',(-1.,0.,0.));
#653=DIRECTION('',(0.,1.,0.));
#654=DIRECTION('',(-1.,0.,0.));
#655=DIRECTION('',(0.,1.,0.));
#656=DIRECTION('',(0.,0.,1.));
#657=DIRECTION('',(1.,0.,0.));
#658=DIRECTION('',(-3.15404268679866E-16,-1.,0.));
#659=DIRECTION('',(-1.,0.,0.));
#660=DIRECTION('',(1.,0.,0.));
#661=DIRECTION('',(-1.57702134339933E-16,-1.,0.));
#662=DIRECTION('',(0.,1.,0.));
#663=DIRECTION('',(0.,0.,1.));
#664=DIRECTION('',(0.,0.,-1.));
#665=DIRECTION('',(0.,-1.,0.));
#666=DIRECTION('',(0.,0.,-1.));
#667=DIRECTION('',(0.,0.,-1.));
#668=DIRECTION('',(1.,-1.57702134339933E-16,0.));
#669=DIRECTION('',(1.57702134339933E-16,1.,0.));
#670=DIRECTION('',(-1.57702134339933E-16,-1.,0.));
#671=DIRECTION('',(1.,-3.15404268679866E-16,0.));
#672=DIRECTION('',(3.15404268679866E-16,1.,0.));
#673=DIRECTION('',(-3.15404268679866E-16,-1.,0.));
#674=DIRECTION('',(0.,0.,-1.));
#675=DIRECTION('',(1.,0.,0.));
#676=CARTESIAN_POINT('',(0.,0.,0.));
#677=CARTESIAN_POINT('',(8.68979590907521E-35,0.047,0.));
#678=CARTESIAN_POINT('',(0.022,0.047,0.003));
#679=CARTESIAN_POINT('',(0.022,0.047,0.003));
#680=CARTESIAN_POINT('',(0.022,0.047,0.));
#681=CARTESIAN_POINT('',(4.06756404254584E-35,0.047,0.003));
#682=CARTESIAN_POINT('',(8.68979590907521E-35,0.047,0.003));
#683=CARTESIAN_POINT('',(8.68979590907521E-35,0.047,0.));
#684=CARTESIAN_POINT('',(8.68979590907521E-35,0.047,0.));
#685=CARTESIAN_POINT('',(0.03,0.047,0.));
#686=CARTESIAN_POINT('',(5.54667832248719E-36,0.00300000004470348,0.003));
#687=CARTESIAN_POINT('',(0.032,0.00300000004470348,0.003));
#688=CARTESIAN_POINT('',(0.032,0.00300000004470348,0.003));
#689=CARTESIAN_POINT('',(0.032,0.00300000004470348,0.));
#690=CARTESIAN_POINT('',(-4.06756404254584E-35,0.003,0.003));
#691=CARTESIAN_POINT('',(0.107,0.003,0.003));
#692=CARTESIAN_POINT('',(0.107,0.00300000004470348,0.003));
#693=CARTESIAN_POINT('',(0.107,0.00300000004470348,0.));
#694=CARTESIAN_POINT('',(0.03,0.00300000004470348,0.));
#695=CARTESIAN_POINT('',(9.24446373305873E-35,0.05,0.));
#696=CARTESIAN_POINT('',(-1.47911421932992E-35,-0.00800000011920929,0.00300000004470348));
#697=CARTESIAN_POINT('',(-1.75644813132168E-35,-0.00950000011920929,0.00300000004470348));
#698=CARTESIAN_POINT('',(4.62223186652937E-35,0.025,0.033));
#699=CARTESIAN_POINT('',(4.34489795453761E-35,0.0235,0.033));
#700=CARTESIAN_POINT('',(1.07235780901419E-34,0.0580000008642673,0.00300000004470348));
#701=CARTESIAN_POINT('',(1.04462441781501E-34,0.0565000008642673,0.00300000004470348));
#702=CARTESIAN_POINT('',(5.54667832248719E-36,0.00300000004470348,0.0015));
#703=CARTESIAN_POINT('',(5.54667823983524E-36,0.003,0.003));
#704=CARTESIAN_POINT('',(5.54667832248719E-36,0.00300000004470348,0.));
#705=CARTESIAN_POINT('',(9.24446373305873E-35,0.05,0.));
#706=CARTESIAN_POINT('',(-2.95822839457879E-35,-0.016,9.79717439317883E-19));
#707=CARTESIAN_POINT('',(4.62223186652937E-35,0.025,0.));
#708=CARTESIAN_POINT('',(1.22026921276375E-34,0.066,4.04133443718626E-18));
#709=CARTESIAN_POINT('',(9.24446373305873E-35,0.05,0.));
#710=CARTESIAN_POINT('',(4.62223186652937E-35,0.025,0.003));
#711=CARTESIAN_POINT('',(0.,0.,0.));
#712=CARTESIAN_POINT('',(0.005,0.,0.01025));
#713=CARTESIAN_POINT('',(0.005,0.,0.003));
#714=CARTESIAN_POINT('',(0.005,0.,0.));
#715=CARTESIAN_POINT('',(0.,0.,0.));
#716=CARTESIAN_POINT('',(0.12,1.23259516440783E-34,0.));
#717=CARTESIAN_POINT('',(0.12,1.23259516440783E-34,0.));
#718=CARTESIAN_POINT('',(0.12,-5.43852429378756E-34,0.033));
#719=CARTESIAN_POINT('',(0.12,-5.43852429378756E-34,0.033));
#720=CARTESIAN_POINT('',(0.107,0.,0.033));
#721=CARTESIAN_POINT('',(0.107,0.,0.003));
#722=CARTESIAN_POINT('',(0.107,0.,0.003));
#723=CARTESIAN_POINT('',(0.,0.,0.003));
#724=CARTESIAN_POINT('',(0.12,1.23259516440783E-34,0.));
#725=CARTESIAN_POINT('',(0.12,0.008,0.005));
#726=CARTESIAN_POINT('',(0.12,0.0095,0.005));
#727=CARTESIAN_POINT('',(0.12,0.042,0.005));
#728=CARTESIAN_POINT('',(0.12,0.0435,0.005));
#729=CARTESIAN_POINT('',(0.12,0.025,0.02));
#730=CARTESIAN_POINT('',(0.12,0.0265,0.02));
#731=CARTESIAN_POINT('',(0.12,1.23259516440783E-34,0.));
#732=CARTESIAN_POINT('',(0.12,0.05,0.));
#733=CARTESIAN_POINT('',(0.12,0.05,0.));
#734=CARTESIAN_POINT('',(0.12,0.05,0.033));
#735=CARTESIAN_POINT('',(0.12,0.025,0.033));
#736=CARTESIAN_POINT('',(0.107,0.025,0.0305));
#737=CARTESIAN_POINT('',(0.107,0.025,0.003));
#738=CARTESIAN_POINT('',(0.107,0.05,0.003));
#739=CARTESIAN_POINT('',(0.107,0.025,0.033));
#740=CARTESIAN_POINT('',(0.107,0.05,0.033));
#741=CARTESIAN_POINT('',(0.107,0.05,0.003));
#742=CARTESIAN_POINT('',(0.12,0.025,0.033));
#743=CARTESIAN_POINT('',(0.12,0.05,0.033));
#744=CARTESIAN_POINT('',(0.107,0.025,0.0305));
#745=CARTESIAN_POINT('',(0.107,0.008,0.005));
#746=CARTESIAN_POINT('',(0.107,0.0095,0.005));
#747=CARTESIAN_POINT('',(0.107,0.042,0.005));
#748=CARTESIAN_POINT('',(0.107,0.0435,0.005));
#749=CARTESIAN_POINT('',(0.107,0.025,0.02));
#750=CARTESIAN_POINT('',(0.107,0.0265,0.02));
#751=CARTESIAN_POINT('',(0.107,0.025,0.003));
#752=CARTESIAN_POINT('',(0.107,0.047,0.003));
#753=CARTESIAN_POINT('',(0.107,0.047,0.));
#754=CARTESIAN_POINT('',(0.107,0.047,0.));
#755=CARTESIAN_POINT('',(0.107,0.0250000000111759,0.));
#756=CARTESIAN_POINT('',(4.62223186652937E-35,0.025,0.003));
#757=CARTESIAN_POINT('',(0.03,0.047,0.003));
#758=CARTESIAN_POINT('',(0.032,0.047,0.003));
#759=CARTESIAN_POINT('',(4.06756404254584E-35,0.047,0.003));
#760=CARTESIAN_POINT('',(0.03,0.00300000004470348,0.003));
#761=CARTESIAN_POINT('',(0.022,0.00300000004470348,0.003));
#762=CARTESIAN_POINT('',(-4.06756404254584E-35,0.003,0.003));
#763=CARTESIAN_POINT('',(4.62223186652937E-35,0.025,0.003));
#764=CARTESIAN_POINT('',(0.005,0.025,0.003));
#765=CARTESIAN_POINT('',(0.005,0.05,0.003));
#766=CARTESIAN_POINT('',(0.12,0.05,0.003));
#767=CARTESIAN_POINT('',(0.12,0.05,0.));
#768=CARTESIAN_POINT('',(0.005,0.05,0.01025));
#769=CARTESIAN_POINT('',(0.005,0.05,0.));
#770=CARTESIAN_POINT('',(0.12,0.05,0.));
#771=CARTESIAN_POINT('',(0.005,0.025,0.0205));
#772=CARTESIAN_POINT('',(0.005,0.0580000008642673,0.00300000004470348));
#773=CARTESIAN_POINT('',(0.005,0.0565000008642673,0.00300000004470348));
#774=CARTESIAN_POINT('',(0.005,0.025,0.033));
#775=CARTESIAN_POINT('',(0.005,0.0235,0.033));
#776=CARTESIAN_POINT('',(0.005,-0.00800000011920929,0.00300000004470348));
#777=CARTESIAN_POINT('',(0.005,-0.00950000011920929,0.00300000004470348));
#778=CARTESIAN_POINT('',(0.005,0.,0.));
#779=CARTESIAN_POINT('',(0.005,-0.016,1.11022302462516E-18));
#780=CARTESIAN_POINT('',(0.005,0.05,0.));
#781=CARTESIAN_POINT('',(0.005,0.066,3.88578058618805E-18));
#782=CARTESIAN_POINT('',(0.005,0.025,0.));
#783=CARTESIAN_POINT('',(4.62223186652937E-35,0.025,0.));
#784=CARTESIAN_POINT('',(-2.95822839457879E-35,-0.016,9.79717439317883E-19));
#785=CARTESIAN_POINT('',(1.22026921276375E-34,0.066,4.04133443718626E-18));
#786=CARTESIAN_POINT('',(-1.47911421932992E-35,-0.00800000011920929,0.00300000004470348));
#787=CARTESIAN_POINT('',(4.62223186652937E-35,0.025,0.033));
#788=CARTESIAN_POINT('',(1.07235780901419E-34,0.0580000008642673,0.00300000004470348));
#789=CARTESIAN_POINT('',(0.12,0.008,0.005));
#790=CARTESIAN_POINT('',(0.12,0.042,0.005));
#791=CARTESIAN_POINT('',(0.12,0.025,0.02));
#792=CARTESIAN_POINT('',(0.06,0.025,0.));
#793=CARTESIAN_POINT('',(0.032,0.0250000000223518,0.));
#794=CARTESIAN_POINT('',(0.032,0.047,0.));
#795=CARTESIAN_POINT('',(0.03,0.047,0.));
#796=CARTESIAN_POINT('',(0.03,0.00300000004470348,0.));
#797=CARTESIAN_POINT('',(0.022,0.00300000004470348,0.));
#798=CARTESIAN_POINT('',(0.022,0.0250000000223518,0.));
#799=CARTESIAN_POINT('',(8.68979590907521E-35,0.047,0.));
#800=CARTESIAN_POINT('',(0.032,0.047,0.003));
#801=CARTESIAN_POINT('',(5.54667832248719E-36,0.00300000004470348,0.003));
#802=CARTESIAN_POINT('',(0.022,0.00300000004470348,0.003));
#803=CARTESIAN_POINT('',(0.022,0.0250000000223518,0.003));
#804=CARTESIAN_POINT('',(0.022,0.0250000000223518,0.003));
#805=CARTESIAN_POINT('',(0.032,0.0250000000223518,0.003));
#806=CARTESIAN_POINT('',(0.032,0.0250000000223518,0.003));
#807=CARTESIAN_POINT('',(0.06,0.025,0.003));
#808=MECHANICAL_DESIGN_GEOMETRIC_PRESENTATION_REPRESENTATION('',(#485),
#809);
#809=(
GEOMETRIC_REPRESENTATION_CONTEXT(3)
GLOBAL_UNCERTAINTY_ASSIGNED_CONTEXT((#810))
GLOBAL_UNIT_ASSIGNED_CONTEXT((#813,#812,#811))
REPRESENTATION_CONTEXT('leg_pixelbot v19','TOP_LEVEL_ASSEMBLY_PART')
);
#810=UNCERTAINTY_MEASURE_WITH_UNIT(LENGTH_MEASURE(1.E-6),#813,
'DISTANCE_ACCURACY_VALUE','Maximum Tolerance applied to model');
#811=(
NAMED_UNIT(*)
SI_UNIT($,.STERADIAN.)
SOLID_ANGLE_UNIT()
);
#812=(
NAMED_UNIT(*)
PLANE_ANGLE_UNIT()
SI_UNIT($,.RADIAN.)
);
#813=(
LENGTH_UNIT()
NAMED_UNIT(*)
SI_UNIT($,.METRE.)
);
#814=PRODUCT_DEFINITION_SHAPE('','',#815);
#815=PRODUCT_DEFINITION('','',#817,#816);
#816=PRODUCT_DEFINITION_CONTEXT('',#823,'design');
#817=PRODUCT_DEFINITION_FORMATION_WITH_SPECIFIED_SOURCE('','',#819,
 .NOT_KNOWN.);
#818=PRODUCT_RELATED_PRODUCT_CATEGORY('','',(#819));
#819=PRODUCT('leg_pixelbot v19','leg_pixelbot v19','leg_pixelbot v19',(#821));
#820=PRODUCT_CATEGORY('','');
#821=PRODUCT_CONTEXT('',#823,'mechanical');
#822=APPLICATION_PROTOCOL_DEFINITION('international standard',
'ap242_managed_model_based_3d_engineering',2011,#823);
#823=APPLICATION_CONTEXT('managed model based 3d engineering');
ENDSEC;
END-ISO-10303-21;
