ISO-10303-21;
HEADER;
/* Generated by software containing ST-Developer
 * from STEP Tools, Inc. (www.steptools.com) 
 */
/* OPTION: using custom renumber hook */

FILE_DESCRIPTION(
/* description */ ('STEP AP242',
'CAx-IF Rec.Pracs.---Representation and Presentation of Product Manufa
cturing Information (PMI)---4.0---2014-10-13',
'CAx-IF Rec.Pracs.---3D Tessellated Geometry---0.4---2014-09-14','2;1'),

/* implementation_level */ '2;1');

FILE_NAME(
/* name */ '6891c17b792d2d6a8b55685c',
/* time_stamp */ '2025-08-05T08:31:55Z',
/* author */ (''),
/* organization */ (''),
/* preprocessor_version */ 'ST-DEVELOPER v20',
/* originating_system */ 'ONSHAPE BY PTC INC, 1.201',
/* authorisation */ '  ');

FILE_SCHEMA (('AP242_MANAGED_MODEL_BASED_3D_ENGINEERING_MIM_LF { 1 0 10303 442 1 1 4 }'));
ENDSEC;

DATA;
#10=SHAPE_REPRESENTATION_RELATIONSHIP('','',#1447,#11);
#11=ADVANCED_BREP_SHAPE_REPRESENTATION('',(#1445),#2297);
#12=CYLINDRICAL_SURFACE('',#1506,0.02);
#13=CYLINDRICAL_SURFACE('',#1510,0.0015);
#14=CYLINDRICAL_SURFACE('',#1513,0.0015);
#15=CYLINDRICAL_SURFACE('',#1514,0.0015);
#16=CYLINDRICAL_SURFACE('',#1516,0.002);
#17=CYLINDRICAL_SURFACE('',#1518,0.002);
#18=CYLINDRICAL_SURFACE('',#1520,0.002);
#19=CYLINDRICAL_SURFACE('',#1522,0.002);
#20=LINE('',#1894,#198);
#21=LINE('',#1897,#199);
#22=LINE('',#1899,#200);
#23=LINE('',#1901,#201);
#24=LINE('',#1903,#202);
#25=LINE('',#1905,#203);
#26=LINE('',#1909,#204);
#27=LINE('',#1912,#205);
#28=LINE('',#1914,#206);
#29=LINE('',#1916,#207);
#30=LINE('',#1918,#208);
#31=LINE('',#1921,#209);
#32=LINE('',#1923,#210);
#33=LINE('',#1925,#211);
#34=LINE('',#1927,#212);
#35=LINE('',#1930,#213);
#36=LINE('',#1931,#214);
#37=LINE('',#1933,#215);
#38=LINE('',#1936,#216);
#39=LINE('',#1937,#217);
#40=LINE('',#1939,#218);
#41=LINE('',#1942,#219);
#42=LINE('',#1944,#220);
#43=LINE('',#1946,#221);
#44=LINE('',#1948,#222);
#45=LINE('',#1950,#223);
#46=LINE('',#1952,#224);
#47=LINE('',#1953,#225);
#48=LINE('',#1955,#226);
#49=LINE('',#1957,#227);
#50=LINE('',#1958,#228);
#51=LINE('',#1961,#229);
#52=LINE('',#1963,#230);
#53=LINE('',#1965,#231);
#54=LINE('',#1967,#232);
#55=LINE('',#1969,#233);
#56=LINE('',#1971,#234);
#57=LINE('',#1973,#235);
#58=LINE('',#1974,#236);
#59=LINE('',#1977,#237);
#60=LINE('',#1979,#238);
#61=LINE('',#1981,#239);
#62=LINE('',#1982,#240);
#63=LINE('',#1985,#241);
#64=LINE('',#1987,#242);
#65=LINE('',#1988,#243);
#66=LINE('',#1990,#244);
#67=LINE('',#1991,#245);
#68=LINE('',#1994,#246);
#69=LINE('',#1996,#247);
#70=LINE('',#1997,#248);
#71=LINE('',#1999,#249);
#72=LINE('',#2001,#250);
#73=LINE('',#2004,#251);
#74=LINE('',#2005,#252);
#75=LINE('',#2007,#253);
#76=LINE('',#2008,#254);
#77=LINE('',#2010,#255);
#78=LINE('',#2012,#256);
#79=LINE('',#2014,#257);
#80=LINE('',#2018,#258);
#81=LINE('',#2020,#259);
#82=LINE('',#2022,#260);
#83=LINE('',#2025,#261);
#84=LINE('',#2027,#262);
#85=LINE('',#2029,#263);
#86=LINE('',#2031,#264);
#87=LINE('',#2033,#265);
#88=LINE('',#2035,#266);
#89=LINE('',#2038,#267);
#90=LINE('',#2040,#268);
#91=LINE('',#2042,#269);
#92=LINE('',#2044,#270);
#93=LINE('',#2046,#271);
#94=LINE('',#2048,#272);
#95=LINE('',#2050,#273);
#96=LINE('',#2052,#274);
#97=LINE('',#2054,#275);
#98=LINE('',#2056,#276);
#99=LINE('',#2059,#277);
#100=LINE('',#2061,#278);
#101=LINE('',#2063,#279);
#102=LINE('',#2065,#280);
#103=LINE('',#2067,#281);
#104=LINE('',#2069,#282);
#105=LINE('',#2071,#283);
#106=LINE('',#2073,#284);
#107=LINE('',#2075,#285);
#108=LINE('',#2077,#286);
#109=LINE('',#2080,#287);
#110=LINE('',#2082,#288);
#111=LINE('',#2083,#289);
#112=LINE('',#2085,#290);
#113=LINE('',#2086,#291);
#114=LINE('',#2088,#292);
#115=LINE('',#2089,#293);
#116=LINE('',#2091,#294);
#117=LINE('',#2094,#295);
#118=LINE('',#2096,#296);
#119=LINE('',#2098,#297);
#120=LINE('',#2100,#298);
#121=LINE('',#2102,#299);
#122=LINE('',#2103,#300);
#123=LINE('',#2105,#301);
#124=LINE('',#2107,#302);
#125=LINE('',#2108,#303);
#126=LINE('',#2110,#304);
#127=LINE('',#2112,#305);
#128=LINE('',#2114,#306);
#129=LINE('',#2116,#307);
#130=LINE('',#2118,#308);
#131=LINE('',#2120,#309);
#132=LINE('',#2122,#310);
#133=LINE('',#2124,#311);
#134=LINE('',#2126,#312);
#135=LINE('',#2128,#313);
#136=LINE('',#2130,#314);
#137=LINE('',#2132,#315);
#138=LINE('',#2134,#316);
#139=LINE('',#2136,#317);
#140=LINE('',#2140,#318);
#141=LINE('',#2141,#319);
#142=LINE('',#2143,#320);
#143=LINE('',#2145,#321);
#144=LINE('',#2147,#322);
#145=LINE('',#2149,#323);
#146=LINE('',#2152,#324);
#147=LINE('',#2154,#325);
#148=LINE('',#2157,#326);
#149=LINE('',#2159,#327);
#150=LINE('',#2161,#328);
#151=LINE('',#2163,#329);
#152=LINE('',#2165,#330);
#153=LINE('',#2167,#331);
#154=LINE('',#2169,#332);
#155=LINE('',#2171,#333);
#156=LINE('',#2173,#334);
#157=LINE('',#2175,#335);
#158=LINE('',#2177,#336);
#159=LINE('',#2179,#337);
#160=LINE('',#2181,#338);
#161=LINE('',#2183,#339);
#162=LINE('',#2184,#340);
#163=LINE('',#2186,#341);
#164=LINE('',#2190,#342);
#165=LINE('',#2192,#343);
#166=LINE('',#2194,#344);
#167=LINE('',#2196,#345);
#168=LINE('',#2198,#346);
#169=LINE('',#2200,#347);
#170=LINE('',#2202,#348);
#171=LINE('',#2204,#349);
#172=LINE('',#2206,#350);
#173=LINE('',#2208,#351);
#174=LINE('',#2210,#352);
#175=LINE('',#2212,#353);
#176=LINE('',#2214,#354);
#177=LINE('',#2218,#355);
#178=LINE('',#2220,#356);
#179=LINE('',#2222,#357);
#180=LINE('',#2224,#358);
#181=LINE('',#2226,#359);
#182=LINE('',#2228,#360);
#183=LINE('',#2230,#361);
#184=LINE('',#2232,#362);
#185=LINE('',#2234,#363);
#186=LINE('',#2236,#364);
#187=LINE('',#2240,#365);
#188=LINE('',#2242,#366);
#189=LINE('',#2244,#367);
#190=LINE('',#2251,#368);
#191=LINE('',#2254,#369);
#192=LINE('',#2256,#370);
#193=LINE('',#2258,#371);
#194=LINE('',#2260,#372);
#195=LINE('',#2262,#373);
#196=LINE('',#2289,#374);
#197=LINE('',#2291,#375);
#198=VECTOR('',#1542,1.);
#199=VECTOR('',#1543,1.);
#200=VECTOR('',#1544,1.);
#201=VECTOR('',#1545,1.);
#202=VECTOR('',#1546,1.);
#203=VECTOR('',#1547,1.);
#204=VECTOR('',#1552,1.);
#205=VECTOR('',#1553,1.);
#206=VECTOR('',#1554,1.);
#207=VECTOR('',#1555,1.);
#208=VECTOR('',#1558,1.);
#209=VECTOR('',#1559,1.);
#210=VECTOR('',#1560,1.);
#211=VECTOR('',#1561,1.);
#212=VECTOR('',#1564,1.);
#213=VECTOR('',#1565,1.);
#214=VECTOR('',#1566,1.);
#215=VECTOR('',#1569,1.);
#216=VECTOR('',#1570,1.);
#217=VECTOR('',#1571,1.);
#218=VECTOR('',#1574,1.);
#219=VECTOR('',#1575,1.);
#220=VECTOR('',#1576,1.);
#221=VECTOR('',#1577,1.);
#222=VECTOR('',#1580,1.);
#223=VECTOR('',#1581,1.);
#224=VECTOR('',#1582,1.);
#225=VECTOR('',#1583,1.);
#226=VECTOR('',#1584,1.);
#227=VECTOR('',#1585,1.);
#228=VECTOR('',#1586,1.);
#229=VECTOR('',#1587,1.);
#230=VECTOR('',#1588,1.);
#231=VECTOR('',#1589,1.);
#232=VECTOR('',#1590,1.);
#233=VECTOR('',#1591,1.);
#234=VECTOR('',#1592,1.);
#235=VECTOR('',#1593,1.);
#236=VECTOR('',#1594,1.);
#237=VECTOR('',#1595,1.);
#238=VECTOR('',#1596,1.);
#239=VECTOR('',#1597,1.);
#240=VECTOR('',#1598,1.);
#241=VECTOR('',#1599,1.);
#242=VECTOR('',#1600,1.);
#243=VECTOR('',#1601,1.);
#244=VECTOR('',#1602,1.);
#245=VECTOR('',#1603,1.);
#246=VECTOR('',#1604,1.);
#247=VECTOR('',#1605,1.);
#248=VECTOR('',#1606,1.);
#249=VECTOR('',#1607,1.);
#250=VECTOR('',#1610,1.);
#251=VECTOR('',#1611,1.);
#252=VECTOR('',#1612,1.);
#253=VECTOR('',#1615,1.);
#254=VECTOR('',#1616,1.);
#255=VECTOR('',#1619,1.);
#256=VECTOR('',#1620,1.);
#257=VECTOR('',#1621,1.);
#258=VECTOR('',#1626,1.);
#259=VECTOR('',#1629,1.);
#260=VECTOR('',#1632,1.);
#261=VECTOR('',#1633,1.);
#262=VECTOR('',#1634,1.);
#263=VECTOR('',#1635,1.);
#264=VECTOR('',#1636,1.);
#265=VECTOR('',#1637,1.);
#266=VECTOR('',#1640,1.);
#267=VECTOR('',#1641,1.);
#268=VECTOR('',#1642,1.);
#269=VECTOR('',#1643,1.);
#270=VECTOR('',#1644,1.);
#271=VECTOR('',#1645,1.);
#272=VECTOR('',#1646,1.);
#273=VECTOR('',#1647,1.);
#274=VECTOR('',#1648,1.);
#275=VECTOR('',#1649,1.);
#276=VECTOR('',#1652,1.);
#277=VECTOR('',#1653,1.);
#278=VECTOR('',#1654,1.);
#279=VECTOR('',#1655,1.);
#280=VECTOR('',#1656,1.);
#281=VECTOR('',#1657,1.);
#282=VECTOR('',#1660,1.);
#283=VECTOR('',#1661,1.);
#284=VECTOR('',#1662,1.);
#285=VECTOR('',#1663,1.);
#286=VECTOR('',#1666,1.);
#287=VECTOR('',#1667,1.);
#288=VECTOR('',#1668,1.);
#289=VECTOR('',#1669,1.);
#290=VECTOR('',#1672,1.);
#291=VECTOR('',#1673,1.);
#292=VECTOR('',#1676,1.);
#293=VECTOR('',#1677,1.);
#294=VECTOR('',#1680,1.);
#295=VECTOR('',#1681,1.);
#296=VECTOR('',#1682,1.);
#297=VECTOR('',#1683,1.);
#298=VECTOR('',#1684,1.);
#299=VECTOR('',#1685,1.);
#300=VECTOR('',#1686,1.);
#301=VECTOR('',#1687,1.);
#302=VECTOR('',#1688,1.);
#303=VECTOR('',#1689,1.);
#304=VECTOR('',#1690,1.);
#305=VECTOR('',#1691,1.);
#306=VECTOR('',#1692,1.);
#307=VECTOR('',#1693,1.);
#308=VECTOR('',#1694,1.);
#309=VECTOR('',#1695,1.);
#310=VECTOR('',#1696,1.);
#311=VECTOR('',#1697,1.);
#312=VECTOR('',#1698,1.);
#313=VECTOR('',#1699,1.);
#314=VECTOR('',#1700,1.);
#315=VECTOR('',#1701,1.);
#316=VECTOR('',#1702,1.);
#317=VECTOR('',#1703,1.);
#318=VECTOR('',#1708,1.);
#319=VECTOR('',#1709,1.);
#320=VECTOR('',#1712,1.);
#321=VECTOR('',#1715,1.);
#322=VECTOR('',#1718,1.);
#323=VECTOR('',#1721,1.);
#324=VECTOR('',#1726,1.);
#325=VECTOR('',#1729,1.);
#326=VECTOR('',#1734,1.);
#327=VECTOR('',#1735,1.);
#328=VECTOR('',#1736,1.);
#329=VECTOR('',#1737,1.);
#330=VECTOR('',#1738,1.);
#331=VECTOR('',#1741,1.);
#332=VECTOR('',#1742,1.);
#333=VECTOR('',#1743,1.);
#334=VECTOR('',#1746,1.);
#335=VECTOR('',#1747,1.);
#336=VECTOR('',#1748,1.);
#337=VECTOR('',#1751,1.);
#338=VECTOR('',#1754,1.);
#339=VECTOR('',#1755,1.);
#340=VECTOR('',#1756,1.);
#341=VECTOR('',#1757,1.);
#342=VECTOR('',#1762,1.);
#343=VECTOR('',#1765,1.);
#344=VECTOR('',#1768,1.);
#345=VECTOR('',#1771,1.);
#346=VECTOR('',#1774,1.);
#347=VECTOR('',#1775,1.);
#348=VECTOR('',#1776,1.);
#349=VECTOR('',#1779,1.);
#350=VECTOR('',#1780,1.);
#351=VECTOR('',#1781,1.);
#352=VECTOR('',#1784,1.);
#353=VECTOR('',#1785,1.);
#354=VECTOR('',#1786,1.);
#355=VECTOR('',#1791,1.);
#356=VECTOR('',#1792,1.);
#357=VECTOR('',#1793,1.);
#358=VECTOR('',#1796,1.);
#359=VECTOR('',#1797,1.);
#360=VECTOR('',#1798,1.);
#361=VECTOR('',#1801,1.);
#362=VECTOR('',#1802,1.);
#363=VECTOR('',#1803,1.);
#364=VECTOR('',#1804,1.);
#365=VECTOR('',#1809,1.);
#366=VECTOR('',#1810,1.);
#367=VECTOR('',#1813,1.);
#368=VECTOR('',#1822,1.);
#369=VECTOR('',#1827,1.);
#370=VECTOR('',#1828,1.);
#371=VECTOR('',#1831,1.);
#372=VECTOR('',#1832,1.);
#373=VECTOR('',#1835,1.);
#374=VECTOR('',#1878,1.);
#375=VECTOR('',#1881,1.);
#376=ORIENTED_EDGE('',*,*,#764,.F.);
#377=ORIENTED_EDGE('',*,*,#765,.T.);
#378=ORIENTED_EDGE('',*,*,#766,.T.);
#379=ORIENTED_EDGE('',*,*,#767,.F.);
#380=ORIENTED_EDGE('',*,*,#768,.T.);
#381=ORIENTED_EDGE('',*,*,#769,.T.);
#382=ORIENTED_EDGE('',*,*,#770,.T.);
#383=ORIENTED_EDGE('',*,*,#771,.F.);
#384=ORIENTED_EDGE('',*,*,#772,.F.);
#385=ORIENTED_EDGE('',*,*,#773,.T.);
#386=ORIENTED_EDGE('',*,*,#774,.T.);
#387=ORIENTED_EDGE('',*,*,#775,.T.);
#388=ORIENTED_EDGE('',*,*,#776,.F.);
#389=ORIENTED_EDGE('',*,*,#777,.T.);
#390=ORIENTED_EDGE('',*,*,#778,.F.);
#391=ORIENTED_EDGE('',*,*,#779,.F.);
#392=ORIENTED_EDGE('',*,*,#780,.F.);
#393=ORIENTED_EDGE('',*,*,#781,.T.);
#394=ORIENTED_EDGE('',*,*,#765,.F.);
#395=ORIENTED_EDGE('',*,*,#782,.F.);
#396=ORIENTED_EDGE('',*,*,#783,.F.);
#397=ORIENTED_EDGE('',*,*,#784,.T.);
#398=ORIENTED_EDGE('',*,*,#772,.T.);
#399=ORIENTED_EDGE('',*,*,#785,.T.);
#400=ORIENTED_EDGE('',*,*,#786,.F.);
#401=ORIENTED_EDGE('',*,*,#787,.T.);
#402=ORIENTED_EDGE('',*,*,#788,.T.);
#403=ORIENTED_EDGE('',*,*,#789,.T.);
#404=ORIENTED_EDGE('',*,*,#790,.T.);
#405=ORIENTED_EDGE('',*,*,#786,.T.);
#406=ORIENTED_EDGE('',*,*,#791,.T.);
#407=ORIENTED_EDGE('',*,*,#792,.T.);
#408=ORIENTED_EDGE('',*,*,#793,.F.);
#409=ORIENTED_EDGE('',*,*,#783,.T.);
#410=ORIENTED_EDGE('',*,*,#794,.T.);
#411=ORIENTED_EDGE('',*,*,#795,.T.);
#412=ORIENTED_EDGE('',*,*,#796,.T.);
#413=ORIENTED_EDGE('',*,*,#797,.T.);
#414=ORIENTED_EDGE('',*,*,#798,.T.);
#415=ORIENTED_EDGE('',*,*,#799,.T.);
#416=ORIENTED_EDGE('',*,*,#800,.T.);
#417=ORIENTED_EDGE('',*,*,#801,.T.);
#418=ORIENTED_EDGE('',*,*,#802,.T.);
#419=ORIENTED_EDGE('',*,*,#803,.T.);
#420=ORIENTED_EDGE('',*,*,#804,.T.);
#421=ORIENTED_EDGE('',*,*,#805,.T.);
#422=ORIENTED_EDGE('',*,*,#806,.T.);
#423=ORIENTED_EDGE('',*,*,#807,.T.);
#424=ORIENTED_EDGE('',*,*,#808,.T.);
#425=ORIENTED_EDGE('',*,*,#809,.T.);
#426=ORIENTED_EDGE('',*,*,#810,.T.);
#427=ORIENTED_EDGE('',*,*,#776,.T.);
#428=ORIENTED_EDGE('',*,*,#811,.T.);
#429=ORIENTED_EDGE('',*,*,#812,.F.);
#430=ORIENTED_EDGE('',*,*,#813,.T.);
#431=ORIENTED_EDGE('',*,*,#814,.T.);
#432=ORIENTED_EDGE('',*,*,#815,.F.);
#433=ORIENTED_EDGE('',*,*,#780,.T.);
#434=ORIENTED_EDGE('',*,*,#816,.T.);
#435=ORIENTED_EDGE('',*,*,#817,.F.);
#436=ORIENTED_EDGE('',*,*,#818,.F.);
#437=ORIENTED_EDGE('',*,*,#819,.T.);
#438=ORIENTED_EDGE('',*,*,#808,.F.);
#439=ORIENTED_EDGE('',*,*,#820,.T.);
#440=ORIENTED_EDGE('',*,*,#768,.F.);
#441=ORIENTED_EDGE('',*,*,#821,.T.);
#442=ORIENTED_EDGE('',*,*,#813,.F.);
#443=ORIENTED_EDGE('',*,*,#822,.T.);
#444=ORIENTED_EDGE('',*,*,#823,.F.);
#445=ORIENTED_EDGE('',*,*,#824,.T.);
#446=ORIENTED_EDGE('',*,*,#825,.T.);
#447=ORIENTED_EDGE('',*,*,#788,.F.);
#448=ORIENTED_EDGE('',*,*,#826,.F.);
#449=ORIENTED_EDGE('',*,*,#791,.F.);
#450=ORIENTED_EDGE('',*,*,#789,.F.);
#451=ORIENTED_EDGE('',*,*,#825,.F.);
#452=ORIENTED_EDGE('',*,*,#827,.F.);
#453=ORIENTED_EDGE('',*,*,#794,.F.);
#454=ORIENTED_EDGE('',*,*,#785,.F.);
#455=ORIENTED_EDGE('',*,*,#775,.F.);
#456=ORIENTED_EDGE('',*,*,#828,.F.);
#457=ORIENTED_EDGE('',*,*,#829,.T.);
#458=ORIENTED_EDGE('',*,*,#830,.F.);
#459=ORIENTED_EDGE('',*,*,#831,.T.);
#460=ORIENTED_EDGE('',*,*,#832,.F.);
#461=ORIENTED_EDGE('',*,*,#833,.F.);
#462=ORIENTED_EDGE('',*,*,#834,.T.);
#463=ORIENTED_EDGE('',*,*,#835,.F.);
#464=ORIENTED_EDGE('',*,*,#836,.F.);
#465=ORIENTED_EDGE('',*,*,#837,.T.);
#466=ORIENTED_EDGE('',*,*,#838,.F.);
#467=ORIENTED_EDGE('',*,*,#839,.T.);
#468=ORIENTED_EDGE('',*,*,#840,.F.);
#469=ORIENTED_EDGE('',*,*,#841,.F.);
#470=ORIENTED_EDGE('',*,*,#842,.T.);
#471=ORIENTED_EDGE('',*,*,#843,.T.);
#472=ORIENTED_EDGE('',*,*,#844,.F.);
#473=ORIENTED_EDGE('',*,*,#845,.T.);
#474=ORIENTED_EDGE('',*,*,#846,.F.);
#475=ORIENTED_EDGE('',*,*,#847,.F.);
#476=ORIENTED_EDGE('',*,*,#848,.T.);
#477=ORIENTED_EDGE('',*,*,#849,.T.);
#478=ORIENTED_EDGE('',*,*,#850,.F.);
#479=ORIENTED_EDGE('',*,*,#849,.F.);
#480=ORIENTED_EDGE('',*,*,#848,.F.);
#481=ORIENTED_EDGE('',*,*,#851,.F.);
#482=ORIENTED_EDGE('',*,*,#852,.T.);
#483=ORIENTED_EDGE('',*,*,#853,.F.);
#484=ORIENTED_EDGE('',*,*,#854,.F.);
#485=ORIENTED_EDGE('',*,*,#855,.F.);
#486=ORIENTED_EDGE('',*,*,#856,.F.);
#487=ORIENTED_EDGE('',*,*,#857,.F.);
#488=ORIENTED_EDGE('',*,*,#832,.T.);
#489=ORIENTED_EDGE('',*,*,#831,.F.);
#490=ORIENTED_EDGE('',*,*,#858,.F.);
#491=ORIENTED_EDGE('',*,*,#843,.F.);
#492=ORIENTED_EDGE('',*,*,#842,.F.);
#493=ORIENTED_EDGE('',*,*,#859,.F.);
#494=ORIENTED_EDGE('',*,*,#846,.T.);
#495=ORIENTED_EDGE('',*,*,#845,.F.);
#496=ORIENTED_EDGE('',*,*,#860,.F.);
#497=ORIENTED_EDGE('',*,*,#829,.F.);
#498=ORIENTED_EDGE('',*,*,#834,.F.);
#499=ORIENTED_EDGE('',*,*,#861,.F.);
#500=ORIENTED_EDGE('',*,*,#840,.T.);
#501=ORIENTED_EDGE('',*,*,#839,.F.);
#502=ORIENTED_EDGE('',*,*,#862,.F.);
#503=ORIENTED_EDGE('',*,*,#863,.T.);
#504=ORIENTED_EDGE('',*,*,#864,.T.);
#505=ORIENTED_EDGE('',*,*,#865,.T.);
#506=ORIENTED_EDGE('',*,*,#866,.T.);
#507=ORIENTED_EDGE('',*,*,#867,.T.);
#508=ORIENTED_EDGE('',*,*,#868,.T.);
#509=ORIENTED_EDGE('',*,*,#858,.T.);
#510=ORIENTED_EDGE('',*,*,#830,.T.);
#511=ORIENTED_EDGE('',*,*,#862,.T.);
#512=ORIENTED_EDGE('',*,*,#838,.T.);
#513=ORIENTED_EDGE('',*,*,#869,.T.);
#514=ORIENTED_EDGE('',*,*,#870,.F.);
#515=ORIENTED_EDGE('',*,*,#871,.F.);
#516=ORIENTED_EDGE('',*,*,#844,.T.);
#517=ORIENTED_EDGE('',*,*,#860,.T.);
#518=ORIENTED_EDGE('',*,*,#850,.T.);
#519=ORIENTED_EDGE('',*,*,#854,.T.);
#520=ORIENTED_EDGE('',*,*,#872,.T.);
#521=ORIENTED_EDGE('',*,*,#873,.T.);
#522=ORIENTED_EDGE('',*,*,#874,.T.);
#523=ORIENTED_EDGE('',*,*,#875,.T.);
#524=ORIENTED_EDGE('',*,*,#876,.T.);
#525=ORIENTED_EDGE('',*,*,#877,.T.);
#526=ORIENTED_EDGE('',*,*,#878,.T.);
#527=ORIENTED_EDGE('',*,*,#879,.T.);
#528=ORIENTED_EDGE('',*,*,#880,.T.);
#529=ORIENTED_EDGE('',*,*,#881,.T.);
#530=ORIENTED_EDGE('',*,*,#882,.T.);
#531=ORIENTED_EDGE('',*,*,#883,.T.);
#532=ORIENTED_EDGE('',*,*,#884,.T.);
#533=ORIENTED_EDGE('',*,*,#885,.T.);
#534=ORIENTED_EDGE('',*,*,#886,.T.);
#535=ORIENTED_EDGE('',*,*,#887,.F.);
#536=ORIENTED_EDGE('',*,*,#803,.F.);
#537=ORIENTED_EDGE('',*,*,#888,.T.);
#538=ORIENTED_EDGE('',*,*,#881,.F.);
#539=ORIENTED_EDGE('',*,*,#889,.F.);
#540=ORIENTED_EDGE('',*,*,#802,.F.);
#541=ORIENTED_EDGE('',*,*,#890,.T.);
#542=ORIENTED_EDGE('',*,*,#882,.F.);
#543=ORIENTED_EDGE('',*,*,#888,.F.);
#544=ORIENTED_EDGE('',*,*,#801,.F.);
#545=ORIENTED_EDGE('',*,*,#891,.T.);
#546=ORIENTED_EDGE('',*,*,#883,.F.);
#547=ORIENTED_EDGE('',*,*,#890,.F.);
#548=ORIENTED_EDGE('',*,*,#800,.F.);
#549=ORIENTED_EDGE('',*,*,#892,.T.);
#550=ORIENTED_EDGE('',*,*,#884,.F.);
#551=ORIENTED_EDGE('',*,*,#891,.F.);
#552=ORIENTED_EDGE('',*,*,#799,.F.);
#553=ORIENTED_EDGE('',*,*,#893,.T.);
#554=ORIENTED_EDGE('',*,*,#885,.F.);
#555=ORIENTED_EDGE('',*,*,#892,.F.);
#556=ORIENTED_EDGE('',*,*,#894,.T.);
#557=ORIENTED_EDGE('',*,*,#886,.F.);
#558=ORIENTED_EDGE('',*,*,#893,.F.);
#559=ORIENTED_EDGE('',*,*,#798,.F.);
#560=ORIENTED_EDGE('',*,*,#895,.T.);
#561=ORIENTED_EDGE('',*,*,#878,.F.);
#562=ORIENTED_EDGE('',*,*,#797,.F.);
#563=ORIENTED_EDGE('',*,*,#896,.T.);
#564=ORIENTED_EDGE('',*,*,#879,.F.);
#565=ORIENTED_EDGE('',*,*,#895,.F.);
#566=ORIENTED_EDGE('',*,*,#796,.F.);
#567=ORIENTED_EDGE('',*,*,#889,.T.);
#568=ORIENTED_EDGE('',*,*,#880,.F.);
#569=ORIENTED_EDGE('',*,*,#896,.F.);
#570=ORIENTED_EDGE('',*,*,#897,.F.);
#571=ORIENTED_EDGE('',*,*,#807,.F.);
#572=ORIENTED_EDGE('',*,*,#898,.T.);
#573=ORIENTED_EDGE('',*,*,#899,.F.);
#574=ORIENTED_EDGE('',*,*,#900,.F.);
#575=ORIENTED_EDGE('',*,*,#901,.T.);
#576=ORIENTED_EDGE('',*,*,#902,.F.);
#577=ORIENTED_EDGE('',*,*,#804,.F.);
#578=ORIENTED_EDGE('',*,*,#897,.T.);
#579=ORIENTED_EDGE('',*,*,#901,.F.);
#580=ORIENTED_EDGE('',*,*,#903,.F.);
#581=ORIENTED_EDGE('',*,*,#904,.T.);
#582=ORIENTED_EDGE('',*,*,#905,.F.);
#583=ORIENTED_EDGE('',*,*,#805,.F.);
#584=ORIENTED_EDGE('',*,*,#902,.T.);
#585=ORIENTED_EDGE('',*,*,#904,.F.);
#586=ORIENTED_EDGE('',*,*,#906,.F.);
#587=ORIENTED_EDGE('',*,*,#907,.T.);
#588=ORIENTED_EDGE('',*,*,#898,.F.);
#589=ORIENTED_EDGE('',*,*,#806,.F.);
#590=ORIENTED_EDGE('',*,*,#905,.T.);
#591=ORIENTED_EDGE('',*,*,#907,.F.);
#592=ORIENTED_EDGE('',*,*,#908,.F.);
#593=ORIENTED_EDGE('',*,*,#899,.T.);
#594=ORIENTED_EDGE('',*,*,#909,.F.);
#595=ORIENTED_EDGE('',*,*,#910,.F.);
#596=ORIENTED_EDGE('',*,*,#818,.T.);
#597=ORIENTED_EDGE('',*,*,#911,.T.);
#598=ORIENTED_EDGE('',*,*,#912,.T.);
#599=ORIENTED_EDGE('',*,*,#778,.T.);
#600=ORIENTED_EDGE('',*,*,#913,.F.);
#601=ORIENTED_EDGE('',*,*,#914,.F.);
#602=ORIENTED_EDGE('',*,*,#811,.F.);
#603=ORIENTED_EDGE('',*,*,#779,.T.);
#604=ORIENTED_EDGE('',*,*,#912,.F.);
#605=ORIENTED_EDGE('',*,*,#915,.F.);
#606=ORIENTED_EDGE('',*,*,#795,.F.);
#607=ORIENTED_EDGE('',*,*,#828,.T.);
#608=ORIENTED_EDGE('',*,*,#774,.F.);
#609=ORIENTED_EDGE('',*,*,#916,.F.);
#610=ORIENTED_EDGE('',*,*,#816,.F.);
#611=ORIENTED_EDGE('',*,*,#782,.T.);
#612=ORIENTED_EDGE('',*,*,#770,.F.);
#613=ORIENTED_EDGE('',*,*,#917,.F.);
#614=ORIENTED_EDGE('',*,*,#792,.F.);
#615=ORIENTED_EDGE('',*,*,#827,.T.);
#616=ORIENTED_EDGE('',*,*,#824,.F.);
#617=ORIENTED_EDGE('',*,*,#918,.T.);
#618=ORIENTED_EDGE('',*,*,#872,.F.);
#619=ORIENTED_EDGE('',*,*,#853,.T.);
#620=ORIENTED_EDGE('',*,*,#852,.F.);
#621=ORIENTED_EDGE('',*,*,#919,.F.);
#622=ORIENTED_EDGE('',*,*,#920,.T.);
#623=ORIENTED_EDGE('',*,*,#921,.T.);
#624=ORIENTED_EDGE('',*,*,#922,.F.);
#625=ORIENTED_EDGE('',*,*,#923,.F.);
#626=ORIENTED_EDGE('',*,*,#856,.T.);
#627=ORIENTED_EDGE('',*,*,#855,.T.);
#628=ORIENTED_EDGE('',*,*,#868,.F.);
#629=ORIENTED_EDGE('',*,*,#918,.F.);
#630=ORIENTED_EDGE('',*,*,#920,.F.);
#631=ORIENTED_EDGE('',*,*,#924,.F.);
#632=ORIENTED_EDGE('',*,*,#925,.T.);
#633=ORIENTED_EDGE('',*,*,#926,.T.);
#634=ORIENTED_EDGE('',*,*,#873,.F.);
#635=ORIENTED_EDGE('',*,*,#927,.T.);
#636=ORIENTED_EDGE('',*,*,#926,.F.);
#637=ORIENTED_EDGE('',*,*,#925,.F.);
#638=ORIENTED_EDGE('',*,*,#928,.T.);
#639=ORIENTED_EDGE('',*,*,#929,.T.);
#640=ORIENTED_EDGE('',*,*,#930,.T.);
#641=ORIENTED_EDGE('',*,*,#874,.F.);
#642=ORIENTED_EDGE('',*,*,#930,.F.);
#643=ORIENTED_EDGE('',*,*,#929,.F.);
#644=ORIENTED_EDGE('',*,*,#931,.F.);
#645=ORIENTED_EDGE('',*,*,#932,.T.);
#646=ORIENTED_EDGE('',*,*,#933,.T.);
#647=ORIENTED_EDGE('',*,*,#875,.F.);
#648=ORIENTED_EDGE('',*,*,#934,.F.);
#649=ORIENTED_EDGE('',*,*,#935,.F.);
#650=ORIENTED_EDGE('',*,*,#936,.F.);
#651=ORIENTED_EDGE('',*,*,#937,.T.);
#652=ORIENTED_EDGE('',*,*,#865,.F.);
#653=ORIENTED_EDGE('',*,*,#938,.T.);
#654=ORIENTED_EDGE('',*,*,#937,.F.);
#655=ORIENTED_EDGE('',*,*,#939,.F.);
#656=ORIENTED_EDGE('',*,*,#940,.T.);
#657=ORIENTED_EDGE('',*,*,#866,.F.);
#658=ORIENTED_EDGE('',*,*,#940,.F.);
#659=ORIENTED_EDGE('',*,*,#941,.F.);
#660=ORIENTED_EDGE('',*,*,#922,.T.);
#661=ORIENTED_EDGE('',*,*,#921,.F.);
#662=ORIENTED_EDGE('',*,*,#867,.F.);
#663=ORIENTED_EDGE('',*,*,#942,.F.);
#664=ORIENTED_EDGE('',*,*,#943,.F.);
#665=ORIENTED_EDGE('',*,*,#944,.T.);
#666=ORIENTED_EDGE('',*,*,#876,.F.);
#667=ORIENTED_EDGE('',*,*,#933,.F.);
#668=ORIENTED_EDGE('',*,*,#932,.F.);
#669=ORIENTED_EDGE('',*,*,#945,.F.);
#670=ORIENTED_EDGE('',*,*,#935,.T.);
#671=ORIENTED_EDGE('',*,*,#934,.T.);
#672=ORIENTED_EDGE('',*,*,#864,.F.);
#673=ORIENTED_EDGE('',*,*,#894,.F.);
#674=ORIENTED_EDGE('',*,*,#877,.F.);
#675=ORIENTED_EDGE('',*,*,#944,.F.);
#676=ORIENTED_EDGE('',*,*,#863,.F.);
#677=ORIENTED_EDGE('',*,*,#871,.T.);
#678=ORIENTED_EDGE('',*,*,#946,.F.);
#679=ORIENTED_EDGE('',*,*,#947,.F.);
#680=ORIENTED_EDGE('',*,*,#835,.T.);
#681=ORIENTED_EDGE('',*,*,#869,.F.);
#682=ORIENTED_EDGE('',*,*,#837,.F.);
#683=ORIENTED_EDGE('',*,*,#948,.T.);
#684=ORIENTED_EDGE('',*,*,#949,.T.);
#685=ORIENTED_EDGE('',*,*,#870,.T.);
#686=ORIENTED_EDGE('',*,*,#949,.F.);
#687=ORIENTED_EDGE('',*,*,#950,.F.);
#688=ORIENTED_EDGE('',*,*,#946,.T.);
#689=ORIENTED_EDGE('',*,*,#951,.F.);
#690=ORIENTED_EDGE('',*,*,#887,.T.);
#691=ORIENTED_EDGE('',*,*,#947,.T.);
#692=ORIENTED_EDGE('',*,*,#950,.T.);
#693=ORIENTED_EDGE('',*,*,#948,.F.);
#694=ORIENTED_EDGE('',*,*,#836,.T.);
#695=ORIENTED_EDGE('',*,*,#951,.T.);
#696=ORIENTED_EDGE('',*,*,#938,.F.);
#697=ORIENTED_EDGE('',*,*,#943,.T.);
#698=ORIENTED_EDGE('',*,*,#927,.F.);
#699=ORIENTED_EDGE('',*,*,#942,.T.);
#700=ORIENTED_EDGE('',*,*,#903,.T.);
#701=ORIENTED_EDGE('',*,*,#900,.T.);
#702=ORIENTED_EDGE('',*,*,#908,.T.);
#703=ORIENTED_EDGE('',*,*,#906,.T.);
#704=ORIENTED_EDGE('',*,*,#861,.T.);
#705=ORIENTED_EDGE('',*,*,#833,.T.);
#706=ORIENTED_EDGE('',*,*,#857,.T.);
#707=ORIENTED_EDGE('',*,*,#923,.T.);
#708=ORIENTED_EDGE('',*,*,#941,.T.);
#709=ORIENTED_EDGE('',*,*,#939,.T.);
#710=ORIENTED_EDGE('',*,*,#936,.T.);
#711=ORIENTED_EDGE('',*,*,#945,.T.);
#712=ORIENTED_EDGE('',*,*,#931,.T.);
#713=ORIENTED_EDGE('',*,*,#928,.F.);
#714=ORIENTED_EDGE('',*,*,#924,.T.);
#715=ORIENTED_EDGE('',*,*,#919,.T.);
#716=ORIENTED_EDGE('',*,*,#851,.T.);
#717=ORIENTED_EDGE('',*,*,#847,.T.);
#718=ORIENTED_EDGE('',*,*,#859,.T.);
#719=ORIENTED_EDGE('',*,*,#841,.T.);
#720=ORIENTED_EDGE('',*,*,#952,.F.);
#721=ORIENTED_EDGE('',*,*,#913,.T.);
#722=ORIENTED_EDGE('',*,*,#953,.F.);
#723=ORIENTED_EDGE('',*,*,#771,.T.);
#724=ORIENTED_EDGE('',*,*,#954,.F.);
#725=ORIENTED_EDGE('',*,*,#826,.T.);
#726=ORIENTED_EDGE('',*,*,#955,.F.);
#727=ORIENTED_EDGE('',*,*,#764,.T.);
#728=ORIENTED_EDGE('',*,*,#952,.T.);
#729=ORIENTED_EDGE('',*,*,#953,.T.);
#730=ORIENTED_EDGE('',*,*,#954,.T.);
#731=ORIENTED_EDGE('',*,*,#955,.T.);
#732=ORIENTED_EDGE('',*,*,#769,.F.);
#733=ORIENTED_EDGE('',*,*,#822,.F.);
#734=ORIENTED_EDGE('',*,*,#817,.T.);
#735=ORIENTED_EDGE('',*,*,#916,.T.);
#736=ORIENTED_EDGE('',*,*,#911,.F.);
#737=ORIENTED_EDGE('',*,*,#820,.F.);
#738=ORIENTED_EDGE('',*,*,#812,.T.);
#739=ORIENTED_EDGE('',*,*,#914,.T.);
#740=ORIENTED_EDGE('',*,*,#956,.F.);
#741=ORIENTED_EDGE('',*,*,#809,.F.);
#742=ORIENTED_EDGE('',*,*,#819,.F.);
#743=ORIENTED_EDGE('',*,*,#910,.T.);
#744=ORIENTED_EDGE('',*,*,#957,.F.);
#745=ORIENTED_EDGE('',*,*,#814,.F.);
#746=ORIENTED_EDGE('',*,*,#821,.F.);
#747=ORIENTED_EDGE('',*,*,#767,.T.);
#748=ORIENTED_EDGE('',*,*,#766,.F.);
#749=ORIENTED_EDGE('',*,*,#781,.F.);
#750=ORIENTED_EDGE('',*,*,#815,.T.);
#751=ORIENTED_EDGE('',*,*,#957,.T.);
#752=ORIENTED_EDGE('',*,*,#823,.T.);
#753=ORIENTED_EDGE('',*,*,#787,.F.);
#754=ORIENTED_EDGE('',*,*,#790,.F.);
#755=ORIENTED_EDGE('',*,*,#917,.T.);
#756=ORIENTED_EDGE('',*,*,#909,.T.);
#757=ORIENTED_EDGE('',*,*,#777,.F.);
#758=ORIENTED_EDGE('',*,*,#810,.F.);
#759=ORIENTED_EDGE('',*,*,#956,.T.);
#760=ORIENTED_EDGE('',*,*,#773,.F.);
#761=ORIENTED_EDGE('',*,*,#784,.F.);
#762=ORIENTED_EDGE('',*,*,#793,.T.);
#763=ORIENTED_EDGE('',*,*,#915,.T.);
#764=EDGE_CURVE('',#958,#958,#1098,.T.);
#765=EDGE_CURVE('',#959,#960,#20,.T.);
#766=EDGE_CURVE('',#960,#961,#21,.T.);
#767=EDGE_CURVE('',#962,#961,#22,.T.);
#768=EDGE_CURVE('',#962,#963,#23,.T.);
#769=EDGE_CURVE('',#963,#964,#24,.T.);
#770=EDGE_CURVE('',#964,#959,#25,.T.);
#771=EDGE_CURVE('',#965,#965,#1099,.T.);
#772=EDGE_CURVE('',#966,#967,#26,.T.);
#773=EDGE_CURVE('',#966,#968,#27,.T.);
#774=EDGE_CURVE('',#968,#969,#28,.T.);
#775=EDGE_CURVE('',#969,#967,#29,.T.);
#776=EDGE_CURVE('',#970,#971,#30,.T.);
#777=EDGE_CURVE('',#970,#972,#31,.T.);
#778=EDGE_CURVE('',#973,#972,#32,.T.);
#779=EDGE_CURVE('',#971,#973,#33,.T.);
#780=EDGE_CURVE('',#974,#975,#34,.T.);
#781=EDGE_CURVE('',#974,#960,#35,.T.);
#782=EDGE_CURVE('',#975,#959,#36,.T.);
#783=EDGE_CURVE('',#976,#977,#37,.T.);
#784=EDGE_CURVE('',#976,#966,#38,.T.);
#785=EDGE_CURVE('',#967,#977,#39,.T.);
#786=EDGE_CURVE('',#978,#979,#40,.T.);
#787=EDGE_CURVE('',#978,#980,#41,.T.);
#788=EDGE_CURVE('',#980,#981,#42,.T.);
#789=EDGE_CURVE('',#981,#979,#43,.T.);
#790=EDGE_CURVE('',#982,#978,#44,.T.);
#791=EDGE_CURVE('',#979,#983,#45,.T.);
#792=EDGE_CURVE('',#983,#982,#46,.T.);
#793=EDGE_CURVE('',#976,#984,#47,.T.);
#794=EDGE_CURVE('',#977,#985,#48,.T.);
#795=EDGE_CURVE('',#985,#984,#49,.T.);
#796=EDGE_CURVE('',#986,#987,#50,.T.);
#797=EDGE_CURVE('',#987,#988,#51,.T.);
#798=EDGE_CURVE('',#988,#989,#52,.T.);
#799=EDGE_CURVE('',#989,#990,#53,.T.);
#800=EDGE_CURVE('',#990,#991,#54,.T.);
#801=EDGE_CURVE('',#991,#992,#55,.T.);
#802=EDGE_CURVE('',#992,#993,#56,.T.);
#803=EDGE_CURVE('',#993,#986,#57,.T.);
#804=EDGE_CURVE('',#994,#995,#58,.T.);
#805=EDGE_CURVE('',#995,#996,#59,.T.);
#806=EDGE_CURVE('',#996,#997,#60,.T.);
#807=EDGE_CURVE('',#997,#994,#61,.T.);
#808=EDGE_CURVE('',#998,#999,#62,.T.);
#809=EDGE_CURVE('',#999,#1000,#63,.T.);
#810=EDGE_CURVE('',#1000,#970,#64,.T.);
#811=EDGE_CURVE('',#971,#1001,#65,.T.);
#812=EDGE_CURVE('',#998,#1001,#66,.T.);
#813=EDGE_CURVE('',#1002,#1003,#67,.T.);
#814=EDGE_CURVE('',#1003,#1004,#68,.T.);
#815=EDGE_CURVE('',#974,#1004,#69,.T.);
#816=EDGE_CURVE('',#975,#1005,#70,.T.);
#817=EDGE_CURVE('',#1002,#1005,#71,.T.);
#818=EDGE_CURVE('',#1006,#1007,#72,.T.);
#819=EDGE_CURVE('',#1006,#999,#73,.T.);
#820=EDGE_CURVE('',#998,#1007,#74,.T.);
#821=EDGE_CURVE('',#962,#1003,#75,.T.);
#822=EDGE_CURVE('',#1002,#963,#76,.T.);
#823=EDGE_CURVE('',#1008,#980,#77,.T.);
#824=EDGE_CURVE('',#1008,#1009,#78,.T.);
#825=EDGE_CURVE('',#1009,#981,#79,.T.);
#826=EDGE_CURVE('',#1010,#1010,#1100,.T.);
#827=EDGE_CURVE('',#983,#1009,#80,.T.);
#828=EDGE_CURVE('',#985,#969,#81,.T.);
#829=EDGE_CURVE('',#1011,#1012,#82,.T.);
#830=EDGE_CURVE('',#1013,#1012,#83,.T.);
#831=EDGE_CURVE('',#1013,#1014,#84,.T.);
#832=EDGE_CURVE('',#1015,#1014,#85,.T.);
#833=EDGE_CURVE('',#1016,#1015,#86,.T.);
#834=EDGE_CURVE('',#1016,#1011,#87,.T.);
#835=EDGE_CURVE('',#1017,#1018,#88,.T.);
#836=EDGE_CURVE('',#1019,#1017,#89,.T.);
#837=EDGE_CURVE('',#1019,#1020,#90,.T.);
#838=EDGE_CURVE('',#1021,#1020,#91,.T.);
#839=EDGE_CURVE('',#1021,#1022,#92,.T.);
#840=EDGE_CURVE('',#1023,#1022,#93,.T.);
#841=EDGE_CURVE('',#1024,#1023,#94,.T.);
#842=EDGE_CURVE('',#1024,#1025,#95,.T.);
#843=EDGE_CURVE('',#1025,#1026,#96,.T.);
#844=EDGE_CURVE('',#1018,#1026,#97,.T.);
#845=EDGE_CURVE('',#1027,#1028,#98,.T.);
#846=EDGE_CURVE('',#1029,#1028,#99,.T.);
#847=EDGE_CURVE('',#1030,#1029,#100,.T.);
#848=EDGE_CURVE('',#1030,#1031,#101,.T.);
#849=EDGE_CURVE('',#1031,#1032,#102,.T.);
#850=EDGE_CURVE('',#1027,#1032,#103,.T.);
#851=EDGE_CURVE('',#1033,#1030,#104,.T.);
#852=EDGE_CURVE('',#1033,#1034,#105,.T.);
#853=EDGE_CURVE('',#1035,#1034,#106,.T.);
#854=EDGE_CURVE('',#1032,#1035,#107,.T.);
#855=EDGE_CURVE('',#1036,#1037,#108,.T.);
#856=EDGE_CURVE('',#1038,#1036,#109,.T.);
#857=EDGE_CURVE('',#1015,#1038,#110,.T.);
#858=EDGE_CURVE('',#1037,#1013,#111,.T.);
#859=EDGE_CURVE('',#1029,#1024,#112,.T.);
#860=EDGE_CURVE('',#1026,#1027,#113,.T.);
#861=EDGE_CURVE('',#1023,#1016,#114,.T.);
#862=EDGE_CURVE('',#1012,#1021,#115,.T.);
#863=EDGE_CURVE('',#1039,#1040,#116,.T.);
#864=EDGE_CURVE('',#1040,#1041,#117,.T.);
#865=EDGE_CURVE('',#1041,#1042,#118,.T.);
#866=EDGE_CURVE('',#1042,#1043,#119,.T.);
#867=EDGE_CURVE('',#1043,#1044,#120,.T.);
#868=EDGE_CURVE('',#1044,#1037,#121,.T.);
#869=EDGE_CURVE('',#1020,#1045,#122,.T.);
#870=EDGE_CURVE('',#1046,#1045,#123,.T.);
#871=EDGE_CURVE('',#1018,#1046,#124,.T.);
#872=EDGE_CURVE('',#1035,#1047,#125,.T.);
#873=EDGE_CURVE('',#1047,#1048,#126,.T.);
#874=EDGE_CURVE('',#1048,#1049,#127,.T.);
#875=EDGE_CURVE('',#1049,#1050,#128,.T.);
#876=EDGE_CURVE('',#1050,#1051,#129,.T.);
#877=EDGE_CURVE('',#1051,#1052,#130,.T.);
#878=EDGE_CURVE('',#1052,#1053,#131,.T.);
#879=EDGE_CURVE('',#1053,#1054,#132,.T.);
#880=EDGE_CURVE('',#1054,#1055,#133,.T.);
#881=EDGE_CURVE('',#1055,#1056,#134,.T.);
#882=EDGE_CURVE('',#1056,#1057,#135,.T.);
#883=EDGE_CURVE('',#1057,#1058,#136,.T.);
#884=EDGE_CURVE('',#1058,#1059,#137,.T.);
#885=EDGE_CURVE('',#1059,#1060,#138,.T.);
#886=EDGE_CURVE('',#1060,#1039,#139,.T.);
#887=EDGE_CURVE('',#1061,#1061,#1101,.T.);
#888=EDGE_CURVE('',#993,#1056,#140,.T.);
#889=EDGE_CURVE('',#986,#1055,#141,.T.);
#890=EDGE_CURVE('',#992,#1057,#142,.T.);
#891=EDGE_CURVE('',#991,#1058,#143,.T.);
#892=EDGE_CURVE('',#990,#1059,#144,.T.);
#893=EDGE_CURVE('',#989,#1060,#145,.T.);
#894=EDGE_CURVE('',#1052,#1039,#1102,.T.);
#895=EDGE_CURVE('',#988,#1053,#146,.T.);
#896=EDGE_CURVE('',#987,#1054,#147,.T.);
#897=EDGE_CURVE('',#994,#1062,#148,.T.);
#898=EDGE_CURVE('',#997,#1063,#149,.T.);
#899=EDGE_CURVE('',#1064,#1063,#150,.T.);
#900=EDGE_CURVE('',#1065,#1064,#151,.T.);
#901=EDGE_CURVE('',#1065,#1062,#152,.T.);
#902=EDGE_CURVE('',#995,#1066,#153,.T.);
#903=EDGE_CURVE('',#1067,#1065,#154,.T.);
#904=EDGE_CURVE('',#1067,#1066,#155,.T.);
#905=EDGE_CURVE('',#996,#1068,#156,.T.);
#906=EDGE_CURVE('',#1069,#1067,#157,.T.);
#907=EDGE_CURVE('',#1069,#1068,#158,.T.);
#908=EDGE_CURVE('',#1064,#1069,#159,.T.);
#909=EDGE_CURVE('',#1070,#972,#160,.T.);
#910=EDGE_CURVE('',#1006,#1070,#161,.T.);
#911=EDGE_CURVE('',#1007,#1071,#162,.T.);
#912=EDGE_CURVE('',#1071,#973,#163,.T.);
#913=EDGE_CURVE('',#1072,#1072,#1103,.T.);
#914=EDGE_CURVE('',#1001,#1071,#164,.T.);
#915=EDGE_CURVE('',#984,#968,#165,.T.);
#916=EDGE_CURVE('',#1005,#964,#166,.T.);
#917=EDGE_CURVE('',#982,#1008,#167,.T.);
#918=EDGE_CURVE('',#1073,#1047,#168,.T.);
#919=EDGE_CURVE('',#1074,#1033,#169,.T.);
#920=EDGE_CURVE('',#1074,#1073,#170,.T.);
#921=EDGE_CURVE('',#1044,#1075,#171,.T.);
#922=EDGE_CURVE('',#1076,#1075,#172,.T.);
#923=EDGE_CURVE('',#1038,#1076,#173,.T.);
#924=EDGE_CURVE('',#1077,#1074,#174,.T.);
#925=EDGE_CURVE('',#1077,#1078,#175,.T.);
#926=EDGE_CURVE('',#1078,#1048,#176,.T.);
#927=EDGE_CURVE('',#1079,#1079,#1104,.T.);
#928=EDGE_CURVE('',#1077,#1080,#177,.T.);
#929=EDGE_CURVE('',#1080,#1081,#178,.T.);
#930=EDGE_CURVE('',#1081,#1049,#179,.T.);
#931=EDGE_CURVE('',#1082,#1080,#180,.T.);
#932=EDGE_CURVE('',#1082,#1083,#181,.T.);
#933=EDGE_CURVE('',#1083,#1050,#182,.T.);
#934=EDGE_CURVE('',#1084,#1041,#183,.T.);
#935=EDGE_CURVE('',#1085,#1084,#184,.T.);
#936=EDGE_CURVE('',#1086,#1085,#185,.T.);
#937=EDGE_CURVE('',#1086,#1042,#186,.T.);
#938=EDGE_CURVE('',#1087,#1087,#1105,.T.);
#939=EDGE_CURVE('',#1088,#1086,#187,.T.);
#940=EDGE_CURVE('',#1088,#1043,#188,.T.);
#941=EDGE_CURVE('',#1076,#1088,#189,.T.);
#942=EDGE_CURVE('',#1089,#1089,#1106,.T.);
#943=EDGE_CURVE('',#1090,#1090,#1107,.T.);
#944=EDGE_CURVE('',#1040,#1051,#1108,.T.);
#945=EDGE_CURVE('',#1085,#1082,#190,.T.);
#946=EDGE_CURVE('',#1091,#1046,#191,.T.);
#947=EDGE_CURVE('',#1017,#1091,#192,.T.);
#948=EDGE_CURVE('',#1019,#1092,#193,.T.);
#949=EDGE_CURVE('',#1092,#1045,#194,.T.);
#950=EDGE_CURVE('',#1091,#1092,#195,.T.);
#951=EDGE_CURVE('',#1093,#1093,#1109,.T.);
#952=EDGE_CURVE('',#1094,#1094,#1110,.T.);
#953=EDGE_CURVE('',#1095,#1095,#1111,.T.);
#954=EDGE_CURVE('',#1096,#1096,#1112,.T.);
#955=EDGE_CURVE('',#1097,#1097,#1113,.T.);
#956=EDGE_CURVE('',#1000,#1070,#196,.T.);
#957=EDGE_CURVE('',#1004,#961,#197,.T.);
#958=VERTEX_POINT('',#1893);
#959=VERTEX_POINT('',#1895);
#960=VERTEX_POINT('',#1896);
#961=VERTEX_POINT('',#1898);
#962=VERTEX_POINT('',#1900);
#963=VERTEX_POINT('',#1902);
#964=VERTEX_POINT('',#1904);
#965=VERTEX_POINT('',#1908);
#966=VERTEX_POINT('',#1910);
#967=VERTEX_POINT('',#1911);
#968=VERTEX_POINT('',#1913);
#969=VERTEX_POINT('',#1915);
#970=VERTEX_POINT('',#1919);
#971=VERTEX_POINT('',#1920);
#972=VERTEX_POINT('',#1922);
#973=VERTEX_POINT('',#1924);
#974=VERTEX_POINT('',#1928);
#975=VERTEX_POINT('',#1929);
#976=VERTEX_POINT('',#1934);
#977=VERTEX_POINT('',#1935);
#978=VERTEX_POINT('',#1940);
#979=VERTEX_POINT('',#1941);
#980=VERTEX_POINT('',#1943);
#981=VERTEX_POINT('',#1945);
#982=VERTEX_POINT('',#1949);
#983=VERTEX_POINT('',#1951);
#984=VERTEX_POINT('',#1954);
#985=VERTEX_POINT('',#1956);
#986=VERTEX_POINT('',#1959);
#987=VERTEX_POINT('',#1960);
#988=VERTEX_POINT('',#1962);
#989=VERTEX_POINT('',#1964);
#990=VERTEX_POINT('',#1966);
#991=VERTEX_POINT('',#1968);
#992=VERTEX_POINT('',#1970);
#993=VERTEX_POINT('',#1972);
#994=VERTEX_POINT('',#1975);
#995=VERTEX_POINT('',#1976);
#996=VERTEX_POINT('',#1978);
#997=VERTEX_POINT('',#1980);
#998=VERTEX_POINT('',#1983);
#999=VERTEX_POINT('',#1984);
#1000=VERTEX_POINT('',#1986);
#1001=VERTEX_POINT('',#1989);
#1002=VERTEX_POINT('',#1992);
#1003=VERTEX_POINT('',#1993);
#1004=VERTEX_POINT('',#1995);
#1005=VERTEX_POINT('',#1998);
#1006=VERTEX_POINT('',#2002);
#1007=VERTEX_POINT('',#2003);
#1008=VERTEX_POINT('',#2011);
#1009=VERTEX_POINT('',#2013);
#1010=VERTEX_POINT('',#2016);
#1011=VERTEX_POINT('',#2023);
#1012=VERTEX_POINT('',#2024);
#1013=VERTEX_POINT('',#2026);
#1014=VERTEX_POINT('',#2028);
#1015=VERTEX_POINT('',#2030);
#1016=VERTEX_POINT('',#2032);
#1017=VERTEX_POINT('',#2036);
#1018=VERTEX_POINT('',#2037);
#1019=VERTEX_POINT('',#2039);
#1020=VERTEX_POINT('',#2041);
#1021=VERTEX_POINT('',#2043);
#1022=VERTEX_POINT('',#2045);
#1023=VERTEX_POINT('',#2047);
#1024=VERTEX_POINT('',#2049);
#1025=VERTEX_POINT('',#2051);
#1026=VERTEX_POINT('',#2053);
#1027=VERTEX_POINT('',#2057);
#1028=VERTEX_POINT('',#2058);
#1029=VERTEX_POINT('',#2060);
#1030=VERTEX_POINT('',#2062);
#1031=VERTEX_POINT('',#2064);
#1032=VERTEX_POINT('',#2066);
#1033=VERTEX_POINT('',#2070);
#1034=VERTEX_POINT('',#2072);
#1035=VERTEX_POINT('',#2074);
#1036=VERTEX_POINT('',#2078);
#1037=VERTEX_POINT('',#2079);
#1038=VERTEX_POINT('',#2081);
#1039=VERTEX_POINT('',#2092);
#1040=VERTEX_POINT('',#2093);
#1041=VERTEX_POINT('',#2095);
#1042=VERTEX_POINT('',#2097);
#1043=VERTEX_POINT('',#2099);
#1044=VERTEX_POINT('',#2101);
#1045=VERTEX_POINT('',#2104);
#1046=VERTEX_POINT('',#2106);
#1047=VERTEX_POINT('',#2109);
#1048=VERTEX_POINT('',#2111);
#1049=VERTEX_POINT('',#2113);
#1050=VERTEX_POINT('',#2115);
#1051=VERTEX_POINT('',#2117);
#1052=VERTEX_POINT('',#2119);
#1053=VERTEX_POINT('',#2121);
#1054=VERTEX_POINT('',#2123);
#1055=VERTEX_POINT('',#2125);
#1056=VERTEX_POINT('',#2127);
#1057=VERTEX_POINT('',#2129);
#1058=VERTEX_POINT('',#2131);
#1059=VERTEX_POINT('',#2133);
#1060=VERTEX_POINT('',#2135);
#1061=VERTEX_POINT('',#2138);
#1062=VERTEX_POINT('',#2158);
#1063=VERTEX_POINT('',#2160);
#1064=VERTEX_POINT('',#2162);
#1065=VERTEX_POINT('',#2164);
#1066=VERTEX_POINT('',#2168);
#1067=VERTEX_POINT('',#2170);
#1068=VERTEX_POINT('',#2174);
#1069=VERTEX_POINT('',#2176);
#1070=VERTEX_POINT('',#2182);
#1071=VERTEX_POINT('',#2185);
#1072=VERTEX_POINT('',#2188);
#1073=VERTEX_POINT('',#2199);
#1074=VERTEX_POINT('',#2201);
#1075=VERTEX_POINT('',#2205);
#1076=VERTEX_POINT('',#2207);
#1077=VERTEX_POINT('',#2211);
#1078=VERTEX_POINT('',#2213);
#1079=VERTEX_POINT('',#2217);
#1080=VERTEX_POINT('',#2219);
#1081=VERTEX_POINT('',#2221);
#1082=VERTEX_POINT('',#2225);
#1083=VERTEX_POINT('',#2227);
#1084=VERTEX_POINT('',#2231);
#1085=VERTEX_POINT('',#2233);
#1086=VERTEX_POINT('',#2235);
#1087=VERTEX_POINT('',#2239);
#1088=VERTEX_POINT('',#2241);
#1089=VERTEX_POINT('',#2247);
#1090=VERTEX_POINT('',#2249);
#1091=VERTEX_POINT('',#2255);
#1092=VERTEX_POINT('',#2259);
#1093=VERTEX_POINT('',#2265);
#1094=VERTEX_POINT('',#2272);
#1095=VERTEX_POINT('',#2275);
#1096=VERTEX_POINT('',#2278);
#1097=VERTEX_POINT('',#2281);
#1098=CIRCLE('',#1450,0.002);
#1099=CIRCLE('',#1452,0.002);
#1100=CIRCLE('',#1461,0.002);
#1101=CIRCLE('',#1472,0.0015);
#1102=CIRCLE('',#1479,0.02);
#1103=CIRCLE('',#1487,0.002);
#1104=CIRCLE('',#1496,0.0015);
#1105=CIRCLE('',#1500,0.0015);
#1106=CIRCLE('',#1503,0.0015);
#1107=CIRCLE('',#1504,0.0015);
#1108=CIRCLE('',#1505,0.02);
#1109=CIRCLE('',#1511,0.0015);
#1110=CIRCLE('',#1517,0.002);
#1111=CIRCLE('',#1519,0.002);
#1112=CIRCLE('',#1521,0.002);
#1113=CIRCLE('',#1523,0.002);
#1114=EDGE_LOOP('',(#376));
#1115=EDGE_LOOP('',(#377,#378,#379,#380,#381,#382));
#1116=EDGE_LOOP('',(#383));
#1117=EDGE_LOOP('',(#384,#385,#386,#387));
#1118=EDGE_LOOP('',(#388,#389,#390,#391));
#1119=EDGE_LOOP('',(#392,#393,#394,#395));
#1120=EDGE_LOOP('',(#396,#397,#398,#399));
#1121=EDGE_LOOP('',(#400,#401,#402,#403));
#1122=EDGE_LOOP('',(#404,#405,#406,#407));
#1123=EDGE_LOOP('',(#408,#409,#410,#411));
#1124=EDGE_LOOP('',(#412,#413,#414,#415,#416,#417,#418,#419));
#1125=EDGE_LOOP('',(#420,#421,#422,#423));
#1126=EDGE_LOOP('',(#424,#425,#426,#427,#428,#429));
#1127=EDGE_LOOP('',(#430,#431,#432,#433,#434,#435));
#1128=EDGE_LOOP('',(#436,#437,#438,#439));
#1129=EDGE_LOOP('',(#440,#441,#442,#443));
#1130=EDGE_LOOP('',(#444,#445,#446,#447));
#1131=EDGE_LOOP('',(#448));
#1132=EDGE_LOOP('',(#449,#450,#451,#452));
#1133=EDGE_LOOP('',(#453,#454,#455,#456));
#1134=EDGE_LOOP('',(#457,#458,#459,#460,#461,#462));
#1135=EDGE_LOOP('',(#463,#464,#465,#466,#467,#468,#469,#470,#471,#472));
#1136=EDGE_LOOP('',(#473,#474,#475,#476,#477,#478));
#1137=EDGE_LOOP('',(#479,#480,#481,#482,#483,#484));
#1138=EDGE_LOOP('',(#485,#486,#487,#488,#489,#490));
#1139=EDGE_LOOP('',(#491,#492,#493,#494,#495,#496));
#1140=EDGE_LOOP('',(#497,#498,#499,#500,#501,#502));
#1141=EDGE_LOOP('',(#503,#504,#505,#506,#507,#508,#509,#510,#511,#512,#513,
#514,#515,#516,#517,#518,#519,#520,#521,#522,#523,#524,#525,#526,#527,#528,
#529,#530,#531,#532,#533,#534));
#1142=EDGE_LOOP('',(#535));
#1143=EDGE_LOOP('',(#536,#537,#538,#539));
#1144=EDGE_LOOP('',(#540,#541,#542,#543));
#1145=EDGE_LOOP('',(#544,#545,#546,#547));
#1146=EDGE_LOOP('',(#548,#549,#550,#551));
#1147=EDGE_LOOP('',(#552,#553,#554,#555));
#1148=EDGE_LOOP('',(#556,#557,#558,#559,#560,#561));
#1149=EDGE_LOOP('',(#562,#563,#564,#565));
#1150=EDGE_LOOP('',(#566,#567,#568,#569));
#1151=EDGE_LOOP('',(#570,#571,#572,#573,#574,#575));
#1152=EDGE_LOOP('',(#576,#577,#578,#579,#580,#581));
#1153=EDGE_LOOP('',(#582,#583,#584,#585,#586,#587));
#1154=EDGE_LOOP('',(#588,#589,#590,#591,#592,#593));
#1155=EDGE_LOOP('',(#594,#595,#596,#597,#598,#599));
#1156=EDGE_LOOP('',(#600));
#1157=EDGE_LOOP('',(#601,#602,#603,#604));
#1158=EDGE_LOOP('',(#605,#606,#607,#608));
#1159=EDGE_LOOP('',(#609,#610,#611,#612));
#1160=EDGE_LOOP('',(#613,#614,#615,#616));
#1161=EDGE_LOOP('',(#617,#618,#619,#620,#621,#622));
#1162=EDGE_LOOP('',(#623,#624,#625,#626,#627,#628));
#1163=EDGE_LOOP('',(#629,#630,#631,#632,#633,#634));
#1164=EDGE_LOOP('',(#635));
#1165=EDGE_LOOP('',(#636,#637,#638,#639,#640,#641));
#1166=EDGE_LOOP('',(#642,#643,#644,#645,#646,#647));
#1167=EDGE_LOOP('',(#648,#649,#650,#651,#652));
#1168=EDGE_LOOP('',(#653));
#1169=EDGE_LOOP('',(#654,#655,#656,#657));
#1170=EDGE_LOOP('',(#658,#659,#660,#661,#662));
#1171=EDGE_LOOP('',(#663));
#1172=EDGE_LOOP('',(#664));
#1173=EDGE_LOOP('',(#665,#666,#667,#668,#669,#670,#671,#672));
#1174=EDGE_LOOP('',(#673,#674,#675,#676));
#1175=EDGE_LOOP('',(#677,#678,#679,#680));
#1176=EDGE_LOOP('',(#681,#682,#683,#684));
#1177=EDGE_LOOP('',(#685,#686,#687,#688));
#1178=EDGE_LOOP('',(#689));
#1179=EDGE_LOOP('',(#690));
#1180=EDGE_LOOP('',(#691,#692,#693,#694));
#1181=EDGE_LOOP('',(#695));
#1182=EDGE_LOOP('',(#696));
#1183=EDGE_LOOP('',(#697));
#1184=EDGE_LOOP('',(#698));
#1185=EDGE_LOOP('',(#699));
#1186=EDGE_LOOP('',(#700,#701,#702,#703));
#1187=EDGE_LOOP('',(#704,#705,#706,#707,#708,#709,#710,#711,#712,#713,#714,
#715,#716,#717,#718,#719));
#1188=EDGE_LOOP('',(#720));
#1189=EDGE_LOOP('',(#721));
#1190=EDGE_LOOP('',(#722));
#1191=EDGE_LOOP('',(#723));
#1192=EDGE_LOOP('',(#724));
#1193=EDGE_LOOP('',(#725));
#1194=EDGE_LOOP('',(#726));
#1195=EDGE_LOOP('',(#727));
#1196=EDGE_LOOP('',(#728));
#1197=EDGE_LOOP('',(#729));
#1198=EDGE_LOOP('',(#730));
#1199=EDGE_LOOP('',(#731));
#1200=EDGE_LOOP('',(#732,#733,#734,#735));
#1201=EDGE_LOOP('',(#736,#737,#738,#739));
#1202=EDGE_LOOP('',(#740,#741,#742,#743));
#1203=EDGE_LOOP('',(#744,#745,#746,#747));
#1204=EDGE_LOOP('',(#748,#749,#750,#751));
#1205=EDGE_LOOP('',(#752,#753,#754,#755));
#1206=EDGE_LOOP('',(#756,#757,#758,#759));
#1207=EDGE_LOOP('',(#760,#761,#762,#763));
#1208=FACE_BOUND('',#1114,.T.);
#1209=FACE_BOUND('',#1115,.T.);
#1210=FACE_BOUND('',#1116,.T.);
#1211=FACE_BOUND('',#1117,.T.);
#1212=FACE_BOUND('',#1118,.T.);
#1213=FACE_BOUND('',#1119,.T.);
#1214=FACE_BOUND('',#1120,.T.);
#1215=FACE_BOUND('',#1121,.T.);
#1216=FACE_BOUND('',#1122,.T.);
#1217=FACE_BOUND('',#1123,.T.);
#1218=FACE_BOUND('',#1124,.T.);
#1219=FACE_BOUND('',#1125,.T.);
#1220=FACE_BOUND('',#1126,.T.);
#1221=FACE_BOUND('',#1127,.T.);
#1222=FACE_BOUND('',#1128,.T.);
#1223=FACE_BOUND('',#1129,.T.);
#1224=FACE_BOUND('',#1130,.T.);
#1225=FACE_BOUND('',#1131,.T.);
#1226=FACE_BOUND('',#1132,.T.);
#1227=FACE_BOUND('',#1133,.T.);
#1228=FACE_BOUND('',#1134,.T.);
#1229=FACE_BOUND('',#1135,.T.);
#1230=FACE_BOUND('',#1136,.T.);
#1231=FACE_BOUND('',#1137,.T.);
#1232=FACE_BOUND('',#1138,.T.);
#1233=FACE_BOUND('',#1139,.T.);
#1234=FACE_BOUND('',#1140,.T.);
#1235=FACE_BOUND('',#1141,.T.);
#1236=FACE_BOUND('',#1142,.T.);
#1237=FACE_BOUND('',#1143,.T.);
#1238=FACE_BOUND('',#1144,.T.);
#1239=FACE_BOUND('',#1145,.T.);
#1240=FACE_BOUND('',#1146,.T.);
#1241=FACE_BOUND('',#1147,.T.);
#1242=FACE_BOUND('',#1148,.T.);
#1243=FACE_BOUND('',#1149,.T.);
#1244=FACE_BOUND('',#1150,.T.);
#1245=FACE_BOUND('',#1151,.T.);
#1246=FACE_BOUND('',#1152,.T.);
#1247=FACE_BOUND('',#1153,.T.);
#1248=FACE_BOUND('',#1154,.T.);
#1249=FACE_BOUND('',#1155,.T.);
#1250=FACE_BOUND('',#1156,.T.);
#1251=FACE_BOUND('',#1157,.T.);
#1252=FACE_BOUND('',#1158,.T.);
#1253=FACE_BOUND('',#1159,.T.);
#1254=FACE_BOUND('',#1160,.T.);
#1255=FACE_BOUND('',#1161,.T.);
#1256=FACE_BOUND('',#1162,.T.);
#1257=FACE_BOUND('',#1163,.T.);
#1258=FACE_BOUND('',#1164,.T.);
#1259=FACE_BOUND('',#1165,.T.);
#1260=FACE_BOUND('',#1166,.T.);
#1261=FACE_BOUND('',#1167,.T.);
#1262=FACE_BOUND('',#1168,.T.);
#1263=FACE_BOUND('',#1169,.T.);
#1264=FACE_BOUND('',#1170,.T.);
#1265=FACE_BOUND('',#1171,.T.);
#1266=FACE_BOUND('',#1172,.T.);
#1267=FACE_BOUND('',#1173,.T.);
#1268=FACE_BOUND('',#1174,.T.);
#1269=FACE_BOUND('',#1175,.T.);
#1270=FACE_BOUND('',#1176,.T.);
#1271=FACE_BOUND('',#1177,.T.);
#1272=FACE_BOUND('',#1178,.T.);
#1273=FACE_BOUND('',#1179,.T.);
#1274=FACE_BOUND('',#1180,.T.);
#1275=FACE_BOUND('',#1181,.T.);
#1276=FACE_BOUND('',#1182,.T.);
#1277=FACE_BOUND('',#1183,.T.);
#1278=FACE_BOUND('',#1184,.T.);
#1279=FACE_BOUND('',#1185,.T.);
#1280=FACE_BOUND('',#1186,.T.);
#1281=FACE_BOUND('',#1187,.T.);
#1282=FACE_BOUND('',#1188,.T.);
#1283=FACE_BOUND('',#1189,.T.);
#1284=FACE_BOUND('',#1190,.T.);
#1285=FACE_BOUND('',#1191,.T.);
#1286=FACE_BOUND('',#1192,.T.);
#1287=FACE_BOUND('',#1193,.T.);
#1288=FACE_BOUND('',#1194,.T.);
#1289=FACE_BOUND('',#1195,.T.);
#1290=FACE_BOUND('',#1196,.T.);
#1291=FACE_BOUND('',#1197,.T.);
#1292=FACE_BOUND('',#1198,.T.);
#1293=FACE_BOUND('',#1199,.T.);
#1294=FACE_BOUND('',#1200,.T.);
#1295=FACE_BOUND('',#1201,.T.);
#1296=FACE_BOUND('',#1202,.T.);
#1297=FACE_BOUND('',#1203,.T.);
#1298=FACE_BOUND('',#1204,.T.);
#1299=FACE_BOUND('',#1205,.T.);
#1300=FACE_BOUND('',#1206,.T.);
#1301=FACE_BOUND('',#1207,.T.);
#1302=PLANE('',#1449);
#1303=PLANE('',#1451);
#1304=PLANE('',#1453);
#1305=PLANE('',#1454);
#1306=PLANE('',#1455);
#1307=PLANE('',#1456);
#1308=PLANE('',#1457);
#1309=PLANE('',#1458);
#1310=PLANE('',#1459);
#1311=PLANE('',#1460);
#1312=PLANE('',#1462);
#1313=PLANE('',#1463);
#1314=PLANE('',#1464);
#1315=PLANE('',#1465);
#1316=PLANE('',#1466);
#1317=PLANE('',#1467);
#1318=PLANE('',#1468);
#1319=PLANE('',#1469);
#1320=PLANE('',#1470);
#1321=PLANE('',#1471);
#1322=PLANE('',#1473);
#1323=PLANE('',#1474);
#1324=PLANE('',#1475);
#1325=PLANE('',#1476);
#1326=PLANE('',#1477);
#1327=PLANE('',#1478);
#1328=PLANE('',#1480);
#1329=PLANE('',#1481);
#1330=PLANE('',#1482);
#1331=PLANE('',#1483);
#1332=PLANE('',#1484);
#1333=PLANE('',#1485);
#1334=PLANE('',#1486);
#1335=PLANE('',#1488);
#1336=PLANE('',#1489);
#1337=PLANE('',#1490);
#1338=PLANE('',#1491);
#1339=PLANE('',#1492);
#1340=PLANE('',#1493);
#1341=PLANE('',#1494);
#1342=PLANE('',#1495);
#1343=PLANE('',#1497);
#1344=PLANE('',#1498);
#1345=PLANE('',#1499);
#1346=PLANE('',#1501);
#1347=PLANE('',#1502);
#1348=PLANE('',#1507);
#1349=PLANE('',#1508);
#1350=PLANE('',#1509);
#1351=PLANE('',#1512);
#1352=PLANE('',#1515);
#1353=PLANE('',#1524);
#1354=PLANE('',#1525);
#1355=PLANE('',#1526);
#1356=PLANE('',#1527);
#1357=PLANE('',#1528);
#1358=PLANE('',#1529);
#1359=PLANE('',#1530);
#1360=PLANE('',#1531);
#1361=PLANE('',#1532);
#1362=PLANE('',#1533);
#1363=PLANE('',#1534);
#1364=PLANE('',#1535);
#1365=ADVANCED_FACE('',(#1208,#1209),#1302,.T.);
#1366=ADVANCED_FACE('',(#1210,#1211),#1303,.T.);
#1367=ADVANCED_FACE('',(#1212),#1304,.T.);
#1368=ADVANCED_FACE('',(#1213),#1305,.T.);
#1369=ADVANCED_FACE('',(#1214),#1306,.T.);
#1370=ADVANCED_FACE('',(#1215),#1307,.T.);
#1371=ADVANCED_FACE('',(#1216,#1217,#1218,#1219,#1220,#1221),#1308,.T.);
#1372=ADVANCED_FACE('',(#1222),#1309,.T.);
#1373=ADVANCED_FACE('',(#1223),#1310,.T.);
#1374=ADVANCED_FACE('',(#1224,#1225),#1311,.T.);
#1375=ADVANCED_FACE('',(#1226),#1312,.T.);
#1376=ADVANCED_FACE('',(#1227),#1313,.T.);
#1377=ADVANCED_FACE('',(#1228),#1314,.T.);
#1378=ADVANCED_FACE('',(#1229),#1315,.T.);
#1379=ADVANCED_FACE('',(#1230),#1316,.T.);
#1380=ADVANCED_FACE('',(#1231),#1317,.F.);
#1381=ADVANCED_FACE('',(#1232),#1318,.F.);
#1382=ADVANCED_FACE('',(#1233),#1319,.F.);
#1383=ADVANCED_FACE('',(#1234),#1320,.F.);
#1384=ADVANCED_FACE('',(#1235,#1236),#1321,.T.);
#1385=ADVANCED_FACE('',(#1237),#1322,.T.);
#1386=ADVANCED_FACE('',(#1238),#1323,.T.);
#1387=ADVANCED_FACE('',(#1239),#1324,.T.);
#1388=ADVANCED_FACE('',(#1240),#1325,.T.);
#1389=ADVANCED_FACE('',(#1241),#1326,.T.);
#1390=ADVANCED_FACE('',(#1242),#1327,.T.);
#1391=ADVANCED_FACE('',(#1243),#1328,.T.);
#1392=ADVANCED_FACE('',(#1244),#1329,.T.);
#1393=ADVANCED_FACE('',(#1245),#1330,.F.);
#1394=ADVANCED_FACE('',(#1246),#1331,.F.);
#1395=ADVANCED_FACE('',(#1247),#1332,.F.);
#1396=ADVANCED_FACE('',(#1248),#1333,.F.);
#1397=ADVANCED_FACE('',(#1249,#1250),#1334,.T.);
#1398=ADVANCED_FACE('',(#1251),#1335,.T.);
#1399=ADVANCED_FACE('',(#1252),#1336,.T.);
#1400=ADVANCED_FACE('',(#1253),#1337,.T.);
#1401=ADVANCED_FACE('',(#1254),#1338,.T.);
#1402=ADVANCED_FACE('',(#1255),#1339,.T.);
#1403=ADVANCED_FACE('',(#1256),#1340,.T.);
#1404=ADVANCED_FACE('',(#1257),#1341,.T.);
#1405=ADVANCED_FACE('',(#1258,#1259),#1342,.T.);
#1406=ADVANCED_FACE('',(#1260),#1343,.T.);
#1407=ADVANCED_FACE('',(#1261),#1344,.T.);
#1408=ADVANCED_FACE('',(#1262,#1263),#1345,.T.);
#1409=ADVANCED_FACE('',(#1264),#1346,.T.);
#1410=ADVANCED_FACE('',(#1265,#1266,#1267),#1347,.T.);
#1411=ADVANCED_FACE('',(#1268),#12,.F.);
#1412=ADVANCED_FACE('',(#1269),#1348,.F.);
#1413=ADVANCED_FACE('',(#1270),#1349,.T.);
#1414=ADVANCED_FACE('',(#1271),#1350,.F.);
#1415=ADVANCED_FACE('',(#1272,#1273),#13,.F.);
#1416=ADVANCED_FACE('',(#1274,#1275),#1351,.F.);
#1417=ADVANCED_FACE('',(#1276,#1277),#14,.F.);
#1418=ADVANCED_FACE('',(#1278,#1279),#15,.F.);
#1419=ADVANCED_FACE('',(#1280,#1281),#1352,.T.);
#1420=ADVANCED_FACE('',(#1282,#1283),#16,.F.);
#1421=ADVANCED_FACE('',(#1284,#1285),#17,.F.);
#1422=ADVANCED_FACE('',(#1286,#1287),#18,.F.);
#1423=ADVANCED_FACE('',(#1288,#1289),#19,.F.);
#1424=ADVANCED_FACE('',(#1290),#1353,.T.);
#1425=ADVANCED_FACE('',(#1291),#1354,.T.);
#1426=ADVANCED_FACE('',(#1292),#1355,.T.);
#1427=ADVANCED_FACE('',(#1293),#1356,.T.);
#1428=ADVANCED_FACE('',(#1294),#1357,.T.);
#1429=ADVANCED_FACE('',(#1295),#1358,.T.);
#1430=ADVANCED_FACE('',(#1296),#1359,.T.);
#1431=ADVANCED_FACE('',(#1297),#1360,.T.);
#1432=ADVANCED_FACE('',(#1298),#1361,.T.);
#1433=ADVANCED_FACE('',(#1299),#1362,.F.);
#1434=ADVANCED_FACE('',(#1300),#1363,.F.);
#1435=ADVANCED_FACE('',(#1301),#1364,.T.);
#1436=CLOSED_SHELL('',(#1365,#1366,#1367,#1368,#1369,#1370,#1371,#1372,
#1373,#1374,#1375,#1376,#1377,#1378,#1379,#1380,#1381,#1382,#1383,#1384,
#1385,#1386,#1387,#1388,#1389,#1390,#1391,#1392,#1393,#1394,#1395,#1396,
#1397,#1398,#1399,#1400,#1401,#1402,#1403,#1404,#1405,#1406,#1407,#1408,
#1409,#1410,#1411,#1412,#1413,#1414,#1415,#1416,#1417,#1418,#1419,#1420,
#1421,#1422,#1423,#1424,#1425,#1426,#1427,#1428,#1429,#1430,#1431,#1432,
#1433,#1434,#1435));
#1437=STYLED_ITEM('',(#1438),#1445);
#1438=PRESENTATION_STYLE_ASSIGNMENT((#1439));
#1439=SURFACE_STYLE_USAGE(.BOTH.,#1440);
#1440=SURFACE_SIDE_STYLE('',(#1441));
#1441=SURFACE_STYLE_FILL_AREA(#1442);
#1442=FILL_AREA_STYLE('',(#1443));
#1443=FILL_AREA_STYLE_COLOUR('',#1444);
#1444=DRAUGHTING_PRE_DEFINED_COLOUR('white');
#1445=MANIFOLD_SOLID_BREP('front_head_pixelbot v1',#1436);
#1446=SHAPE_DEFINITION_REPRESENTATION(#2302,#1447);
#1447=SHAPE_REPRESENTATION('front_head_pixelbot v1',(#1448),#2297);
#1448=AXIS2_PLACEMENT_3D('',#1890,#1536,#1537);
#1449=AXIS2_PLACEMENT_3D('',#1891,#1538,#1539);
#1450=AXIS2_PLACEMENT_3D('',#1892,#1540,#1541);
#1451=AXIS2_PLACEMENT_3D('',#1906,#1548,#1549);
#1452=AXIS2_PLACEMENT_3D('',#1907,#1550,#1551);
#1453=AXIS2_PLACEMENT_3D('',#1917,#1556,#1557);
#1454=AXIS2_PLACEMENT_3D('',#1926,#1562,#1563);
#1455=AXIS2_PLACEMENT_3D('',#1932,#1567,#1568);
#1456=AXIS2_PLACEMENT_3D('',#1938,#1572,#1573);
#1457=AXIS2_PLACEMENT_3D('',#1947,#1578,#1579);
#1458=AXIS2_PLACEMENT_3D('',#2000,#1608,#1609);
#1459=AXIS2_PLACEMENT_3D('',#2006,#1613,#1614);
#1460=AXIS2_PLACEMENT_3D('',#2009,#1617,#1618);
#1461=AXIS2_PLACEMENT_3D('',#2015,#1622,#1623);
#1462=AXIS2_PLACEMENT_3D('',#2017,#1624,#1625);
#1463=AXIS2_PLACEMENT_3D('',#2019,#1627,#1628);
#1464=AXIS2_PLACEMENT_3D('',#2021,#1630,#1631);
#1465=AXIS2_PLACEMENT_3D('',#2034,#1638,#1639);
#1466=AXIS2_PLACEMENT_3D('',#2055,#1650,#1651);
#1467=AXIS2_PLACEMENT_3D('',#2068,#1658,#1659);
#1468=AXIS2_PLACEMENT_3D('',#2076,#1664,#1665);
#1469=AXIS2_PLACEMENT_3D('',#2084,#1670,#1671);
#1470=AXIS2_PLACEMENT_3D('',#2087,#1674,#1675);
#1471=AXIS2_PLACEMENT_3D('',#2090,#1678,#1679);
#1472=AXIS2_PLACEMENT_3D('',#2137,#1704,#1705);
#1473=AXIS2_PLACEMENT_3D('',#2139,#1706,#1707);
#1474=AXIS2_PLACEMENT_3D('',#2142,#1710,#1711);
#1475=AXIS2_PLACEMENT_3D('',#2144,#1713,#1714);
#1476=AXIS2_PLACEMENT_3D('',#2146,#1716,#1717);
#1477=AXIS2_PLACEMENT_3D('',#2148,#1719,#1720);
#1478=AXIS2_PLACEMENT_3D('',#2150,#1722,#1723);
#1479=AXIS2_PLACEMENT_3D('',#2151,#1724,#1725);
#1480=AXIS2_PLACEMENT_3D('',#2153,#1727,#1728);
#1481=AXIS2_PLACEMENT_3D('',#2155,#1730,#1731);
#1482=AXIS2_PLACEMENT_3D('',#2156,#1732,#1733);
#1483=AXIS2_PLACEMENT_3D('',#2166,#1739,#1740);
#1484=AXIS2_PLACEMENT_3D('',#2172,#1744,#1745);
#1485=AXIS2_PLACEMENT_3D('',#2178,#1749,#1750);
#1486=AXIS2_PLACEMENT_3D('',#2180,#1752,#1753);
#1487=AXIS2_PLACEMENT_3D('',#2187,#1758,#1759);
#1488=AXIS2_PLACEMENT_3D('',#2189,#1760,#1761);
#1489=AXIS2_PLACEMENT_3D('',#2191,#1763,#1764);
#1490=AXIS2_PLACEMENT_3D('',#2193,#1766,#1767);
#1491=AXIS2_PLACEMENT_3D('',#2195,#1769,#1770);
#1492=AXIS2_PLACEMENT_3D('',#2197,#1772,#1773);
#1493=AXIS2_PLACEMENT_3D('',#2203,#1777,#1778);
#1494=AXIS2_PLACEMENT_3D('',#2209,#1782,#1783);
#1495=AXIS2_PLACEMENT_3D('',#2215,#1787,#1788);
#1496=AXIS2_PLACEMENT_3D('',#2216,#1789,#1790);
#1497=AXIS2_PLACEMENT_3D('',#2223,#1794,#1795);
#1498=AXIS2_PLACEMENT_3D('',#2229,#1799,#1800);
#1499=AXIS2_PLACEMENT_3D('',#2237,#1805,#1806);
#1500=AXIS2_PLACEMENT_3D('',#2238,#1807,#1808);
#1501=AXIS2_PLACEMENT_3D('',#2243,#1811,#1812);
#1502=AXIS2_PLACEMENT_3D('',#2245,#1814,#1815);
#1503=AXIS2_PLACEMENT_3D('',#2246,#1816,#1817);
#1504=AXIS2_PLACEMENT_3D('',#2248,#1818,#1819);
#1505=AXIS2_PLACEMENT_3D('',#2250,#1820,#1821);
#1506=AXIS2_PLACEMENT_3D('',#2252,#1823,#1824);
#1507=AXIS2_PLACEMENT_3D('',#2253,#1825,#1826);
#1508=AXIS2_PLACEMENT_3D('',#2257,#1829,#1830);
#1509=AXIS2_PLACEMENT_3D('',#2261,#1833,#1834);
#1510=AXIS2_PLACEMENT_3D('',#2263,#1836,#1837);
#1511=AXIS2_PLACEMENT_3D('',#2264,#1838,#1839);
#1512=AXIS2_PLACEMENT_3D('',#2266,#1840,#1841);
#1513=AXIS2_PLACEMENT_3D('',#2267,#1842,#1843);
#1514=AXIS2_PLACEMENT_3D('',#2268,#1844,#1845);
#1515=AXIS2_PLACEMENT_3D('',#2269,#1846,#1847);
#1516=AXIS2_PLACEMENT_3D('',#2270,#1848,#1849);
#1517=AXIS2_PLACEMENT_3D('',#2271,#1850,#1851);
#1518=AXIS2_PLACEMENT_3D('',#2273,#1852,#1853);
#1519=AXIS2_PLACEMENT_3D('',#2274,#1854,#1855);
#1520=AXIS2_PLACEMENT_3D('',#2276,#1856,#1857);
#1521=AXIS2_PLACEMENT_3D('',#2277,#1858,#1859);
#1522=AXIS2_PLACEMENT_3D('',#2279,#1860,#1861);
#1523=AXIS2_PLACEMENT_3D('',#2280,#1862,#1863);
#1524=AXIS2_PLACEMENT_3D('',#2282,#1864,#1865);
#1525=AXIS2_PLACEMENT_3D('',#2283,#1866,#1867);
#1526=AXIS2_PLACEMENT_3D('',#2284,#1868,#1869);
#1527=AXIS2_PLACEMENT_3D('',#2285,#1870,#1871);
#1528=AXIS2_PLACEMENT_3D('',#2286,#1872,#1873);
#1529=AXIS2_PLACEMENT_3D('',#2287,#1874,#1875);
#1530=AXIS2_PLACEMENT_3D('',#2288,#1876,#1877);
#1531=AXIS2_PLACEMENT_3D('',#2290,#1879,#1880);
#1532=AXIS2_PLACEMENT_3D('',#2292,#1882,#1883);
#1533=AXIS2_PLACEMENT_3D('',#2293,#1884,#1885);
#1534=AXIS2_PLACEMENT_3D('',#2294,#1886,#1887);
#1535=AXIS2_PLACEMENT_3D('',#2295,#1888,#1889);
#1536=DIRECTION('',(0.,0.,1.));
#1537=DIRECTION('',(1.,0.,0.));
#1538=DIRECTION('',(0.,0.,1.));
#1539=DIRECTION('',(-1.,0.,0.));
#1540=DIRECTION('',(0.,0.,1.));
#1541=DIRECTION('',(1.,0.,0.));
#1542=DIRECTION('',(-1.,1.31581988103722E-16,0.));
#1543=DIRECTION('',(0.,-1.,0.));
#1544=DIRECTION('',(-1.,-2.1599669739789E-16,0.));
#1545=DIRECTION('',(0.,-1.,0.));
#1546=DIRECTION('',(1.,0.,0.));
#1547=DIRECTION('',(0.,1.,0.));
#1548=DIRECTION('',(0.,0.,1.));
#1549=DIRECTION('',(-1.,0.,0.));
#1550=DIRECTION('',(0.,0.,1.));
#1551=DIRECTION('',(1.,0.,0.));
#1552=DIRECTION('',(1.,0.,0.));
#1553=DIRECTION('',(0.,-1.,0.));
#1554=DIRECTION('',(1.,0.,0.));
#1555=DIRECTION('',(0.,1.,0.));
#1556=DIRECTION('',(0.,-1.,0.));
#1557=DIRECTION('',(1.,0.,0.));
#1558=DIRECTION('',(-1.,0.,0.));
#1559=DIRECTION('',(0.,0.,1.));
#1560=DIRECTION('',(1.,0.,0.));
#1561=DIRECTION('',(0.,0.,1.));
#1562=DIRECTION('',(1.31581988103722E-16,1.,0.));
#1563=DIRECTION('',(-1.,1.31581988103722E-16,0.));
#1564=DIRECTION('',(1.,-1.31581988103722E-16,0.));
#1565=DIRECTION('',(0.,0.,1.));
#1566=DIRECTION('',(0.,0.,1.));
#1567=DIRECTION('',(0.,1.,0.));
#1568=DIRECTION('',(0.,0.,1.));
#1569=DIRECTION('',(1.,0.,0.));
#1570=DIRECTION('',(0.,0.,1.));
#1571=DIRECTION('',(0.,0.,-1.));
#1572=DIRECTION('',(2.1599669739789E-16,-1.,0.));
#1573=DIRECTION('',(1.,2.1599669739789E-16,0.));
#1574=DIRECTION('',(-1.,-2.1599669739789E-16,0.));
#1575=DIRECTION('',(0.,0.,1.));
#1576=DIRECTION('',(-1.,-2.1599669739789E-16,0.));
#1577=DIRECTION('',(0.,0.,-1.));
#1578=DIRECTION('',(0.,0.,1.));
#1579=DIRECTION('',(1.,0.,0.));
#1580=DIRECTION('',(0.,-1.,0.));
#1581=DIRECTION('',(0.,1.,0.));
#1582=DIRECTION('',(1.,-1.31581988103722E-16,0.));
#1583=DIRECTION('',(0.,-1.,0.));
#1584=DIRECTION('',(0.,-1.,0.));
#1585=DIRECTION('',(-1.,0.,0.));
#1586=DIRECTION('',(0.,-1.,0.));
#1587=DIRECTION('',(0.707106781186548,-0.707106781186547,0.));
#1588=DIRECTION('',(1.,0.,0.));
#1589=DIRECTION('',(0.707106781186548,0.707106781186548,0.));
#1590=DIRECTION('',(0.,1.,0.));
#1591=DIRECTION('',(-0.707106781186547,0.707106781186548,0.));
#1592=DIRECTION('',(-1.,0.,0.));
#1593=DIRECTION('',(-0.707106781186547,-0.707106781186548,0.));
#1594=DIRECTION('',(0.,1.,0.));
#1595=DIRECTION('',(1.,0.,0.));
#1596=DIRECTION('',(0.,-1.,0.));
#1597=DIRECTION('',(-1.,0.,0.));
#1598=DIRECTION('',(0.,-1.,0.));
#1599=DIRECTION('',(1.,0.,0.));
#1600=DIRECTION('',(0.,-1.,0.));
#1601=DIRECTION('',(0.,1.,0.));
#1602=DIRECTION('',(-1.,0.,0.));
#1603=DIRECTION('',(0.,1.,0.));
#1604=DIRECTION('',(-1.,-2.1599669739789E-16,0.));
#1605=DIRECTION('',(0.,-1.,0.));
#1606=DIRECTION('',(0.,-1.,0.));
#1607=DIRECTION('',(1.,0.,0.));
#1608=DIRECTION('',(1.,0.,0.));
#1609=DIRECTION('',(0.,1.,0.));
#1610=DIRECTION('',(0.,1.,0.));
#1611=DIRECTION('',(0.,0.,-1.));
#1612=DIRECTION('',(0.,0.,1.));
#1613=DIRECTION('',(-1.,0.,0.));
#1614=DIRECTION('',(0.,-1.,0.));
#1615=DIRECTION('',(0.,0.,-1.));
#1616=DIRECTION('',(0.,0.,1.));
#1617=DIRECTION('',(0.,0.,1.));
#1618=DIRECTION('',(-1.,0.,0.));
#1619=DIRECTION('',(0.,-1.,0.));
#1620=DIRECTION('',(-1.,1.31581988103722E-16,0.));
#1621=DIRECTION('',(0.,-1.,0.));
#1622=DIRECTION('',(0.,0.,1.));
#1623=DIRECTION('',(1.,0.,0.));
#1624=DIRECTION('',(-1.,0.,0.));
#1625=DIRECTION('',(0.,-1.,0.));
#1626=DIRECTION('',(0.,0.,1.));
#1627=DIRECTION('',(1.,0.,0.));
#1628=DIRECTION('',(0.,1.,0.));
#1629=DIRECTION('',(0.,0.,1.));
#1630=DIRECTION('',(1.,0.,0.));
#1631=DIRECTION('',(0.,1.,0.));
#1632=DIRECTION('',(0.,0.,1.));
#1633=DIRECTION('',(0.,1.,0.));
#1634=DIRECTION('',(0.,0.,-1.));
#1635=DIRECTION('',(0.,0.,1.));
#1636=DIRECTION('',(0.,-1.,0.));
#1637=DIRECTION('',(0.,0.,1.));
#1638=DIRECTION('',(0.,1.,0.));
#1639=DIRECTION('',(-1.,0.,0.));
#1640=DIRECTION('',(0.,0.,1.));
#1641=DIRECTION('',(-1.,0.,0.));
#1642=DIRECTION('',(0.,0.,1.));
#1643=DIRECTION('',(-1.,0.,0.));
#1644=DIRECTION('',(0.,0.,-1.));
#1645=DIRECTION('',(0.,0.,1.));
#1646=DIRECTION('',(1.,0.,0.));
#1647=DIRECTION('',(0.,0.,1.));
#1648=DIRECTION('',(0.,0.,1.));
#1649=DIRECTION('',(-1.,0.,0.));
#1650=DIRECTION('',(-1.,0.,0.));
#1651=DIRECTION('',(0.,-1.,0.));
#1652=DIRECTION('',(0.,0.,-1.));
#1653=DIRECTION('',(0.,0.,1.));
#1654=DIRECTION('',(0.,1.,0.));
#1655=DIRECTION('',(0.,0.,1.));
#1656=DIRECTION('',(0.,0.,1.));
#1657=DIRECTION('',(0.,-1.,0.));
#1658=DIRECTION('',(0.707106781186548,0.707106781186548,0.));
#1659=DIRECTION('',(0.707106781186548,-0.707106781186548,0.));
#1660=DIRECTION('',(-0.707106781186548,0.707106781186548,0.));
#1661=DIRECTION('',(0.,0.,1.));
#1662=DIRECTION('',(0.,0.,-1.));
#1663=DIRECTION('',(0.707106781186548,-0.707106781186548,0.));
#1664=DIRECTION('',(-0.707106781186548,0.707106781186548,0.));
#1665=DIRECTION('',(0.707106781186548,0.707106781186548,0.));
#1666=DIRECTION('',(0.,0.,1.));
#1667=DIRECTION('',(0.,0.,1.));
#1668=DIRECTION('',(-0.707106781186548,-0.707106781186548,0.));
#1669=DIRECTION('',(0.707106781186548,0.707106781186548,0.));
#1670=DIRECTION('',(0.707106781186548,-0.707106781186548,0.));
#1671=DIRECTION('',(-0.707106781186548,-0.707106781186548,0.));
#1672=DIRECTION('',(0.707106781186548,0.707106781186548,0.));
#1673=DIRECTION('',(-0.707106781186548,-0.707106781186548,0.));
#1674=DIRECTION('',(-0.707106781186548,-0.707106781186548,0.));
#1675=DIRECTION('',(-0.707106781186548,0.707106781186548,0.));
#1676=DIRECTION('',(0.707106781186548,-0.707106781186548,0.));
#1677=DIRECTION('',(-0.707106781186548,0.707106781186548,0.));
#1678=DIRECTION('',(0.,0.,1.));
#1679=DIRECTION('',(1.,0.,0.));
#1680=DIRECTION('',(0.,-1.,0.));
#1681=DIRECTION('',(1.,-2.84672570416707E-17,0.));
#1682=DIRECTION('',(0.,1.,0.));
#1683=DIRECTION('',(-1.,0.,0.));
#1684=DIRECTION('',(0.,1.,0.));
#1685=DIRECTION('',(1.,0.,0.));
#1686=DIRECTION('',(0.,1.,0.));
#1687=DIRECTION('',(1.,0.,0.));
#1688=DIRECTION('',(0.,1.,0.));
#1689=DIRECTION('',(1.,0.,0.));
#1690=DIRECTION('',(0.,-1.,0.));
#1691=DIRECTION('',(-1.,0.,0.));
#1692=DIRECTION('',(0.,-1.,0.));
#1693=DIRECTION('',(1.,-2.84672570416707E-17,0.));
#1694=DIRECTION('',(0.,1.,0.));
#1695=DIRECTION('',(-1.,0.,0.));
#1696=DIRECTION('',(-0.707106781186548,0.707106781186547,0.));
#1697=DIRECTION('',(0.,1.,0.));
#1698=DIRECTION('',(0.707106781186547,0.707106781186548,0.));
#1699=DIRECTION('',(1.,0.,0.));
#1700=DIRECTION('',(0.707106781186547,-0.707106781186548,0.));
#1701=DIRECTION('',(0.,-1.,0.));
#1702=DIRECTION('',(-0.707106781186548,-0.707106781186548,0.));
#1703=DIRECTION('',(-1.,0.,0.));
#1704=DIRECTION('',(0.,0.,1.));
#1705=DIRECTION('',(1.,0.,0.));
#1706=DIRECTION('',(0.707106781186548,-0.707106781186547,0.));
#1707=DIRECTION('',(0.707106781186547,0.707106781186548,0.));
#1708=DIRECTION('',(0.,0.,1.));
#1709=DIRECTION('',(0.,0.,1.));
#1710=DIRECTION('',(0.,-1.,0.));
#1711=DIRECTION('',(1.,0.,0.));
#1712=DIRECTION('',(0.,0.,1.));
#1713=DIRECTION('',(-0.707106781186548,-0.707106781186547,0.));
#1714=DIRECTION('',(0.707106781186547,-0.707106781186548,0.));
#1715=DIRECTION('',(0.,0.,1.));
#1716=DIRECTION('',(-1.,0.,0.));
#1717=DIRECTION('',(0.,-1.,0.));
#1718=DIRECTION('',(0.,0.,1.));
#1719=DIRECTION('',(-0.707106781186548,0.707106781186548,0.));
#1720=DIRECTION('',(-0.707106781186548,-0.707106781186548,0.));
#1721=DIRECTION('',(0.,0.,1.));
#1722=DIRECTION('',(0.,1.,0.));
#1723=DIRECTION('',(-1.,0.,0.));
#1724=DIRECTION('',(0.,-1.,0.));
#1725=DIRECTION('',(1.,0.,2.22044604925031E-16));
#1726=DIRECTION('',(0.,0.,1.));
#1727=DIRECTION('',(0.707106781186547,0.707106781186548,0.));
#1728=DIRECTION('',(-0.707106781186548,0.707106781186547,0.));
#1729=DIRECTION('',(0.,0.,1.));
#1730=DIRECTION('',(1.,0.,0.));
#1731=DIRECTION('',(0.,1.,0.));
#1732=DIRECTION('',(0.,-1.,0.));
#1733=DIRECTION('',(-1.,0.,0.));
#1734=DIRECTION('',(0.,0.,-1.));
#1735=DIRECTION('',(0.,0.,-1.));
#1736=DIRECTION('',(0.,0.,1.));
#1737=DIRECTION('',(1.,0.,0.));
#1738=DIRECTION('',(0.,0.,1.));
#1739=DIRECTION('',(-1.,0.,0.));
#1740=DIRECTION('',(0.,1.,0.));
#1741=DIRECTION('',(0.,0.,-1.));
#1742=DIRECTION('',(0.,-1.,0.));
#1743=DIRECTION('',(0.,0.,1.));
#1744=DIRECTION('',(0.,1.,0.));
#1745=DIRECTION('',(1.,0.,0.));
#1746=DIRECTION('',(0.,0.,-1.));
#1747=DIRECTION('',(-1.,0.,0.));
#1748=DIRECTION('',(0.,0.,1.));
#1749=DIRECTION('',(1.,0.,0.));
#1750=DIRECTION('',(0.,-1.,0.));
#1751=DIRECTION('',(0.,1.,0.));
#1752=DIRECTION('',(0.,0.,1.));
#1753=DIRECTION('',(-1.,0.,0.));
#1754=DIRECTION('',(0.,-1.,0.));
#1755=DIRECTION('',(1.,0.,0.));
#1756=DIRECTION('',(-1.,0.,0.));
#1757=DIRECTION('',(0.,-1.,0.));
#1758=DIRECTION('',(0.,0.,1.));
#1759=DIRECTION('',(1.,0.,0.));
#1760=DIRECTION('',(-1.,0.,0.));
#1761=DIRECTION('',(0.,-1.,0.));
#1762=DIRECTION('',(0.,0.,1.));
#1763=DIRECTION('',(0.,-1.,0.));
#1764=DIRECTION('',(1.,0.,0.));
#1765=DIRECTION('',(0.,0.,1.));
#1766=DIRECTION('',(1.,0.,0.));
#1767=DIRECTION('',(0.,1.,0.));
#1768=DIRECTION('',(0.,0.,1.));
#1769=DIRECTION('',(1.31581988103722E-16,1.,0.));
#1770=DIRECTION('',(-1.,1.31581988103722E-16,0.));
#1771=DIRECTION('',(0.,0.,1.));
#1772=DIRECTION('',(0.,-1.,0.));
#1773=DIRECTION('',(1.,0.,0.));
#1774=DIRECTION('',(0.,0.,1.));
#1775=DIRECTION('',(-1.,0.,0.));
#1776=DIRECTION('',(0.,0.,1.));
#1777=DIRECTION('',(0.,-1.,0.));
#1778=DIRECTION('',(1.,0.,0.));
#1779=DIRECTION('',(0.,0.,-1.));
#1780=DIRECTION('',(0.,0.,1.));
#1781=DIRECTION('',(-1.,0.,0.));
#1782=DIRECTION('',(-1.,0.,0.));
#1783=DIRECTION('',(0.,-1.,0.));
#1784=DIRECTION('',(0.,1.,0.));
#1785=DIRECTION('',(0.,0.,1.));
#1786=DIRECTION('',(0.,0.,1.));
#1787=DIRECTION('',(0.,1.,0.));
#1788=DIRECTION('',(-1.,0.,0.));
#1789=DIRECTION('',(-2.84672570416707E-17,-1.,0.));
#1790=DIRECTION('',(1.,-2.84672570416707E-17,0.));
#1791=DIRECTION('',(-1.,0.,0.));
#1792=DIRECTION('',(0.,0.,1.));
#1793=DIRECTION('',(0.,0.,1.));
#1794=DIRECTION('',(-1.,0.,0.));
#1795=DIRECTION('',(0.,-1.,0.));
#1796=DIRECTION('',(0.,1.,0.));
#1797=DIRECTION('',(0.,0.,1.));
#1798=DIRECTION('',(0.,0.,1.));
#1799=DIRECTION('',(1.,0.,0.));
#1800=DIRECTION('',(0.,1.,0.));
#1801=DIRECTION('',(0.,0.,1.));
#1802=DIRECTION('',(0.,0.,1.));
#1803=DIRECTION('',(0.,-1.,0.));
#1804=DIRECTION('',(0.,0.,1.));
#1805=DIRECTION('',(0.,1.,0.));
#1806=DIRECTION('',(-1.,0.,0.));
#1807=DIRECTION('',(-2.84672570416707E-17,-1.,0.));
#1808=DIRECTION('',(1.,-2.84672570416707E-17,0.));
#1809=DIRECTION('',(1.,0.,0.));
#1810=DIRECTION('',(0.,0.,1.));
#1811=DIRECTION('',(1.,0.,0.));
#1812=DIRECTION('',(0.,1.,0.));
#1813=DIRECTION('',(0.,-1.,0.));
#1814=DIRECTION('',(-2.84672570416707E-17,-1.,0.));
#1815=DIRECTION('',(1.,-2.84672570416707E-17,0.));
#1816=DIRECTION('',(-2.84672570416707E-17,-1.,0.));
#1817=DIRECTION('',(1.,-2.84672570416707E-17,0.));
#1818=DIRECTION('',(-2.84672570416707E-17,-1.,0.));
#1819=DIRECTION('',(1.,-2.84672570416707E-17,0.));
#1820=DIRECTION('',(2.84672570416707E-17,1.,0.));
#1821=DIRECTION('',(1.,0.,2.22044604925031E-16));
#1822=DIRECTION('',(-1.,2.84672570416707E-17,0.));
#1823=DIRECTION('',(0.,-1.,0.));
#1824=DIRECTION('',(1.,0.,2.22044604925031E-16));
#1825=DIRECTION('',(1.,0.,0.));
#1826=DIRECTION('',(0.,0.,-1.));
#1827=DIRECTION('',(0.,0.,1.));
#1828=DIRECTION('',(0.,1.,0.));
#1829=DIRECTION('',(1.,0.,0.));
#1830=DIRECTION('',(0.,0.,-1.));
#1831=DIRECTION('',(0.,1.,0.));
#1832=DIRECTION('',(0.,0.,1.));
#1833=DIRECTION('',(0.,-1.,0.));
#1834=DIRECTION('',(0.,0.,-1.));
#1835=DIRECTION('',(1.,0.,0.));
#1836=DIRECTION('',(0.,0.,1.));
#1837=DIRECTION('',(1.,0.,0.));
#1838=DIRECTION('',(0.,0.,1.));
#1839=DIRECTION('',(1.,0.,0.));
#1840=DIRECTION('',(0.,0.,1.));
#1841=DIRECTION('',(1.,0.,0.));
#1842=DIRECTION('',(-2.84672570416707E-17,-1.,0.));
#1843=DIRECTION('',(1.,-2.84672570416707E-17,0.));
#1844=DIRECTION('',(-2.84672570416707E-17,-1.,0.));
#1845=DIRECTION('',(1.,-2.84672570416707E-17,0.));
#1846=DIRECTION('',(0.,0.,-1.));
#1847=DIRECTION('',(-1.,0.,0.));
#1848=DIRECTION('',(0.,0.,1.));
#1849=DIRECTION('',(1.,0.,0.));
#1850=DIRECTION('',(0.,0.,1.));
#1851=DIRECTION('',(1.,0.,0.));
#1852=DIRECTION('',(0.,0.,1.));
#1853=DIRECTION('',(1.,0.,0.));
#1854=DIRECTION('',(0.,0.,1.));
#1855=DIRECTION('',(1.,0.,0.));
#1856=DIRECTION('',(0.,0.,1.));
#1857=DIRECTION('',(1.,0.,0.));
#1858=DIRECTION('',(0.,0.,1.));
#1859=DIRECTION('',(1.,0.,0.));
#1860=DIRECTION('',(0.,0.,1.));
#1861=DIRECTION('',(1.,0.,0.));
#1862=DIRECTION('',(0.,0.,1.));
#1863=DIRECTION('',(1.,0.,0.));
#1864=DIRECTION('',(0.,0.,1.));
#1865=DIRECTION('',(1.,0.,0.));
#1866=DIRECTION('',(0.,0.,1.));
#1867=DIRECTION('',(1.,0.,0.));
#1868=DIRECTION('',(0.,0.,1.));
#1869=DIRECTION('',(1.,0.,0.));
#1870=DIRECTION('',(0.,0.,1.));
#1871=DIRECTION('',(1.,0.,0.));
#1872=DIRECTION('',(0.,-1.,0.));
#1873=DIRECTION('',(0.,0.,-1.));
#1874=DIRECTION('',(0.,1.,0.));
#1875=DIRECTION('',(0.,0.,1.));
#1876=DIRECTION('',(0.,1.,0.));
#1877=DIRECTION('',(0.,0.,1.));
#1878=DIRECTION('',(0.,0.,1.));
#1879=DIRECTION('',(2.1599669739789E-16,-1.,0.));
#1880=DIRECTION('',(1.,2.1599669739789E-16,0.));
#1881=DIRECTION('',(0.,0.,1.));
#1882=DIRECTION('',(-1.,0.,0.));
#1883=DIRECTION('',(0.,0.,1.));
#1884=DIRECTION('',(-1.,0.,0.));
#1885=DIRECTION('',(0.,0.,1.));
#1886=DIRECTION('',(-1.,0.,0.));
#1887=DIRECTION('',(0.,0.,1.));
#1888=DIRECTION('',(-1.,0.,0.));
#1889=DIRECTION('',(0.,0.,1.));
#1890=CARTESIAN_POINT('',(0.,0.,0.));
#1891=CARTESIAN_POINT('',(0.1,0.069,0.009));
#1892=CARTESIAN_POINT('',(0.1575,0.111,0.009));
#1893=CARTESIAN_POINT('',(0.1595,0.111,0.009));
#1894=CARTESIAN_POINT('',(0.1675,0.115,0.009));
#1895=CARTESIAN_POINT('',(0.1675,0.115,0.009));
#1896=CARTESIAN_POINT('',(0.146,0.115,0.009));
#1897=CARTESIAN_POINT('',(0.146,0.1115,0.009));
#1898=CARTESIAN_POINT('',(0.146,0.108,0.009));
#1899=CARTESIAN_POINT('',(0.09675,0.108,0.009));
#1900=CARTESIAN_POINT('',(0.161,0.108,0.009));
#1901=CARTESIAN_POINT('',(0.161,0.02975,0.009));
#1902=CARTESIAN_POINT('',(0.161,0.09975,0.009));
#1903=CARTESIAN_POINT('',(0.16425,0.09975,0.009));
#1904=CARTESIAN_POINT('',(0.1675,0.09975,0.009));
#1905=CARTESIAN_POINT('',(0.1675,0.023,0.009));
#1906=CARTESIAN_POINT('',(0.1,0.069,0.009));
#1907=CARTESIAN_POINT('',(0.1575,0.027,0.009));
#1908=CARTESIAN_POINT('',(0.1595,0.027,0.009));
#1909=CARTESIAN_POINT('',(0.10325,0.03,0.009));
#1910=CARTESIAN_POINT('',(0.146,0.03,0.009));
#1911=CARTESIAN_POINT('',(0.1675,0.03,0.009));
#1912=CARTESIAN_POINT('',(0.146,0.0265,0.009));
#1913=CARTESIAN_POINT('',(0.146,0.023,0.009));
#1914=CARTESIAN_POINT('',(0.0325,0.023,0.009));
#1915=CARTESIAN_POINT('',(0.1675,0.023,0.009));
#1916=CARTESIAN_POINT('',(0.1675,0.023,0.009));
#1917=CARTESIAN_POINT('',(0.0325,0.023,0.001));
#1918=CARTESIAN_POINT('',(0.06625,0.023,0.001));
#1919=CARTESIAN_POINT('',(0.054,0.023,0.001));
#1920=CARTESIAN_POINT('',(0.0325,0.023,0.001));
#1921=CARTESIAN_POINT('',(0.054,0.023,0.001));
#1922=CARTESIAN_POINT('',(0.054,0.023,0.009));
#1923=CARTESIAN_POINT('',(0.0325,0.023,0.009));
#1924=CARTESIAN_POINT('',(0.0325,0.023,0.009));
#1925=CARTESIAN_POINT('',(0.0325,0.023,0.001));
#1926=CARTESIAN_POINT('',(0.1675,0.115,0.001));
#1927=CARTESIAN_POINT('',(0.13375,0.115,0.001));
#1928=CARTESIAN_POINT('',(0.146,0.115,0.001));
#1929=CARTESIAN_POINT('',(0.1675,0.115,0.001));
#1930=CARTESIAN_POINT('',(0.146,0.115,0.001));
#1931=CARTESIAN_POINT('',(0.1675,0.115,0.001));
#1932=CARTESIAN_POINT('',(0.10325,0.03,0.009));
#1933=CARTESIAN_POINT('',(0.10325,0.03,0.001));
#1934=CARTESIAN_POINT('',(0.146,0.03,0.001));
#1935=CARTESIAN_POINT('',(0.1675,0.03,0.001));
#1936=CARTESIAN_POINT('',(0.146,0.03,0.001));
#1937=CARTESIAN_POINT('',(0.1675,0.03,0.009));
#1938=CARTESIAN_POINT('',(0.09675,0.108,0.009));
#1939=CARTESIAN_POINT('',(0.09675,0.108,0.001));
#1940=CARTESIAN_POINT('',(0.054,0.108,0.001));
#1941=CARTESIAN_POINT('',(0.0325,0.108,0.001));
#1942=CARTESIAN_POINT('',(0.054,0.108,0.001));
#1943=CARTESIAN_POINT('',(0.054,0.108,0.009));
#1944=CARTESIAN_POINT('',(0.09675,0.108,0.009));
#1945=CARTESIAN_POINT('',(0.0325,0.108,0.009));
#1946=CARTESIAN_POINT('',(0.0325,0.108,0.009));
#1947=CARTESIAN_POINT('',(0.1,0.07,0.001));
#1948=CARTESIAN_POINT('',(0.054,0.1115,0.001));
#1949=CARTESIAN_POINT('',(0.054,0.115,0.001));
#1950=CARTESIAN_POINT('',(0.0325,0.0925,0.001));
#1951=CARTESIAN_POINT('',(0.0325,0.115,0.001));
#1952=CARTESIAN_POINT('',(0.13375,0.115,0.001));
#1953=CARTESIAN_POINT('',(0.146,0.0265,0.001));
#1954=CARTESIAN_POINT('',(0.146,0.023,0.001));
#1955=CARTESIAN_POINT('',(0.1675,0.0465,0.001));
#1956=CARTESIAN_POINT('',(0.1675,0.023,0.001));
#1957=CARTESIAN_POINT('',(0.06625,0.023,0.001));
#1958=CARTESIAN_POINT('',(0.002,0.057,0.001));
#1959=CARTESIAN_POINT('',(0.002,0.096,0.001));
#1960=CARTESIAN_POINT('',(0.002,0.044,0.001));
#1961=CARTESIAN_POINT('',(0.041,0.005,0.001));
#1962=CARTESIAN_POINT('',(0.044,0.002,0.001));
#1963=CARTESIAN_POINT('',(0.128,0.002,0.001));
#1964=CARTESIAN_POINT('',(0.156,0.002,0.001));
#1965=CARTESIAN_POINT('',(0.18,0.026,0.001));
#1966=CARTESIAN_POINT('',(0.198,0.044,0.001));
#1967=CARTESIAN_POINT('',(0.198,0.083,0.001));
#1968=CARTESIAN_POINT('',(0.198,0.096,0.001));
#1969=CARTESIAN_POINT('',(0.159,0.135,0.001));
#1970=CARTESIAN_POINT('',(0.156,0.138,0.001));
#1971=CARTESIAN_POINT('',(0.072,0.138,0.001));
#1972=CARTESIAN_POINT('',(0.044,0.138,0.001));
#1973=CARTESIAN_POINT('',(0.02,0.114,0.001));
#1974=CARTESIAN_POINT('',(0.0455,0.053625,0.001));
#1975=CARTESIAN_POINT('',(0.0455,0.03725,0.001));
#1976=CARTESIAN_POINT('',(0.0455,0.10275,0.001));
#1977=CARTESIAN_POINT('',(0.07275,0.10275,0.001));
#1978=CARTESIAN_POINT('',(0.1545,0.10275,0.001));
#1979=CARTESIAN_POINT('',(0.1545,0.086375,0.001));
#1980=CARTESIAN_POINT('',(0.1545,0.03725,0.001));
#1981=CARTESIAN_POINT('',(0.12725,0.03725,0.001));
#1982=CARTESIAN_POINT('',(0.039,0.049875,0.001));
#1983=CARTESIAN_POINT('',(0.039,0.03825,0.001));
#1984=CARTESIAN_POINT('',(0.039,0.03,0.001));
#1985=CARTESIAN_POINT('',(0.10325,0.03,0.001));
#1986=CARTESIAN_POINT('',(0.054,0.03,0.001));
#1987=CARTESIAN_POINT('',(0.054,0.0265,0.001));
#1988=CARTESIAN_POINT('',(0.0325,0.0925,0.001));
#1989=CARTESIAN_POINT('',(0.0325,0.03825,0.001));
#1990=CARTESIAN_POINT('',(0.03575,0.03825,0.001));
#1991=CARTESIAN_POINT('',(0.161,0.089125,0.001));
#1992=CARTESIAN_POINT('',(0.161,0.09975,0.001));
#1993=CARTESIAN_POINT('',(0.161,0.108,0.001));
#1994=CARTESIAN_POINT('',(0.09675,0.108,0.001));
#1995=CARTESIAN_POINT('',(0.146,0.108,0.001));
#1996=CARTESIAN_POINT('',(0.146,0.1115,0.001));
#1997=CARTESIAN_POINT('',(0.1675,0.0465,0.001));
#1998=CARTESIAN_POINT('',(0.1675,0.09975,0.001));
#1999=CARTESIAN_POINT('',(0.16425,0.09975,0.001));
#2000=CARTESIAN_POINT('',(0.039,0.02975,0.001));
#2001=CARTESIAN_POINT('',(0.039,0.10825,0.009));
#2002=CARTESIAN_POINT('',(0.039,0.03,0.009));
#2003=CARTESIAN_POINT('',(0.039,0.03825,0.009));
#2004=CARTESIAN_POINT('',(0.039,0.03,0.009));
#2005=CARTESIAN_POINT('',(0.039,0.03825,0.001));
#2006=CARTESIAN_POINT('',(0.161,0.10825,0.001));
#2007=CARTESIAN_POINT('',(0.161,0.108,0.009));
#2008=CARTESIAN_POINT('',(0.161,0.09975,0.001));
#2009=CARTESIAN_POINT('',(0.1,0.069,0.009));
#2010=CARTESIAN_POINT('',(0.054,0.1115,0.009));
#2011=CARTESIAN_POINT('',(0.054,0.115,0.009));
#2012=CARTESIAN_POINT('',(0.1675,0.115,0.009));
#2013=CARTESIAN_POINT('',(0.0325,0.115,0.009));
#2014=CARTESIAN_POINT('',(0.0325,0.115,0.009));
#2015=CARTESIAN_POINT('',(0.0425,0.111,0.009));
#2016=CARTESIAN_POINT('',(0.0445,0.111,0.009));
#2017=CARTESIAN_POINT('',(0.0325,0.115,0.001));
#2018=CARTESIAN_POINT('',(0.0325,0.115,0.001));
#2019=CARTESIAN_POINT('',(0.1675,0.023,0.001));
#2020=CARTESIAN_POINT('',(0.1675,0.023,0.001));
#2021=CARTESIAN_POINT('',(0.2,0.,0.));
#2022=CARTESIAN_POINT('',(0.2,0.096,0.0005));
#2023=CARTESIAN_POINT('',(0.2,0.096,-0.001));
#2024=CARTESIAN_POINT('',(0.2,0.096,0.036));
#2025=CARTESIAN_POINT('',(0.2,0.044,0.036));
#2026=CARTESIAN_POINT('',(0.2,0.044,0.036));
#2027=CARTESIAN_POINT('',(0.2,0.044,0.));
#2028=CARTESIAN_POINT('',(0.2,0.044,-0.001));
#2029=CARTESIAN_POINT('',(0.2,0.044,-0.002));
#2030=CARTESIAN_POINT('',(0.2,0.044,-0.002));
#2031=CARTESIAN_POINT('',(0.2,0.,-0.002));
#2032=CARTESIAN_POINT('',(0.2,0.096,-0.002));
#2033=CARTESIAN_POINT('',(0.2,0.096,-0.002));
#2034=CARTESIAN_POINT('',(0.2,0.14,0.));
#2035=CARTESIAN_POINT('',(0.097,0.14,0.033));
#2036=CARTESIAN_POINT('',(0.097,0.14,0.033));
#2037=CARTESIAN_POINT('',(0.097,0.14,0.036));
#2038=CARTESIAN_POINT('',(0.156,0.14,0.033));
#2039=CARTESIAN_POINT('',(0.103,0.14,0.033));
#2040=CARTESIAN_POINT('',(0.103,0.14,0.033));
#2041=CARTESIAN_POINT('',(0.103,0.14,0.036));
#2042=CARTESIAN_POINT('',(0.156,0.14,0.036));
#2043=CARTESIAN_POINT('',(0.156,0.14,0.036));
#2044=CARTESIAN_POINT('',(0.156,0.14,0.));
#2045=CARTESIAN_POINT('',(0.156,0.14,-0.001));
#2046=CARTESIAN_POINT('',(0.156,0.14,-0.002));
#2047=CARTESIAN_POINT('',(0.156,0.14,-0.002));
#2048=CARTESIAN_POINT('',(0.2,0.14,-0.002));
#2049=CARTESIAN_POINT('',(0.044,0.14,-0.002));
#2050=CARTESIAN_POINT('',(0.044,0.14,-0.002));
#2051=CARTESIAN_POINT('',(0.044,0.14,-0.001));
#2052=CARTESIAN_POINT('',(0.044,0.14,0.0005));
#2053=CARTESIAN_POINT('',(0.044,0.14,0.036));
#2054=CARTESIAN_POINT('',(0.156,0.14,0.036));
#2055=CARTESIAN_POINT('',(0.,0.14,0.));
#2056=CARTESIAN_POINT('',(0.,0.096,0.));
#2057=CARTESIAN_POINT('',(0.,0.096,0.036));
#2058=CARTESIAN_POINT('',(0.,0.096,-0.001));
#2059=CARTESIAN_POINT('',(0.,0.096,-0.002));
#2060=CARTESIAN_POINT('',(0.,0.096,-0.002));
#2061=CARTESIAN_POINT('',(0.,0.14,-0.002));
#2062=CARTESIAN_POINT('',(-1.7347234759768E-18,0.044,-0.002));
#2063=CARTESIAN_POINT('',(-1.7347234759768E-18,0.044,-0.002));
#2064=CARTESIAN_POINT('',(0.,0.044,-0.001));
#2065=CARTESIAN_POINT('',(0.,0.044,0.0005));
#2066=CARTESIAN_POINT('',(0.,0.044,0.036));
#2067=CARTESIAN_POINT('',(0.,0.096,0.036));
#2068=CARTESIAN_POINT('',(0.,0.044,0.001));
#2069=CARTESIAN_POINT('',(0.0185,0.0255,-0.002));
#2070=CARTESIAN_POINT('',(0.044,-1.7347234759768E-18,-0.002));
#2071=CARTESIAN_POINT('',(0.044,-1.7347234759768E-18,-0.002));
#2072=CARTESIAN_POINT('',(0.044,0.,-0.001));
#2073=CARTESIAN_POINT('',(0.044,0.,0.));
#2074=CARTESIAN_POINT('',(0.044,0.,0.036));
#2075=CARTESIAN_POINT('',(0.,0.044,0.036));
#2076=CARTESIAN_POINT('',(0.156,0.,0.001));
#2077=CARTESIAN_POINT('',(0.156,-4.44089209850063E-18,0.0005));
#2078=CARTESIAN_POINT('',(0.156,0.,-0.001));
#2079=CARTESIAN_POINT('',(0.156,0.,0.036));
#2080=CARTESIAN_POINT('',(0.156,-2.38524477946811E-18,-0.002));
#2081=CARTESIAN_POINT('',(0.156,-2.38524477946811E-18,-0.002));
#2082=CARTESIAN_POINT('',(0.1595,0.0035,-0.002));
#2083=CARTESIAN_POINT('',(0.156,0.,0.036));
#2084=CARTESIAN_POINT('',(0.044,0.14,0.001));
#2085=CARTESIAN_POINT('',(0.0405,0.1365,-0.002));
#2086=CARTESIAN_POINT('',(0.044,0.14,0.036));
#2087=CARTESIAN_POINT('',(0.2,0.096,0.001));
#2088=CARTESIAN_POINT('',(0.1815,0.1145,-0.002));
#2089=CARTESIAN_POINT('',(0.2,0.096,0.036));
#2090=CARTESIAN_POINT('',(0.1,0.07,0.036));
#2091=CARTESIAN_POINT('',(0.12,0.002,0.036));
#2092=CARTESIAN_POINT('',(0.12,0.002,0.036));
#2093=CARTESIAN_POINT('',(0.12,-0.018,0.036));
#2094=CARTESIAN_POINT('',(0.139,-0.018,0.036));
#2095=CARTESIAN_POINT('',(0.139,-0.018,0.036));
#2096=CARTESIAN_POINT('',(0.139,-0.015,0.036));
#2097=CARTESIAN_POINT('',(0.139,-0.015,0.036));
#2098=CARTESIAN_POINT('',(0.1,-0.015,0.036));
#2099=CARTESIAN_POINT('',(0.125,-0.015,0.036));
#2100=CARTESIAN_POINT('',(0.125,0.,0.036));
#2101=CARTESIAN_POINT('',(0.125,0.,0.036));
#2102=CARTESIAN_POINT('',(0.044,0.,0.036));
#2103=CARTESIAN_POINT('',(0.103,0.143,0.036));
#2104=CARTESIAN_POINT('',(0.103,0.146,0.036));
#2105=CARTESIAN_POINT('',(0.1,0.146,0.036));
#2106=CARTESIAN_POINT('',(0.097,0.146,0.036));
#2107=CARTESIAN_POINT('',(0.097,0.143,0.036));
#2108=CARTESIAN_POINT('',(0.044,0.,0.036));
#2109=CARTESIAN_POINT('',(0.075,0.,0.036));
#2110=CARTESIAN_POINT('',(0.075,-0.015,0.036));
#2111=CARTESIAN_POINT('',(0.075,-0.015,0.036));
#2112=CARTESIAN_POINT('',(0.075,-0.015,0.036));
#2113=CARTESIAN_POINT('',(0.061,-0.015,0.036));
#2114=CARTESIAN_POINT('',(0.061,-0.018,0.036));
#2115=CARTESIAN_POINT('',(0.061,-0.018,0.036));
#2116=CARTESIAN_POINT('',(0.139,-0.018,0.036));
#2117=CARTESIAN_POINT('',(0.08,-0.018,0.036));
#2118=CARTESIAN_POINT('',(0.08,0.002,0.036));
#2119=CARTESIAN_POINT('',(0.08,0.002,0.036));
#2120=CARTESIAN_POINT('',(0.044,0.002,0.036));
#2121=CARTESIAN_POINT('',(0.044,0.002,0.036));
#2122=CARTESIAN_POINT('',(0.002,0.044,0.036));
#2123=CARTESIAN_POINT('',(0.002,0.044,0.036));
#2124=CARTESIAN_POINT('',(0.002,0.096,0.036));
#2125=CARTESIAN_POINT('',(0.002,0.096,0.036));
#2126=CARTESIAN_POINT('',(0.044,0.138,0.036));
#2127=CARTESIAN_POINT('',(0.044,0.138,0.036));
#2128=CARTESIAN_POINT('',(0.044,0.138,0.036));
#2129=CARTESIAN_POINT('',(0.156,0.138,0.036));
#2130=CARTESIAN_POINT('',(0.198,0.096,0.036));
#2131=CARTESIAN_POINT('',(0.198,0.096,0.036));
#2132=CARTESIAN_POINT('',(0.198,0.096,0.036));
#2133=CARTESIAN_POINT('',(0.198,0.044,0.036));
#2134=CARTESIAN_POINT('',(0.156,0.002,0.036));
#2135=CARTESIAN_POINT('',(0.156,0.002,0.036));
#2136=CARTESIAN_POINT('',(0.044,0.002,0.036));
#2137=CARTESIAN_POINT('',(0.1,0.143,0.036));
#2138=CARTESIAN_POINT('',(0.1015,0.143,0.036));
#2139=CARTESIAN_POINT('',(0.002,0.096,0.001));
#2140=CARTESIAN_POINT('',(0.044,0.138,0.001));
#2141=CARTESIAN_POINT('',(0.002,0.096,0.001));
#2142=CARTESIAN_POINT('',(0.044,0.138,0.001));
#2143=CARTESIAN_POINT('',(0.156,0.138,0.001));
#2144=CARTESIAN_POINT('',(0.156,0.138,0.001));
#2145=CARTESIAN_POINT('',(0.198,0.096,0.001));
#2146=CARTESIAN_POINT('',(0.198,0.096,0.001));
#2147=CARTESIAN_POINT('',(0.198,0.044,0.001));
#2148=CARTESIAN_POINT('',(0.198,0.044,0.001));
#2149=CARTESIAN_POINT('',(0.156,0.002,0.001));
#2150=CARTESIAN_POINT('',(0.156,0.002,0.001));
#2151=CARTESIAN_POINT('',(0.1,0.002,0.036));
#2152=CARTESIAN_POINT('',(0.044,0.002,0.001));
#2153=CARTESIAN_POINT('',(0.044,0.002,0.001));
#2154=CARTESIAN_POINT('',(0.002,0.044,0.001));
#2155=CARTESIAN_POINT('',(0.002,0.044,0.001));
#2156=CARTESIAN_POINT('',(0.1545,0.03725,0.001));
#2157=CARTESIAN_POINT('',(0.0455,0.03725,0.));
#2158=CARTESIAN_POINT('',(0.0455,0.03725,-0.001));
#2159=CARTESIAN_POINT('',(0.1545,0.03725,0.));
#2160=CARTESIAN_POINT('',(0.1545,0.03725,-0.001));
#2161=CARTESIAN_POINT('',(0.1545,0.03725,-0.002));
#2162=CARTESIAN_POINT('',(0.1545,0.03725,-0.002));
#2163=CARTESIAN_POINT('',(0.12725,0.03725,-0.002));
#2164=CARTESIAN_POINT('',(0.0455,0.03725,-0.002));
#2165=CARTESIAN_POINT('',(0.0455,0.03725,-0.002));
#2166=CARTESIAN_POINT('',(0.0455,0.03725,0.001));
#2167=CARTESIAN_POINT('',(0.0455,0.10275,0.001));
#2168=CARTESIAN_POINT('',(0.0455,0.10275,-0.001));
#2169=CARTESIAN_POINT('',(0.0455,0.053625,-0.002));
#2170=CARTESIAN_POINT('',(0.0455,0.10275,-0.002));
#2171=CARTESIAN_POINT('',(0.0455,0.10275,-0.002));
#2172=CARTESIAN_POINT('',(0.0455,0.10275,0.001));
#2173=CARTESIAN_POINT('',(0.1545,0.10275,0.));
#2174=CARTESIAN_POINT('',(0.1545,0.10275,-0.001));
#2175=CARTESIAN_POINT('',(0.07275,0.10275,-0.002));
#2176=CARTESIAN_POINT('',(0.1545,0.10275,-0.002));
#2177=CARTESIAN_POINT('',(0.1545,0.10275,-0.002));
#2178=CARTESIAN_POINT('',(0.1545,0.10275,0.001));
#2179=CARTESIAN_POINT('',(0.1545,0.086375,-0.002));
#2180=CARTESIAN_POINT('',(0.1,0.069,0.009));
#2181=CARTESIAN_POINT('',(0.054,0.0265,0.009));
#2182=CARTESIAN_POINT('',(0.054,0.03,0.009));
#2183=CARTESIAN_POINT('',(0.10325,0.03,0.009));
#2184=CARTESIAN_POINT('',(0.03575,0.03825,0.009));
#2185=CARTESIAN_POINT('',(0.0325,0.03825,0.009));
#2186=CARTESIAN_POINT('',(0.0325,0.115,0.009));
#2187=CARTESIAN_POINT('',(0.0425,0.027,0.009));
#2188=CARTESIAN_POINT('',(0.0445,0.027,0.009));
#2189=CARTESIAN_POINT('',(0.0325,0.115,0.001));
#2190=CARTESIAN_POINT('',(0.0325,0.03825,0.001));
#2191=CARTESIAN_POINT('',(0.0325,0.023,0.001));
#2192=CARTESIAN_POINT('',(0.146,0.023,0.001));
#2193=CARTESIAN_POINT('',(0.1675,0.023,0.001));
#2194=CARTESIAN_POINT('',(0.1675,0.09975,0.001));
#2195=CARTESIAN_POINT('',(0.1675,0.115,0.001));
#2196=CARTESIAN_POINT('',(0.054,0.115,0.001));
#2197=CARTESIAN_POINT('',(0.,0.,0.));
#2198=CARTESIAN_POINT('',(0.075,0.,-0.0005));
#2199=CARTESIAN_POINT('',(0.075,0.,-0.001));
#2200=CARTESIAN_POINT('',(0.,0.,-0.002));
#2201=CARTESIAN_POINT('',(0.075,0.,-0.002));
#2202=CARTESIAN_POINT('',(0.075,0.,-0.002));
#2203=CARTESIAN_POINT('',(0.,0.,0.));
#2204=CARTESIAN_POINT('',(0.125,0.,-0.0005));
#2205=CARTESIAN_POINT('',(0.125,0.,-0.001));
#2206=CARTESIAN_POINT('',(0.125,0.,-0.002));
#2207=CARTESIAN_POINT('',(0.125,0.,-0.002));
#2208=CARTESIAN_POINT('',(0.,0.,-0.002));
#2209=CARTESIAN_POINT('',(0.075,0.,-0.001));
#2210=CARTESIAN_POINT('',(0.075,-0.015,-0.002));
#2211=CARTESIAN_POINT('',(0.075,-0.015,-0.002));
#2212=CARTESIAN_POINT('',(0.075,-0.015,-0.002));
#2213=CARTESIAN_POINT('',(0.075,-0.015,-0.001));
#2214=CARTESIAN_POINT('',(0.075,-0.015,-0.001));
#2215=CARTESIAN_POINT('',(0.075,-0.015,-0.001));
#2216=CARTESIAN_POINT('',(0.068,-0.015,0.017));
#2217=CARTESIAN_POINT('',(0.0695,-0.015,0.017));
#2218=CARTESIAN_POINT('',(0.075,-0.015,-0.002));
#2219=CARTESIAN_POINT('',(0.061,-0.015,-0.002));
#2220=CARTESIAN_POINT('',(0.061,-0.015,-0.002));
#2221=CARTESIAN_POINT('',(0.061,-0.015,-0.001));
#2222=CARTESIAN_POINT('',(0.061,-0.015,-0.001));
#2223=CARTESIAN_POINT('',(0.061,-0.015,-0.001));
#2224=CARTESIAN_POINT('',(0.061,-0.018,-0.002));
#2225=CARTESIAN_POINT('',(0.061,-0.018,-0.002));
#2226=CARTESIAN_POINT('',(0.061,-0.018,-0.002));
#2227=CARTESIAN_POINT('',(0.061,-0.018,-0.001));
#2228=CARTESIAN_POINT('',(0.061,-0.018,-0.001));
#2229=CARTESIAN_POINT('',(0.139,-0.018,-0.001));
#2230=CARTESIAN_POINT('',(0.139,-0.018,-0.001));
#2231=CARTESIAN_POINT('',(0.139,-0.018,-0.001));
#2232=CARTESIAN_POINT('',(0.139,-0.018,-0.002));
#2233=CARTESIAN_POINT('',(0.139,-0.018,-0.002));
#2234=CARTESIAN_POINT('',(0.139,-0.015,-0.002));
#2235=CARTESIAN_POINT('',(0.139,-0.015,-0.002));
#2236=CARTESIAN_POINT('',(0.139,-0.015,-0.001));
#2237=CARTESIAN_POINT('',(0.075,-0.015,-0.001));
#2238=CARTESIAN_POINT('',(0.132,-0.015,0.017));
#2239=CARTESIAN_POINT('',(0.1335,-0.015,0.017));
#2240=CARTESIAN_POINT('',(0.1,-0.015,-0.002));
#2241=CARTESIAN_POINT('',(0.125,-0.015,-0.002));
#2242=CARTESIAN_POINT('',(0.125,-0.015,-0.001));
#2243=CARTESIAN_POINT('',(0.125,-0.015,-0.001));
#2244=CARTESIAN_POINT('',(0.125,0.,-0.002));
#2245=CARTESIAN_POINT('',(0.061,-0.018,-0.001));
#2246=CARTESIAN_POINT('',(0.068,-0.018,0.017));
#2247=CARTESIAN_POINT('',(0.0695,-0.018,0.017));
#2248=CARTESIAN_POINT('',(0.132,-0.018,0.017));
#2249=CARTESIAN_POINT('',(0.1335,-0.018,0.017));
#2250=CARTESIAN_POINT('',(0.1,-0.018,0.036));
#2251=CARTESIAN_POINT('',(0.139,-0.018,-0.002));
#2252=CARTESIAN_POINT('',(0.1,0.002,0.036));
#2253=CARTESIAN_POINT('',(0.097,0.143,0.033));
#2254=CARTESIAN_POINT('',(0.097,0.146,0.033));
#2255=CARTESIAN_POINT('',(0.097,0.146,0.033));
#2256=CARTESIAN_POINT('',(0.097,0.143,0.033));
#2257=CARTESIAN_POINT('',(0.103,0.143,0.033));
#2258=CARTESIAN_POINT('',(0.103,0.143,0.033));
#2259=CARTESIAN_POINT('',(0.103,0.146,0.033));
#2260=CARTESIAN_POINT('',(0.103,0.146,0.033));
#2261=CARTESIAN_POINT('',(0.1,0.146,0.033));
#2262=CARTESIAN_POINT('',(0.1,0.146,0.033));
#2263=CARTESIAN_POINT('',(0.1,0.143,0.033));
#2264=CARTESIAN_POINT('',(0.1,0.143,0.033));
#2265=CARTESIAN_POINT('',(0.1015,0.143,0.033));
#2266=CARTESIAN_POINT('',(0.1,0.06399875,0.033));
#2267=CARTESIAN_POINT('',(0.132,-0.015,0.017));
#2268=CARTESIAN_POINT('',(0.068,-0.015,0.017));
#2269=CARTESIAN_POINT('',(0.1,0.07,-0.002));
#2270=CARTESIAN_POINT('',(0.0425,0.027,0.001));
#2271=CARTESIAN_POINT('',(0.0425,0.027,0.001));
#2272=CARTESIAN_POINT('',(0.0445,0.027,0.001));
#2273=CARTESIAN_POINT('',(0.1575,0.027,0.001));
#2274=CARTESIAN_POINT('',(0.1575,0.027,0.001));
#2275=CARTESIAN_POINT('',(0.1595,0.027,0.001));
#2276=CARTESIAN_POINT('',(0.0425,0.111,0.001));
#2277=CARTESIAN_POINT('',(0.0425,0.111,0.001));
#2278=CARTESIAN_POINT('',(0.0445,0.111,0.001));
#2279=CARTESIAN_POINT('',(0.1575,0.111,0.001));
#2280=CARTESIAN_POINT('',(0.1575,0.111,0.001));
#2281=CARTESIAN_POINT('',(0.1595,0.111,0.001));
#2282=CARTESIAN_POINT('',(0.1,0.07,0.001));
#2283=CARTESIAN_POINT('',(0.1,0.07,0.001));
#2284=CARTESIAN_POINT('',(0.1,0.07,0.001));
#2285=CARTESIAN_POINT('',(0.1,0.07,0.001));
#2286=CARTESIAN_POINT('',(0.16425,0.09975,0.001));
#2287=CARTESIAN_POINT('',(0.03575,0.03825,0.001));
#2288=CARTESIAN_POINT('',(0.10325,0.03,0.009));
#2289=CARTESIAN_POINT('',(0.054,0.03,0.001));
#2290=CARTESIAN_POINT('',(0.09675,0.108,0.009));
#2291=CARTESIAN_POINT('',(0.146,0.108,0.001));
#2292=CARTESIAN_POINT('',(0.146,0.1115,0.001));
#2293=CARTESIAN_POINT('',(0.054,0.1115,0.001));
#2294=CARTESIAN_POINT('',(0.054,0.0265,0.001));
#2295=CARTESIAN_POINT('',(0.146,0.0265,0.001));
#2296=MECHANICAL_DESIGN_GEOMETRIC_PRESENTATION_REPRESENTATION('',(#1437),
#2297);
#2297=(
GEOMETRIC_REPRESENTATION_CONTEXT(3)
GLOBAL_UNCERTAINTY_ASSIGNED_CONTEXT((#2298))
GLOBAL_UNIT_ASSIGNED_CONTEXT((#2301,#2300,#2299))
REPRESENTATION_CONTEXT('front_head_pixelbot v1',
'TOP_LEVEL_ASSEMBLY_PART')
);
#2298=UNCERTAINTY_MEASURE_WITH_UNIT(LENGTH_MEASURE(1.E-6),#2301,
'DISTANCE_ACCURACY_VALUE','Maximum Tolerance applied to model');
#2299=(
NAMED_UNIT(*)
SI_UNIT($,.STERADIAN.)
SOLID_ANGLE_UNIT()
);
#2300=(
NAMED_UNIT(*)
PLANE_ANGLE_UNIT()
SI_UNIT($,.RADIAN.)
);
#2301=(
LENGTH_UNIT()
NAMED_UNIT(*)
SI_UNIT($,.METRE.)
);
#2302=PRODUCT_DEFINITION_SHAPE('','',#2303);
#2303=PRODUCT_DEFINITION('','',#2305,#2304);
#2304=PRODUCT_DEFINITION_CONTEXT('',#2311,'design');
#2305=PRODUCT_DEFINITION_FORMATION_WITH_SPECIFIED_SOURCE('','',#2307,
 .NOT_KNOWN.);
#2306=PRODUCT_RELATED_PRODUCT_CATEGORY('','',(#2307));
#2307=PRODUCT('front_head_pixelbot v1','front_head_pixelbot v1',
'front_head_pixelbot v1',(#2309));
#2308=PRODUCT_CATEGORY('','');
#2309=PRODUCT_CONTEXT('',#2311,'mechanical');
#2310=APPLICATION_PROTOCOL_DEFINITION('international standard',
'ap242_managed_model_based_3d_engineering',2011,#2311);
#2311=APPLICATION_CONTEXT('managed model based 3d engineering');
ENDSEC;
END-ISO-10303-21;
