ISO-10303-21;
HEADER;
/* Generated by software containing ST-Developer
 * from STEP Tools, Inc. (www.steptools.com) 
 */
/* OPTION: using custom renumber hook */

FILE_DESCRIPTION(
/* description */ ('STEP AP242',
'CAx-IF Rec.Pracs.---Representation and Presentation of Product Manufa
cturing Information (PMI)---4.0---2014-10-13',
'CAx-IF Rec.Pracs.---3D Tessellated Geometry---0.4---2014-09-14','2;1'),

/* implementation_level */ '2;1');

FILE_NAME(
/* name */ '689218bf3e0e144336bc252b',
/* time_stamp */ '2025-08-05T14:44:16Z',
/* author */ (''),
/* organization */ (''),
/* preprocessor_version */ 'ST-DEVELOPER v20',
/* originating_system */ 'ONSHAPE BY PTC INC, 1.201',
/* authorisation */ '  ');

FILE_SCHEMA (('AP242_MANAGED_MODEL_BASED_3D_ENGINEERING_MIM_LF { 1 0 10303 442 1 1 4 }'));
ENDSEC;

DATA;
#10=SHAPE_REPRESENTATION_RELATIONSHIP('','',#174,#11);
#11=ADVANCED_BREP_SHAPE_REPRESENTATION('',(#172),#332);
#12=CIRCLE('',#178,0.02125);
#13=CIRCLE('',#181,0.02125);
#14=CIRCLE('',#183,0.0175);
#15=CIRCLE('',#184,0.0175);
#16=CIRCLE('',#186,0.0175);
#17=CIRCLE('',#189,0.0175);
#18=CYLINDRICAL_SURFACE('',#177,0.02125);
#19=CYLINDRICAL_SURFACE('',#180,0.02125);
#20=CYLINDRICAL_SURFACE('',#185,0.0175);
#21=CYLINDRICAL_SURFACE('',#188,0.0175);
#22=PLANE('',#176);
#23=PLANE('',#179);
#24=PLANE('',#182);
#25=PLANE('',#187);
#26=PLANE('',#190);
#27=B_SPLINE_CURVE_WITH_KNOTS('',3,(#244,#245,#246,#247,#248,#249,#250,
#251,#252,#253,#254),.UNSPECIFIED.,.F.,.F.,(4,1,1,1,1,1,1,1,4),(0.,0.00279391525475104,
0.00558783050950208,0.0111756610190042,0.0167634915285063,0.0223513220380083,
0.0279391525475104,0.0335269830570125,0.0447026440760167),.UNSPECIFIED.);
#28=B_SPLINE_CURVE_WITH_KNOTS('',3,(#258,#259,#260,#261,#262,#263,#264,
#265,#266,#267,#268),.UNSPECIFIED.,.F.,.F.,(4,1,1,1,1,1,1,1,4),(0.,0.00279391525475104,
0.00558783050950208,0.0111756610190042,0.0167634915285062,0.0223513220380083,
0.0279391525475104,0.0335269830570125,0.0447026440760166),.UNSPECIFIED.);
#29=B_SPLINE_CURVE_WITH_KNOTS('',3,(#280,#281,#282,#283,#284,#285,#286,
#287,#288,#289,#290),.UNSPECIFIED.,.F.,.F.,(4,1,1,1,1,1,1,1,4),(0.,0.00279391525475073,
0.00558783050950147,0.0111756610190029,0.0167634915285044,0.0223513220380059,
0.0279391525475073,0.0335269830570088,0.0447026440760117),.UNSPECIFIED.);
#30=B_SPLINE_CURVE_WITH_KNOTS('',3,(#291,#292,#293,#294,#295,#296,#297,
#298,#299,#300,#301),.UNSPECIFIED.,.F.,.F.,(4,1,1,1,1,1,1,1,4),(0.,0.00279391525475074,
0.00558783050950147,0.0111756610190029,0.0167634915285044,0.0223513220380059,
0.0279391525475074,0.0335269830570088,0.0447026440760118),.UNSPECIFIED.);
#31=ORIENTED_EDGE('',*,*,#69,.T.);
#32=ORIENTED_EDGE('',*,*,#70,.T.);
#33=ORIENTED_EDGE('',*,*,#71,.T.);
#34=ORIENTED_EDGE('',*,*,#72,.T.);
#35=ORIENTED_EDGE('',*,*,#73,.F.);
#36=ORIENTED_EDGE('',*,*,#74,.T.);
#37=ORIENTED_EDGE('',*,*,#69,.F.);
#38=ORIENTED_EDGE('',*,*,#75,.T.);
#39=ORIENTED_EDGE('',*,*,#76,.F.);
#40=ORIENTED_EDGE('',*,*,#77,.F.);
#41=ORIENTED_EDGE('',*,*,#73,.T.);
#42=ORIENTED_EDGE('',*,*,#78,.T.);
#43=ORIENTED_EDGE('',*,*,#79,.F.);
#44=ORIENTED_EDGE('',*,*,#78,.F.);
#45=ORIENTED_EDGE('',*,*,#75,.F.);
#46=ORIENTED_EDGE('',*,*,#72,.F.);
#47=ORIENTED_EDGE('',*,*,#80,.T.);
#48=ORIENTED_EDGE('',*,*,#81,.T.);
#49=ORIENTED_EDGE('',*,*,#80,.F.);
#50=ORIENTED_EDGE('',*,*,#71,.F.);
#51=ORIENTED_EDGE('',*,*,#82,.T.);
#52=ORIENTED_EDGE('',*,*,#83,.F.);
#53=ORIENTED_EDGE('',*,*,#82,.F.);
#54=ORIENTED_EDGE('',*,*,#70,.F.);
#55=ORIENTED_EDGE('',*,*,#74,.F.);
#56=ORIENTED_EDGE('',*,*,#77,.T.);
#57=ORIENTED_EDGE('',*,*,#84,.F.);
#58=ORIENTED_EDGE('',*,*,#85,.F.);
#59=ORIENTED_EDGE('',*,*,#76,.T.);
#60=ORIENTED_EDGE('',*,*,#79,.T.);
#61=ORIENTED_EDGE('',*,*,#81,.F.);
#62=ORIENTED_EDGE('',*,*,#83,.T.);
#63=ORIENTED_EDGE('',*,*,#86,.F.);
#64=ORIENTED_EDGE('',*,*,#85,.T.);
#65=ORIENTED_EDGE('',*,*,#86,.T.);
#66=ORIENTED_EDGE('',*,*,#87,.F.);
#67=ORIENTED_EDGE('',*,*,#84,.T.);
#68=ORIENTED_EDGE('',*,*,#87,.T.);
#69=EDGE_CURVE('',#88,#89,#102,.T.);
#70=EDGE_CURVE('',#89,#90,#27,.T.);
#71=EDGE_CURVE('',#90,#91,#103,.T.);
#72=EDGE_CURVE('',#91,#88,#28,.F.);
#73=EDGE_CURVE('',#92,#93,#104,.T.);
#74=EDGE_CURVE('',#92,#89,#29,.F.);
#75=EDGE_CURVE('',#88,#93,#30,.T.);
#76=EDGE_CURVE('',#94,#95,#105,.T.);
#77=EDGE_CURVE('',#92,#94,#106,.T.);
#78=EDGE_CURVE('',#93,#95,#107,.T.);
#79=EDGE_CURVE('',#95,#96,#12,.T.);
#80=EDGE_CURVE('',#91,#96,#108,.T.);
#81=EDGE_CURVE('',#97,#96,#109,.T.);
#82=EDGE_CURVE('',#90,#97,#110,.T.);
#83=EDGE_CURVE('',#97,#94,#13,.T.);
#84=EDGE_CURVE('',#98,#98,#14,.T.);
#85=EDGE_CURVE('',#99,#99,#15,.T.);
#86=EDGE_CURVE('',#100,#100,#16,.T.);
#87=EDGE_CURVE('',#101,#101,#17,.T.);
#88=VERTEX_POINT('',#242);
#89=VERTEX_POINT('',#243);
#90=VERTEX_POINT('',#255);
#91=VERTEX_POINT('',#257);
#92=VERTEX_POINT('',#278);
#93=VERTEX_POINT('',#279);
#94=VERTEX_POINT('',#304);
#95=VERTEX_POINT('',#305);
#96=VERTEX_POINT('',#310);
#97=VERTEX_POINT('',#314);
#98=VERTEX_POINT('',#320);
#99=VERTEX_POINT('',#322);
#100=VERTEX_POINT('',#325);
#101=VERTEX_POINT('',#329);
#102=LINE('',#241,#111);
#103=LINE('',#256,#112);
#104=LINE('',#277,#113);
#105=LINE('',#303,#114);
#106=LINE('',#306,#115);
#107=LINE('',#307,#116);
#108=LINE('',#311,#117);
#109=LINE('',#313,#118);
#110=LINE('',#315,#119);
#111=VECTOR('',#193,1.);
#112=VECTOR('',#194,1.);
#113=VECTOR('',#195,1.);
#114=VECTOR('',#198,1.);
#115=VECTOR('',#199,1.);
#116=VECTOR('',#200,1.);
#117=VECTOR('',#205,1.);
#118=VECTOR('',#208,1.);
#119=VECTOR('',#209,1.);
#120=EDGE_LOOP('',(#31,#32,#33,#34));
#121=EDGE_LOOP('',(#35,#36,#37,#38));
#122=EDGE_LOOP('',(#39,#40,#41,#42));
#123=EDGE_LOOP('',(#43,#44,#45,#46,#47));
#124=EDGE_LOOP('',(#48,#49,#50,#51));
#125=EDGE_LOOP('',(#52,#53,#54,#55,#56));
#126=EDGE_LOOP('',(#57));
#127=EDGE_LOOP('',(#58));
#128=EDGE_LOOP('',(#59,#60,#61,#62));
#129=EDGE_LOOP('',(#63));
#130=EDGE_LOOP('',(#64));
#131=EDGE_LOOP('',(#65));
#132=EDGE_LOOP('',(#66));
#133=EDGE_LOOP('',(#67));
#134=EDGE_LOOP('',(#68));
#135=FACE_BOUND('',#120,.T.);
#136=FACE_BOUND('',#121,.T.);
#137=FACE_BOUND('',#122,.T.);
#138=FACE_BOUND('',#123,.T.);
#139=FACE_BOUND('',#124,.T.);
#140=FACE_BOUND('',#125,.T.);
#141=FACE_BOUND('',#126,.T.);
#142=FACE_BOUND('',#127,.T.);
#143=FACE_BOUND('',#128,.T.);
#144=FACE_BOUND('',#129,.T.);
#145=FACE_BOUND('',#130,.T.);
#146=FACE_BOUND('',#131,.T.);
#147=FACE_BOUND('',#132,.T.);
#148=FACE_BOUND('',#133,.T.);
#149=FACE_BOUND('',#134,.T.);
#150=B_SPLINE_SURFACE_WITH_KNOTS('',3,1,((#233,#234),(#235,#236),(#237,
#238),(#239,#240)),.SURF_OF_LINEAR_EXTRUSION.,.F.,.F.,.F.,(4,4),(2,2),(0.,
0.5),(0.,1.),.PIECEWISE_BEZIER_KNOTS.);
#151=B_SPLINE_SURFACE_WITH_KNOTS('',3,1,((#269,#270),(#271,#272),(#273,
#274),(#275,#276)),.SURF_OF_LINEAR_EXTRUSION.,.F.,.F.,.F.,(4,4),(2,2),(0.5,
1.),(0.,1.),.PIECEWISE_BEZIER_KNOTS.);
#152=ADVANCED_FACE('',(#135),#150,.T.);
#153=ADVANCED_FACE('',(#136),#151,.T.);
#154=ADVANCED_FACE('',(#137),#22,.T.);
#155=ADVANCED_FACE('',(#138),#18,.T.);
#156=ADVANCED_FACE('',(#139),#23,.F.);
#157=ADVANCED_FACE('',(#140),#19,.T.);
#158=ADVANCED_FACE('',(#141,#142,#143),#24,.T.);
#159=ADVANCED_FACE('',(#144,#145),#20,.F.);
#160=ADVANCED_FACE('',(#146),#25,.T.);
#161=ADVANCED_FACE('',(#147,#148),#21,.F.);
#162=ADVANCED_FACE('',(#149),#26,.T.);
#163=CLOSED_SHELL('',(#152,#153,#154,#155,#156,#157,#158,#159,#160,#161,
#162));
#164=STYLED_ITEM('',(#165),#172);
#165=PRESENTATION_STYLE_ASSIGNMENT((#166));
#166=SURFACE_STYLE_USAGE(.BOTH.,#167);
#167=SURFACE_SIDE_STYLE('',(#168));
#168=SURFACE_STYLE_FILL_AREA(#169);
#169=FILL_AREA_STYLE('',(#170));
#170=FILL_AREA_STYLE_COLOUR('',#171);
#171=COLOUR_RGB('',0.262745098039216,0.282352941176471,0.301960784313725);
#172=MANIFOLD_SOLID_BREP('Part 1',#163);
#173=SHAPE_DEFINITION_REPRESENTATION(#337,#174);
#174=SHAPE_REPRESENTATION('Part 1',(#175),#332);
#175=AXIS2_PLACEMENT_3D('',#232,#191,#192);
#176=AXIS2_PLACEMENT_3D('',#302,#196,#197);
#177=AXIS2_PLACEMENT_3D('',#308,#201,#202);
#178=AXIS2_PLACEMENT_3D('',#309,#203,#204);
#179=AXIS2_PLACEMENT_3D('',#312,#206,#207);
#180=AXIS2_PLACEMENT_3D('',#316,#210,#211);
#181=AXIS2_PLACEMENT_3D('',#317,#212,#213);
#182=AXIS2_PLACEMENT_3D('',#318,#214,#215);
#183=AXIS2_PLACEMENT_3D('',#319,#216,#217);
#184=AXIS2_PLACEMENT_3D('',#321,#218,#219);
#185=AXIS2_PLACEMENT_3D('',#323,#220,#221);
#186=AXIS2_PLACEMENT_3D('',#324,#222,#223);
#187=AXIS2_PLACEMENT_3D('',#326,#224,#225);
#188=AXIS2_PLACEMENT_3D('',#327,#226,#227);
#189=AXIS2_PLACEMENT_3D('',#328,#228,#229);
#190=AXIS2_PLACEMENT_3D('',#330,#230,#231);
#191=DIRECTION('',(0.,0.,1.));
#192=DIRECTION('',(1.,0.,0.));
#193=DIRECTION('',(-1.,0.,0.));
#194=DIRECTION('',(1.,0.,0.));
#195=DIRECTION('',(1.,0.,0.));
#196=DIRECTION('',(0.,0.,-1.));
#197=DIRECTION('',(-1.,0.,0.));
#198=DIRECTION('',(1.,0.,0.));
#199=DIRECTION('',(0.,-1.,0.));
#200=DIRECTION('',(0.,-1.,0.));
#201=DIRECTION('',(0.,-1.,0.));
#202=DIRECTION('',(0.,0.,-1.));
#203=DIRECTION('',(0.,-1.,0.));
#204=DIRECTION('',(0.,0.,-1.));
#205=DIRECTION('',(0.,-1.,0.));
#206=DIRECTION('',(0.,0.,-1.));
#207=DIRECTION('',(-1.,0.,0.));
#208=DIRECTION('',(1.,0.,0.));
#209=DIRECTION('',(0.,-1.,0.));
#210=DIRECTION('',(0.,-1.,0.));
#211=DIRECTION('',(0.,0.,-1.));
#212=DIRECTION('',(0.,-1.,0.));
#213=DIRECTION('',(0.,0.,-1.));
#214=DIRECTION('',(0.,-1.,0.));
#215=DIRECTION('',(1.,0.,0.));
#216=DIRECTION('',(0.,-1.,0.));
#217=DIRECTION('',(0.,0.,-1.));
#218=DIRECTION('',(0.,-1.,0.));
#219=DIRECTION('',(0.,0.,-1.));
#220=DIRECTION('',(0.,-1.,0.));
#221=DIRECTION('',(0.,0.,-1.));
#222=DIRECTION('',(0.,-1.,0.));
#223=DIRECTION('',(0.,0.,-1.));
#224=DIRECTION('',(0.,-1.,0.));
#225=DIRECTION('',(1.,0.,0.));
#226=DIRECTION('',(0.,-1.,0.));
#227=DIRECTION('',(0.,0.,-1.));
#228=DIRECTION('',(0.,-1.,0.));
#229=DIRECTION('',(0.,0.,-1.));
#230=DIRECTION('',(0.,-1.,0.));
#231=DIRECTION('',(1.,0.,0.));
#232=CARTESIAN_POINT('',(0.,0.,0.));
#233=CARTESIAN_POINT('',(0.0627510000000001,0.004,0.0425));
#234=CARTESIAN_POINT('',(-0.0217510000000001,0.004,0.0425));
#235=CARTESIAN_POINT('',(0.0627510000000001,0.018000000000001,0.0425));
#236=CARTESIAN_POINT('',(-0.0217510000000001,0.018000000000001,0.0425));
#237=CARTESIAN_POINT('',(0.0627510000000001,0.032000000000002,0.0318749999999984));
#238=CARTESIAN_POINT('',(-0.0217510000000001,0.032000000000002,0.0318749999999984));
#239=CARTESIAN_POINT('',(0.0627510000000001,0.032,0.0212499999999977));
#240=CARTESIAN_POINT('',(-0.0217510000000001,0.032,0.0212499999999977));
#241=CARTESIAN_POINT('',(0.0625,0.032,0.0212499999999977));
#242=CARTESIAN_POINT('',(0.06225,0.032,0.0212499999999977));
#243=CARTESIAN_POINT('',(-0.02125,0.032,0.0212499999999977));
#244=CARTESIAN_POINT('',(-0.02125,0.032,0.0212499999999977));
#245=CARTESIAN_POINT('',(-0.0212500000000001,0.0320000000000002,0.0221967504486179));
#246=CARTESIAN_POINT('',(-0.0211251256125163,0.0317810583563167,0.0240448688676325));
#247=CARTESIAN_POINT('',(-0.0204191999259837,0.0306105628934069,0.0275776713908256));
#248=CARTESIAN_POINT('',(-0.0188851402623275,0.0282071884947296,0.0313377507218164));
#249=CARTESIAN_POINT('',(-0.0164551179304601,0.0246540205735991,0.034905808929709));
#250=CARTESIAN_POINT('',(-0.0136089402924073,0.0207222076203558,0.037720900767373));
#251=CARTESIAN_POINT('',(-0.0105144994108644,0.016655363061968,0.0398401673817805));
#252=CARTESIAN_POINT('',(-0.00602628510879699,0.0110174773086369,0.0418813867041836));
#253=CARTESIAN_POINT('',(-0.00245505499100795,0.00680178035797619,0.0425));
#254=CARTESIAN_POINT('',(-8.0744761452624E-18,0.004,0.0425));
#255=CARTESIAN_POINT('',(0.,0.004,0.0425));
#256=CARTESIAN_POINT('',(0.0205,0.004,0.0425));
#257=CARTESIAN_POINT('',(0.041,0.004,0.0425));
#258=CARTESIAN_POINT('',(0.06225,0.032,0.0212499999999977));
#259=CARTESIAN_POINT('',(0.0622500000000001,0.0320000000000002,0.0221967504486179));
#260=CARTESIAN_POINT('',(0.0621251256125163,0.0317810583563167,0.0240448688676325));
#261=CARTESIAN_POINT('',(0.0614191999259837,0.0306105628934068,0.0275776713908256));
#262=CARTESIAN_POINT('',(0.0598851402623269,0.02820718849473,0.0313377507218163));
#263=CARTESIAN_POINT('',(0.0574551179304621,0.0246540205735974,0.034905808929709));
#264=CARTESIAN_POINT('',(0.0546089402923999,0.0207222076203622,0.037720900767373));
#265=CARTESIAN_POINT('',(0.051514499410892,0.0166553630619439,0.0398401673817805));
#266=CARTESIAN_POINT('',(0.0470262851086506,0.0110174773087652,0.0418813867041835));
#267=CARTESIAN_POINT('',(0.0434550549916571,0.00680178035740734,0.0425));
#268=CARTESIAN_POINT('',(0.041,0.004,0.0425));
#269=CARTESIAN_POINT('',(0.062751,0.032,0.0212499999999977));
#270=CARTESIAN_POINT('',(-0.021751,0.032,0.0212499999999977));
#271=CARTESIAN_POINT('',(0.062751,0.031999999999998,0.0106249999999985));
#272=CARTESIAN_POINT('',(-0.021751,0.031999999999998,0.0106249999999985));
#273=CARTESIAN_POINT('',(0.062751,0.017999999999999,4.30478888240553E-42));
#274=CARTESIAN_POINT('',(-0.021751,0.017999999999999,4.30478888240553E-42));
#275=CARTESIAN_POINT('',(0.062751,0.004,-1.44329294344979E-49));
#276=CARTESIAN_POINT('',(-0.021751,0.004,-1.44329294344979E-49));
#277=CARTESIAN_POINT('',(0.0205,0.004,0.));
#278=CARTESIAN_POINT('',(5.50913175719328E-18,0.004,0.));
#279=CARTESIAN_POINT('',(0.041,0.004,-1.44329294344979E-49));
#280=CARTESIAN_POINT('',(-0.02125,0.032,0.0212499999999977));
#281=CARTESIAN_POINT('',(-0.0212499999999999,0.0319999999999998,0.0203032495513776));
#282=CARTESIAN_POINT('',(-0.0211251256125157,0.0317810583563157,0.0184551311323633));
#283=CARTESIAN_POINT('',(-0.0204191999259825,0.0306105628934051,0.0149223286091711));
#284=CARTESIAN_POINT('',(-0.018885140262326,0.0282071884947276,0.0111622492781812));
#285=CARTESIAN_POINT('',(-0.0164551179304591,0.0246540205735972,0.00759419107028954));
#286=CARTESIAN_POINT('',(-0.0136089402924052,0.0207222076203549,0.00477909923262599));
#287=CARTESIAN_POINT('',(-0.0105144994108667,0.0166553630619642,0.00265983261821906));
#288=CARTESIAN_POINT('',(-0.00602628510877983,0.0110174773086511,0.000618613295816365));
#289=CARTESIAN_POINT('',(-0.00245505499108183,0.00680178035791091,-3.73199257355666E-33));
#290=CARTESIAN_POINT('',(-8.0744761452624E-18,0.004,-3.73199257355666E-33));
#291=CARTESIAN_POINT('',(0.06225,0.032,0.0212499999999977));
#292=CARTESIAN_POINT('',(0.0622499999999999,0.0319999999999998,0.0203032495513776));
#293=CARTESIAN_POINT('',(0.0621251256125157,0.0317810583563157,0.0184551311323633));
#294=CARTESIAN_POINT('',(0.0614191999259825,0.0306105628934051,0.0149223286091711));
#295=CARTESIAN_POINT('',(0.0598851402623261,0.0282071884947276,0.0111622492781812));
#296=CARTESIAN_POINT('',(0.057455117930459,0.0246540205735972,0.00759419107028954));
#297=CARTESIAN_POINT('',(0.0546089402924056,0.0207222076203546,0.00477909923262599));
#298=CARTESIAN_POINT('',(0.0515144994108656,0.0166553630619651,0.00265983261821906));
#299=CARTESIAN_POINT('',(0.0470262851087855,0.0110174773086461,0.000618613295816354));
#300=CARTESIAN_POINT('',(0.0434550549910566,0.00680178035793301,8.61505130335317E-43));
#301=CARTESIAN_POINT('',(0.041,0.004,-1.08246970758734E-49));
#302=CARTESIAN_POINT('',(0.0205,0.004,0.));
#303=CARTESIAN_POINT('',(0.0205,0.,0.));
#304=CARTESIAN_POINT('',(5.50913175719328E-18,0.,0.));
#305=CARTESIAN_POINT('',(0.041,0.,0.));
#306=CARTESIAN_POINT('',(5.50913175719328E-18,0.004,0.));
#307=CARTESIAN_POINT('',(0.041,0.004,0.));
#308=CARTESIAN_POINT('',(0.041,0.004,0.02125));
#309=CARTESIAN_POINT('',(0.041,0.,0.02125));
#310=CARTESIAN_POINT('',(0.041,0.,0.0425));
#311=CARTESIAN_POINT('',(0.041,0.004,0.0425));
#312=CARTESIAN_POINT('',(0.0205,0.004,0.0425));
#313=CARTESIAN_POINT('',(0.0205,0.,0.0425));
#314=CARTESIAN_POINT('',(-2.16580840477181E-17,0.,0.0425));
#315=CARTESIAN_POINT('',(-2.16580840477181E-17,0.004,0.0425));
#316=CARTESIAN_POINT('',(-8.0744761452624E-18,0.004,0.02125));
#317=CARTESIAN_POINT('',(-8.0744761452624E-18,0.,0.02125));
#318=CARTESIAN_POINT('',(0.0205,0.,0.02125));
#319=CARTESIAN_POINT('',(0.041,0.,0.02125));
#320=CARTESIAN_POINT('',(0.041,0.,0.00375));
#321=CARTESIAN_POINT('',(-6.93889390390723E-18,0.,0.02125));
#322=CARTESIAN_POINT('',(-6.93889390390723E-18,0.,0.00375));
#323=CARTESIAN_POINT('',(-6.93889390390723E-18,0.001,0.02125));
#324=CARTESIAN_POINT('',(-6.93889390390723E-18,0.001,0.02125));
#325=CARTESIAN_POINT('',(-6.93889390390723E-18,0.001,0.00375));
#326=CARTESIAN_POINT('',(0.0205,0.001,0.02125));
#327=CARTESIAN_POINT('',(0.041,0.001,0.02125));
#328=CARTESIAN_POINT('',(0.041,0.001,0.02125));
#329=CARTESIAN_POINT('',(0.041,0.001,0.00375));
#330=CARTESIAN_POINT('',(0.0205,0.001,0.02125));
#331=MECHANICAL_DESIGN_GEOMETRIC_PRESENTATION_REPRESENTATION('',(#164),
#332);
#332=(
GEOMETRIC_REPRESENTATION_CONTEXT(3)
GLOBAL_UNCERTAINTY_ASSIGNED_CONTEXT((#333))
GLOBAL_UNIT_ASSIGNED_CONTEXT((#336,#335,#334))
REPRESENTATION_CONTEXT('Part 1','TOP_LEVEL_ASSEMBLY_PART')
);
#333=UNCERTAINTY_MEASURE_WITH_UNIT(LENGTH_MEASURE(2.E-5),#336,
'DISTANCE_ACCURACY_VALUE','Maximum Tolerance applied to model');
#334=(
NAMED_UNIT(*)
SI_UNIT($,.STERADIAN.)
SOLID_ANGLE_UNIT()
);
#335=(
NAMED_UNIT(*)
PLANE_ANGLE_UNIT()
SI_UNIT($,.RADIAN.)
);
#336=(
LENGTH_UNIT()
NAMED_UNIT(*)
SI_UNIT($,.METRE.)
);
#337=PRODUCT_DEFINITION_SHAPE('','',#338);
#338=PRODUCT_DEFINITION('','',#340,#339);
#339=PRODUCT_DEFINITION_CONTEXT('',#346,'design');
#340=PRODUCT_DEFINITION_FORMATION_WITH_SPECIFIED_SOURCE('','',#342,
 .NOT_KNOWN.);
#341=PRODUCT_RELATED_PRODUCT_CATEGORY('','',(#342));
#342=PRODUCT('Part 1','Part 1','Part 1',(#344));
#343=PRODUCT_CATEGORY('','');
#344=PRODUCT_CONTEXT('',#346,'mechanical');
#345=APPLICATION_PROTOCOL_DEFINITION('international standard',
'ap242_managed_model_based_3d_engineering',2011,#346);
#346=APPLICATION_CONTEXT('managed model based 3d engineering');
ENDSEC;
END-ISO-10303-21;
